<svg width="244" height="262" viewBox="0 0 244 262" fill="none" xmlns="http://www.w3.org/2000/svg">
<circle cx="136.231" cy="165.812" r="67.1097" transform="rotate(-47.463 136.231 165.812)" fill="#675DD2" stroke="white" stroke-width="1.42725"/>
<circle cx="136.231" cy="95.8281" r="67.1097" transform="rotate(-47.463 136.231 95.8281)" fill="#D165BC" stroke="white" stroke-width="1.42725"/>
<path d="M220.943 82.0213C248.253 107.079 250.079 149.531 225.021 176.841C199.964 204.151 157.512 205.977 130.202 180.92C102.892 155.862 101.066 113.41 126.123 86.0998C151.181 58.7898 193.633 56.9638 220.943 82.0213Z" fill="#554BC1" fill-opacity="0.77" stroke="white" stroke-width="1.42725"/>
<circle cx="95.8281" cy="131.47" r="67.1097" transform="rotate(-47.463 95.8281 131.47)" fill="#3EB6AE" fill-opacity="0.4" stroke="white" stroke-width="1.42725"/>
<circle cx="136.231" cy="165.812" r="67.1097" transform="rotate(-47.463 136.231 165.812)" stroke="white" stroke-width="1.42725"/>
<path d="M169.064 106.431C179.217 112.152 188.554 120.663 194.088 130.594C190.204 137.66 172.737 163.631 135.705 163.631C103.833 163.631 84.398 141.875 78.0995 130.753C84.0843 120.833 92.5398 112.557 102.643 106.879C112.747 101.2 124.335 97.9422 135.958 97.9663C147.581 97.9905 158.911 100.711 169.064 106.431Z" fill="#D165BC" fill-opacity="0.37"/>
<path d="M141.899 135.178L140.6 131.85C144.143 130.156 146.564 126.527 146.564 122.292C146.564 116.484 141.958 111.704 136.231 111.704C130.503 111.704 125.898 116.423 125.898 122.292C125.898 126.527 128.319 130.217 131.861 131.85L130.621 135.178L125.535 148.399C125.283 149.054 125.766 149.758 126.468 149.758H136.231H145.999C146.699 149.758 147.183 149.057 146.934 148.402L141.899 135.178Z" fill="white"/>
</svg>
