<svg width="31" height="30" viewBox="0 0 31 30" fill="none" xmlns="http://www.w3.org/2000/svg">
<path fill-rule="evenodd" clip-rule="evenodd" d="M16.4726 19.7991C19.1112 16.9234 18.9189 12.4532 16.0432 9.81464C13.1674 7.17611 8.69725 7.36839 6.05871 10.2441C3.42018 13.1198 3.61246 17.59 6.48818 20.2285C9.3639 22.8671 13.8341 22.6748 16.4726 19.7991ZM16.7474 20.0512C19.5251 17.0237 19.3227 12.3176 16.2952 9.53989C13.2678 6.76214 8.56172 6.96456 5.78397 9.99202C3.00621 13.0195 3.20864 17.7255 6.2361 20.5033C9.26356 23.2811 13.9696 23.0786 16.7474 20.0512Z" fill="white"/>
<path fill-rule="evenodd" clip-rule="evenodd" d="M20.9043 23.5824C23.5428 20.7067 23.3505 16.2365 20.4748 13.598C17.5991 10.9594 13.1289 11.1517 10.4904 14.0274C7.85182 16.9032 8.0441 21.3733 10.9198 24.0119C13.7955 26.6504 18.2657 26.4581 20.9043 23.5824ZM21.179 23.8345C23.9568 20.807 23.7543 16.101 20.7269 13.3232C17.6994 10.5455 12.9934 10.7479 10.2156 13.7753C7.43785 16.8028 7.64028 21.5089 10.6677 24.2866C13.6952 27.0644 18.4013 26.862 21.179 23.8345Z" fill="white"/>
<path fill-rule="evenodd" clip-rule="evenodd" d="M20.9043 15.8895C23.5428 13.0138 23.3505 8.54362 20.4748 5.90508C17.5991 3.26655 13.1289 3.45883 10.4904 6.33455C7.85182 9.21028 8.0441 13.6805 10.9198 16.319C13.7955 18.9575 18.2657 18.7652 20.9043 15.8895ZM21.179 16.1416C23.9568 13.1142 23.7543 8.40809 20.7269 5.63034C17.6994 2.85258 12.9934 3.05501 10.2156 6.08247C7.43785 9.10993 7.64028 13.816 10.6677 16.5937C13.6952 19.3715 18.4013 19.1691 21.179 16.1416Z" fill="white"/>
<path fill-rule="evenodd" clip-rule="evenodd" d="M25.2194 19.7991C27.858 16.9234 27.6657 12.4532 24.79 9.81464C21.9143 7.17611 17.4441 7.36839 14.8055 10.2441C12.167 13.1198 12.3593 17.59 15.235 20.2285C18.1107 22.8671 22.5809 22.6748 25.2194 19.7991ZM25.4942 20.0512C28.272 17.0237 28.0695 12.3176 25.0421 9.53989C22.0146 6.76214 17.3085 6.96456 14.5308 9.99202C11.753 13.0195 11.9555 17.7255 14.9829 20.5033C18.0104 23.2811 22.7164 23.0786 25.4942 20.0512Z" fill="white"/>
</svg>
