<svg width="479" height="75" viewBox="0 0 479 75" fill="none" xmlns="http://www.w3.org/2000/svg">
<rect x="0.668701" y="9.36475" width="477.116" height="64.9854" rx="23" transform="rotate(-1.09836 0.668701 9.36475)" fill="#A8D5D0"/>
<mask id="mask0_68_298" style="mask-type:alpha" maskUnits="userSpaceOnUse" x="1" y="0" width="478" height="74">
<rect x="0.668701" y="9.36475" width="477.116" height="64.9854" rx="23" transform="rotate(-1.09836 0.668701 9.36475)" fill="#87DBD1"/>
</mask>
<g mask="url(#mask0_68_298)">
<path d="M1.78403 0.500327C25.2239 27.5062 48.9916 54.3818 73.1274 81.0645C80.0049 88.6486 86.8824 96.2328 93.8011 103.816C98.2312 108.689 106.736 104.219 110.643 101.2C113.573 98.9128 116.125 96.3229 118.304 93.6471C121.088 90.216 124.005 85.1091 124.298 80.9821C124.846 72.9767 123.747 65.1578 120.915 57.4652C118.127 49.9576 114.436 42.6842 110.498 35.4775C102.923 21.6472 95.2659 7.88048 87.5672 -5.91648C83.2052 -13.7038 78.8438 -21.4601 74.4818 -29.2474C64.6717 -19.608 54.9024 -10.0004 45.0923 -0.360984C65.7803 23.134 86.5107 46.6902 110.877 68.1625C118.312 74.6823 126.074 81.01 134.121 87.0843C136.324 87.8477 138.554 87.836 140.81 87.018C143.068 86.324 145.073 85.3249 146.783 84.0526C152.454 80.4113 156.372 75.781 159.455 70.7328C167.985 56.7796 167.945 41.7823 168.567 26.8342C169.131 13.1577 169.695 -0.518781 170.3 -14.1651C160.121 -6.53282 149.942 1.06846 139.804 8.69991C148.74 22.3802 158.208 35.8643 168.251 49.1205C177.997 61.9796 187.909 74.9284 199.128 87.0775C204.864 93.289 211.84 99.5078 221.032 102.895C226.315 104.839 232.232 101.131 235.735 98.5539C241.722 94.1628 246.11 88.2529 248.391 82.2595C257.548 57.9444 261.571 32.984 261.047 7.83182C250.89 16.5792 240.732 25.3266 230.575 34.074C239.078 44.6018 247.623 55.1598 257.641 64.9459C263.112 70.2638 269.032 75.3253 275.359 80.0381C280.806 84.117 286.747 88.0935 293.857 90.5292C302.462 93.463 311.68 93.8751 320.636 91.3793C330.043 88.7509 338.367 83.4473 344.992 77.8664C359.461 65.6277 370.216 51.415 379.14 36.5246C382.902 30.2239 386.289 23.8065 389.678 17.42C391.311 14.2899 392.945 11.1907 394.62 8.09081C395.497 6.46262 396.416 4.80266 397.334 3.17368C397.495 2.9227 397.614 2.67251 397.774 2.42153C399.214 -0.0231331 395.603 5.53095 395.765 5.34192C395.967 5.09015 396.25 4.77485 396.41 4.49289C395.44 5.62705 394.429 6.73101 393.459 7.86516C390.043 10.6266 389.108 11.4192 390.738 10.2724C389.392 11.1349 388.004 11.9982 386.658 12.8607C386.943 12.6693 387.27 12.4771 387.639 12.346C386.328 12.898 385.017 13.4499 383.706 14.0018C384.28 13.7739 384.773 13.6405 385.39 13.5047C384.196 13.7135 383.002 13.9224 381.767 14.132C382.756 14.02 383.583 14.0662 384.536 14.2028C383.5 14.0058 382.505 13.8389 381.469 13.6419C385.204 14.5619 388.182 16.9528 391.109 18.8489C394.287 20.8952 397.507 22.9406 400.685 24.9869C407.292 29.2295 413.94 33.4713 420.547 37.714C433.802 46.1984 447.016 54.6837 460.271 63.1681C463.031 64.9435 468.807 62.5086 470.893 61.4461C475.555 59.0326 479.938 54.9511 482.634 51.2738C485.493 47.4385 488.3 43.0464 488.628 38.6088C488.818 35.5994 488.603 32.9695 485.341 30.8939C460.881 15.3111 436.627 -0.306603 412.251 -15.86C409.157 -17.8149 405.531 -19.5117 401.28 -19.3682C392.943 -19.0534 385.82 -13.6179 381.077 -8.97176C374.671 -2.71335 370.931 4.73347 367.064 11.9658C361.882 21.7334 356.909 31.6209 350.855 41.1263C350.454 41.7538 350.052 42.3502 349.651 42.9777C347.725 45.8965 352.865 38.2679 350.855 41.1573C349.971 42.4448 349.047 43.764 348.08 45.022C346.269 47.5048 344.333 49.928 342.272 52.2916C339.806 55.0968 346.275 47.8455 343.767 50.5896C343.241 51.1574 342.715 51.7253 342.189 52.2622C341.054 53.4305 339.92 54.5988 338.703 55.7067C337.973 56.4024 335.372 58.6524 338.623 55.8632C341.792 53.1375 339.435 55.1349 338.663 55.7694C337.32 56.8178 335.934 57.805 334.466 58.7628C335.812 57.9003 337.2 57.037 338.546 56.1745C336.71 57.3253 334.83 58.3529 332.782 59.2599C334.093 58.7079 335.404 58.156 336.715 57.6041C334.257 58.6428 331.711 59.4044 328.995 59.8903C330.188 59.6815 331.382 59.4726 332.617 59.263C329.035 59.8275 325.523 59.7709 321.96 59.1885C322.996 59.3855 323.991 59.5524 325.027 59.7494C313.961 57.7614 305.252 51.5449 297.62 45.5556C298.333 46.1307 299.046 46.7058 299.8 47.2492C283.906 34.6939 271.851 19.8339 259.921 5.09549C258.018 2.74592 254.294 2.41447 251.093 3.46745C247.07 4.75311 243.892 7.01418 241.089 9.45399C237.595 12.4648 234.4 16.0277 232.448 19.7527C231.773 21.1911 231.098 22.5985 230.465 24.0361C229.52 26.4403 229.195 28.8635 229.49 31.3369C229.506 32.2043 229.523 33.0716 229.54 33.9389C229.518 32.8238 229.538 31.6769 229.516 30.5617C229.598 45.5893 227.737 60.5611 224.015 75.3517C224.361 74.0436 224.667 72.7362 225.013 71.4281C223.323 78.0609 221.219 84.6397 218.783 91.1319C227.903 84.2637 237.022 77.3955 246.141 70.4962C241.691 68.8463 237.847 66.5649 234.409 63.9038C235.123 64.4789 235.836 65.054 236.59 65.5974C231.431 61.5129 227.334 56.7883 223.32 52.0312C218.544 46.39 213.851 40.6852 209.239 34.9479C200.057 23.4725 191.283 11.7724 182.961 -0.0604074C178.248 -6.7564 173.7 -13.4865 169.233 -20.2802C168.52 -20.8553 167.807 -21.4304 167.053 -21.9737C165.43 -22.6243 163.817 -22.7174 162.175 -22.2211C158.428 -21.5915 154.995 -19.6974 152.35 -17.6324C149.421 -15.3451 146.868 -12.7552 144.689 -10.0794C141.945 -6.71114 138.866 -1.44613 138.696 2.58556C138.217 14.2152 137.737 25.8449 137.218 37.5063C136.997 43.2433 136.735 48.981 136.515 54.718C136.285 59.9284 135.971 65.1094 134.706 70.2466C135.053 68.9385 135.358 67.6312 135.705 66.323C135.32 67.7868 134.852 69.2213 134.301 70.6573C133.04 73.7802 136.531 66.3382 135.135 68.906C134.736 69.6573 134.337 70.3777 133.897 71.0988C142.341 65.638 150.787 60.2082 159.231 54.7473C157.304 53.2969 155.375 51.8154 153.488 50.3332C154.201 50.9083 154.915 51.4834 155.668 52.0267C131.388 32.8769 110.779 11.3636 91.1549 -10.5095C85.5834 -16.7552 80.0533 -23.0017 74.5225 -29.2792C68.8654 -35.6782 57.3849 -26.9984 53.6573 -23.2393C49.8908 -19.3556 46.464 -14.9826 44.9843 -10.306C43.9337 -6.93919 43.2541 -3.61046 45.0923 -0.360984C57.0227 20.8849 68.953 42.1308 80.6368 63.4434C83.8467 69.3005 87.0152 75.1584 89.4855 81.2157C89.138 80.3237 88.7498 79.4635 88.4023 78.5715C90.9599 84.875 92.6942 91.3182 92.8213 97.9472C92.7999 96.832 92.8192 95.6851 92.7979 94.5699C92.818 95.6232 92.7563 96.7089 92.6939 97.7637C102.873 90.1315 113.052 82.5302 123.19 74.8987C98.8914 48.3431 74.919 21.5644 51.2745 -5.34461C44.5604 -13.0248 37.8463 -20.7051 31.1735 -28.3861C29.0623 -30.7936 25.7546 -30.9781 22.3451 -30.0141C17.7437 -28.7484 13.1042 -25.1578 10.3502 -22.3161C6.58249 -18.4943 3.15574 -14.1213 1.67537 -9.47569C0.700831 -6.45118 -0.623307 -2.27342 1.78403 0.500327Z" fill="#79C1B9" fill-opacity="0.8"/>
</g>
</svg>
