<svg width="458" height="74" viewBox="0 0 458 74" fill="none" xmlns="http://www.w3.org/2000/svg">
<rect x="0.365479" y="8.77002" width="456.144" height="64.9854" rx="23" transform="rotate(-1.09836 0.365479 8.77002)" fill="#A8D5D0"/>
<mask id="mask0_150_316" style="mask-type:alpha" maskUnits="userSpaceOnUse" x="0" y="0" width="458" height="74">
<rect x="0.365479" y="8.77002" width="456.144" height="64.9854" rx="23" transform="rotate(-1.09836 0.365479 8.77002)" fill="#87DBD1"/>
</mask>
<g mask="url(#mask0_150_316)">
<path d="M1.42433 -0.0933161C23.857 26.9319 46.603 53.8271 69.7007 80.5297C76.2824 88.1195 82.864 95.7093 89.4852 103.298C93.7246 108.175 101.852 103.712 105.585 100.697C108.384 98.4117 110.822 95.824 112.903 93.1501C115.562 89.7215 118.346 84.6171 118.623 80.4904C119.14 72.4856 118.082 64.6659 115.368 56.971C112.697 49.4611 109.162 42.1848 105.391 34.9749C98.1367 21.1385 90.8047 7.36547 83.4327 -6.43775C79.2558 -14.2286 75.0795 -21.9885 70.9026 -29.7793C61.5317 -20.1483 52.1998 -10.5491 42.8289 -0.918128C62.6276 22.594 82.467 46.1672 105.781 67.6597C112.895 74.1857 120.321 80.5198 128.019 86.6008C130.126 87.366 132.258 87.3561 134.414 86.5401C136.573 85.848 138.488 84.8506 140.122 83.5798C145.541 79.9433 149.283 75.3163 152.226 70.2708C160.369 56.3251 160.319 41.3279 160.901 26.3806C161.428 12.7048 161.956 -0.970952 162.523 -14.6165C152.798 -6.99296 143.072 0.599617 133.387 8.22241C141.941 21.91 151.005 35.4019 160.617 48.6663C169.946 61.5334 179.434 74.4903 190.17 86.6487C195.659 92.865 202.333 99.0895 211.125 102.485C216.177 104.433 221.831 100.73 225.177 98.1558C230.898 93.7698 235.088 87.8637 237.264 81.8723C245.998 57.5653 249.823 32.6086 249.302 7.45648C239.598 16.1952 229.894 24.9339 220.19 33.6726C228.329 44.2074 236.507 54.7724 246.093 64.5667C251.328 69.8892 256.992 74.9556 263.045 79.6737C268.257 83.7571 273.94 87.7386 280.739 90.1802C288.969 93.1212 297.782 93.541 306.342 91.0528C315.334 88.4324 323.288 83.1359 329.617 77.5607C343.439 65.3343 353.71 51.1309 362.23 36.2483C365.82 29.9509 369.054 23.5364 372.288 17.1528C373.847 14.0242 375.406 10.9265 377.005 7.82799C377.843 6.20056 378.719 4.54141 379.596 2.91322C379.749 2.66238 379.863 2.4123 380.016 2.16146C381.39 -0.281953 377.943 5.269 378.098 5.08011C378.29 4.82852 378.56 4.51346 378.713 4.23164C377.787 5.36496 376.821 6.46805 375.895 7.60137C372.631 10.3599 371.738 11.1517 373.296 10.0063C372.009 10.8676 370.683 11.7297 369.397 12.5911C369.669 12.3999 369.982 12.208 370.335 12.0773C369.082 12.6281 367.829 13.1789 366.576 13.7297C367.124 13.5023 367.595 13.3693 368.185 13.234C367.044 13.4419 365.903 13.6497 364.722 13.8582C365.668 13.7471 366.458 13.794 367.369 13.9314C366.378 13.7335 365.427 13.5658 364.436 13.3679C368.008 14.291 370.857 16.6844 373.658 18.583C376.698 20.6319 379.777 22.68 382.818 24.7289C389.138 28.977 395.497 33.2244 401.818 37.4725C414.497 45.968 427.138 54.4642 439.818 62.9597C442.458 64.7374 447.979 62.3074 449.972 61.2466C454.427 58.8371 458.613 54.7594 461.189 51.0845C463.918 47.2516 466.598 42.8619 466.908 38.4247C467.087 35.4155 466.879 32.7855 463.759 30.7071C440.361 15.104 417.16 -0.533899 393.841 -16.1076C390.881 -18.065 387.414 -19.7649 383.349 -19.625C375.379 -19.3172 368.573 -13.8878 364.042 -9.24572C357.924 -2.9928 354.355 4.45075 350.663 11.6797C345.717 21.4428 340.971 31.3259 335.191 40.8261C334.808 41.4532 334.425 42.0493 334.042 42.6764C332.202 45.5935 337.11 37.9694 335.191 40.8571C334.347 42.1438 333.464 43.4622 332.541 44.7194C330.812 47.2006 328.963 49.6221 326.994 51.9839C324.639 54.787 330.818 47.5413 328.423 50.2832C327.92 50.8506 327.418 51.418 326.915 51.9545C325.832 53.1218 324.748 54.2891 323.585 55.396C322.888 56.0911 320.404 58.3389 323.509 55.5524C326.537 52.8294 324.285 54.8248 323.547 55.4587C322.264 56.5059 320.94 57.4919 319.537 58.4484C320.823 57.5871 322.149 56.725 323.436 55.8637C321.681 57.0129 319.884 58.0389 317.928 58.9441C319.181 58.3933 320.434 57.8425 321.686 57.2917C319.337 58.3283 316.904 59.0877 314.307 59.5713C315.448 59.3635 316.589 59.1557 317.77 58.9472C314.345 59.5086 310.988 59.449 307.581 58.8636C308.572 59.0615 309.523 59.2292 310.514 59.4271C299.933 57.4299 291.6 51.2061 284.299 45.2105C284.981 45.7862 285.664 46.3619 286.385 46.9058C271.179 34.3374 259.64 19.4675 248.223 4.71924C246.401 2.3681 242.84 2.03352 239.781 3.08379C235.936 4.36604 232.899 6.6244 230.221 9.0618C226.883 12.0697 223.832 15.6298 221.969 19.3531C221.325 20.7909 220.681 22.1977 220.077 23.6347C219.175 26.038 218.866 28.461 219.15 30.9346C219.167 31.8019 219.184 32.6693 219.2 33.5366C219.179 32.4215 219.196 31.2746 219.175 30.1594C219.266 45.1868 217.499 60.1569 213.953 74.9441C214.283 73.6363 214.574 72.3292 214.904 71.0214C213.294 77.6527 211.288 84.2296 208.964 90.7196C217.678 83.8592 226.391 76.9987 235.103 70.1073C230.847 68.4536 227.17 66.169 223.881 63.5051C224.564 64.0808 225.246 64.6565 225.967 65.2005C221.032 61.1117 217.111 56.3838 213.269 51.6233C208.699 45.9782 204.206 40.2696 199.792 34.5285C191.004 23.0455 182.606 11.3382 174.64 -0.501408C170.128 -7.20127 165.774 -13.9351 161.498 -20.7325C160.816 -21.3081 160.133 -21.8838 159.412 -22.4278C157.86 -23.0798 156.318 -23.1741 154.748 -22.6792C151.167 -22.0528 147.886 -20.1616 145.359 -18.0989C142.56 -15.8141 140.122 -13.2264 138.041 -10.5525C135.421 -7.18658 132.481 -1.92426 132.322 2.10723C131.873 13.7363 131.425 25.3653 130.938 37.0261C130.732 42.7628 130.487 48.5003 130.281 54.237C130.065 59.4471 129.769 64.6278 128.565 69.7639C128.895 68.456 129.186 67.149 129.516 65.8411C129.149 67.3046 128.703 68.7386 128.178 70.1741C126.974 73.296 130.306 65.857 128.973 68.4236C128.593 69.1746 128.212 69.8946 127.791 70.6154C135.86 65.1617 143.93 59.7391 151.999 54.2854C150.155 52.8334 148.31 51.3503 146.505 49.8665C147.187 50.4422 147.869 51.0179 148.59 51.5619C125.361 32.3919 105.639 10.8616 86.8589 -11.0277C81.527 -17.278 76.2345 -23.529 70.9415 -29.811C65.5276 -36.2147 54.5589 -27.5447 50.9983 -23.7889C47.4005 -19.9084 44.128 -15.5383 42.7172 -10.8631C41.7156 -7.49721 41.0687 -4.1691 42.8289 -0.918128C54.2529 20.3375 65.6769 41.593 76.8652 62.9151C79.939 68.7749 82.9733 74.6354 85.3402 80.6946C85.0072 79.8024 84.6353 78.9418 84.3023 78.0496C86.7528 84.3551 88.4163 90.7997 88.5434 97.4287C88.5221 96.3135 88.5395 95.1666 88.5182 94.0515C88.5384 95.1047 88.4802 96.1904 88.4215 97.2451C98.1467 89.6215 107.873 82.0289 117.558 74.4061C94.3051 47.8305 71.3635 21.032 48.7353 -5.89647C42.3097 -13.5822 35.8841 -21.268 29.498 -28.9545C27.4776 -31.3638 24.3151 -31.5511 21.0563 -30.5899C16.6581 -29.3281 12.2255 -25.7415 9.59489 -22.9021C5.99594 -19.0836 2.72345 -14.7135 1.31204 -10.0693C0.382871 -7.04562 -0.879563 -2.86904 1.42433 -0.0933161Z" fill="#79C1B9" fill-opacity="0.8"/>
</g>
</svg>
