<svg width="341" height="54" viewBox="0 0 341 54" fill="none" xmlns="http://www.w3.org/2000/svg">
<rect x="0.133301" y="6.79395" width="339.513" height="46.8492" rx="23" transform="rotate(-1.09836 0.133301 6.79395)" fill="#A8D5D0"/>
<mask id="mask0_158_657" style="mask-type:alpha" maskUnits="userSpaceOnUse" x="0" y="0" width="341" height="54">
<rect x="0.133301" y="6.79395" width="339.513" height="46.8492" rx="23" transform="rotate(-1.09836 0.133301 6.79395)" fill="#87DBD1"/>
</mask>
<g mask="url(#mask0_158_657)">
<path d="M-45.7278 -21.6458C-25.4271 3.36548 -4.84302 28.2566 16.0591 52.9696C22.0151 59.994 27.9711 67.0183 33.9629 74.0419C37.7994 78.5553 45.1487 74.4295 48.5238 71.6412C51.0547 69.5286 53.2588 67.1355 55.1399 64.6626C57.5434 61.4916 60.0599 56.7704 60.3082 52.9527C60.7733 45.5472 59.8132 38.3125 57.3553 31.1924C54.9364 24.2436 51.7359 17.5105 48.3223 10.8388C41.7555 -1.96485 35.1184 -14.7098 28.445 -27.4828C24.664 -34.6922 20.8835 -41.8729 17.1025 -49.0822C8.63048 -40.1758 0.193655 -31.2988 -8.27833 -22.3924C9.63863 -0.632377 27.5924 21.1843 48.6878 41.0773C55.1249 47.1176 61.8444 52.9806 68.8094 58.6094C70.7158 59.3183 72.6442 59.31 74.594 58.5559C76.546 57.9164 78.2783 56.9944 79.7557 55.8194C84.6555 52.4572 88.0377 48.1781 90.6982 43.5114C98.0579 30.6127 98.0062 16.7381 98.5268 2.90979C98.9985 -9.74214 99.4702 -22.3941 99.9782 -35.018C91.1849 -27.969 82.391 -20.9485 73.6334 -13.9002C81.3761 -1.2337 89.5797 11.2519 98.2792 23.5273C106.722 35.435 115.309 47.4259 125.024 58.6784C129.992 64.4316 136.031 70.1929 143.984 73.3373C148.554 75.1418 153.667 71.7182 156.692 69.338C161.865 65.2826 165.653 59.8203 167.618 54.2782C175.508 31.794 178.958 8.70691 178.476 -14.5628C169.703 -6.48206 160.929 1.59871 152.156 9.67948C159.521 19.429 166.923 29.2064 175.597 38.2714C180.334 43.1976 185.459 47.887 190.936 52.2544C195.651 56.0342 200.793 59.7199 206.944 61.9815C214.389 64.7056 222.36 65.0975 230.102 62.7989C238.234 60.3782 245.426 55.4813 251.148 50.3259C263.646 39.0202 272.929 25.8839 280.63 12.1187C283.875 6.29405 286.797 0.360947 289.719 -5.54349C291.128 -8.43738 292.537 -11.3026 293.982 -14.1685C294.739 -15.6738 295.531 -17.2084 296.324 -18.7144C296.462 -18.9464 296.565 -19.1777 296.703 -19.4097C297.946 -21.6697 294.83 -16.5356 294.969 -16.7103C295.144 -16.943 295.388 -17.2343 295.526 -17.495C294.689 -16.4469 293.815 -15.4267 292.978 -14.3786C290.027 -11.8278 289.22 -11.0957 290.628 -12.1547C289.465 -11.3584 288.266 -10.5613 287.103 -9.76497C287.349 -9.94171 287.632 -10.1191 287.951 -10.2399C286.818 -9.73083 285.685 -9.22174 284.551 -8.71265C285.047 -8.92284 285.474 -9.04568 286.007 -9.17059C284.975 -8.97879 283.943 -8.78699 282.875 -8.59451C283.73 -8.6969 284.445 -8.65328 285.269 -8.52573C284.373 -8.70922 283.513 -8.86474 282.617 -9.04824C285.847 -8.19278 288.425 -5.97739 290.959 -4.21983C293.71 -2.3231 296.496 -0.427051 299.247 1.46968C304.965 5.40234 310.719 9.33431 316.437 13.267C327.909 21.1316 339.345 28.9969 350.817 36.8615C353.206 38.5072 358.198 36.2613 360.001 35.2807C364.03 33.0533 367.815 29.2824 370.142 25.8836C372.61 22.3387 375.032 18.2786 375.31 14.1737C375.471 11.3897 375.282 8.95653 372.459 7.03251C351.29 -7.412 330.298 -21.8886 309.201 -36.3058C306.523 -38.1179 303.386 -39.6919 299.71 -39.5641C292.501 -39.2825 286.347 -34.2622 282.251 -29.9694C276.719 -24.1869 273.494 -17.3019 270.158 -10.6155C265.688 -1.58518 261.399 7.55635 256.175 16.3431C255.829 16.9231 255.483 17.4745 255.137 18.0545C253.474 20.7525 257.91 13.701 256.176 16.3718C255.413 17.5618 254.615 18.7812 253.78 19.944C252.217 22.2387 250.545 24.4783 248.766 26.6626C246.637 29.2549 252.223 22.554 250.057 25.0897C249.603 25.6144 249.149 26.1392 248.694 26.6353C247.715 27.7148 246.735 28.7943 245.684 29.8179C245.053 30.4607 242.807 32.5392 245.615 29.9625C248.352 27.4445 246.316 29.2897 245.649 29.8759C244.489 30.8442 243.292 31.7558 242.023 32.6402C243.187 31.8439 244.386 31.0468 245.549 30.2505C243.962 31.313 242.338 32.2615 240.568 33.0982C241.701 32.5891 242.834 32.08 243.967 31.5709C241.843 32.529 239.642 33.2306 237.293 33.677C238.325 33.4852 239.357 33.2934 240.425 33.1009C237.328 33.619 234.291 33.5625 231.209 33.0196C232.106 33.2031 232.966 33.3586 233.862 33.5421C224.291 31.6901 216.752 25.9289 210.146 20.3792C210.763 20.912 211.381 21.4449 212.033 21.9484C198.275 10.3147 187.832 -3.44673 177.499 -17.0956C175.851 -19.2715 172.63 -19.5824 169.863 -18.612C166.386 -17.4272 163.64 -15.3391 161.219 -13.0852C158.201 -10.3038 155.443 -7.01138 153.759 -3.56752C153.177 -2.23761 152.595 -0.936356 152.049 0.392869C151.235 2.61597 150.956 4.85747 151.214 7.14602C151.23 7.94844 151.245 8.75087 151.261 9.5533C151.241 8.52161 151.256 7.46057 151.236 6.42888C151.324 20.3315 149.733 34.1803 146.531 47.8593C146.829 46.6495 147.092 45.4404 147.39 44.2306C145.936 50.3649 144.124 56.4487 142.025 62.4521C149.903 56.1086 157.781 49.7651 165.659 43.393C161.808 41.8614 158.482 39.7463 155.506 37.2805C156.124 37.8134 156.741 38.3463 157.394 38.8498C152.928 35.0651 149.38 30.6895 145.903 26.2839C141.767 21.0594 137.702 15.7763 133.707 10.4632C125.753 -0.163715 118.153 -10.9981 110.943 -21.9547C106.86 -28.1548 102.919 -34.3864 99.0483 -40.6766C98.4309 -41.2095 97.8135 -41.7423 97.161 -42.2459C95.7566 -42.8497 94.3621 -42.9376 92.9423 -42.4803C89.7035 -41.9022 86.737 -40.1539 84.4522 -38.2466C81.9213 -36.1339 79.7172 -33.7409 77.8361 -31.268C75.4672 -28.155 72.8106 -23.2877 72.6678 -19.558C72.2669 -8.7996 71.866 1.95884 71.43 12.7466C71.2461 18.0539 71.0264 23.3618 70.8425 28.669C70.6492 33.4891 70.3839 38.2818 69.2964 43.033C69.5947 41.8232 69.8572 40.6141 70.1554 39.4043C69.8242 40.7581 69.4211 42.0845 68.9466 43.4124C67.8591 46.3001 70.87 39.4192 69.6655 41.7932C69.3217 42.4878 68.9773 43.1538 68.5973 43.8205C75.8934 38.7782 83.19 33.7647 90.4861 28.7224C88.8175 27.3783 87.1483 26.0056 85.5149 24.6321C86.1322 25.165 86.7496 25.6978 87.4021 26.2014C66.3836 8.45707 48.5375 -11.4695 31.5422 -31.7278C26.717 -37.5124 21.9276 -43.2976 17.1376 -49.1116C12.2383 -55.0381 2.32075 -47.0214 -0.898325 -43.5481C-4.15091 -39.9595 -7.10909 -35.9178 -8.3833 -31.5931C-9.28788 -28.4795 -9.8717 -25.4008 -8.27833 -22.3924C2.06293 -2.72329 12.4042 16.9458 22.5323 36.6764C25.3148 42.0988 28.0616 47.5218 30.2048 53.1285C29.9033 52.3029 29.5666 51.5066 29.265 50.681C31.484 56.5155 32.9912 62.4784 33.1088 68.6112C33.089 67.5795 33.1043 66.5185 33.0846 65.4868C33.1032 66.4612 33.0511 67.4656 32.9984 68.4413C41.7917 61.3923 50.5855 54.3718 59.3431 47.3234C38.3004 22.7278 17.5395 -2.07394 -2.93809 -26.9958C-8.75296 -34.1088 -14.5678 -41.2218 -20.347 -48.3355C-22.1754 -50.5653 -25.0359 -50.7398 -27.9831 -49.8519C-31.9607 -48.6863 -35.9685 -45.3699 -38.3467 -42.7441C-41.6004 -39.2128 -44.5586 -35.1711 -45.8333 -30.8751C-46.6725 -28.0781 -47.8127 -24.2146 -45.7278 -21.6458Z" fill="#79C1B9" fill-opacity="0.8"/>
</g>
</svg>
