<svg width="642" height="55" viewBox="0 0 642 55" fill="none" xmlns="http://www.w3.org/2000/svg">
<path d="M640 53.3733C566.707 19.2629 477.881 1.16859 389.366 2.20767C373.102 2.38682 354.18 4.32165 346.1 14.0317C342.764 18.0447 341.93 22.7743 339.792 27.1097C337.603 31.481 333.224 35.8881 326.656 36.7122C321.964 37.2855 317.273 35.924 312.946 34.6341C288.398 27.1737 263.899 19.7132 239.354 12.2528C238.542 12.0061 237.779 12.8383 237.964 13.6662C240.475 24.9042 224.773 35.7657 207.959 37.8946C190.131 40.1519 172.199 35.6373 155.101 31.5885C138.003 27.5397 119.289 23.9208 102.087 27.7905C88.6374 30.8361 78.1596 38.0738 66.0137 43.09C47.0389 50.9369 23.3726 53.23 1.99997 49.2887" stroke="#D165BC" stroke-width="3" stroke-miterlimit="10" stroke-linecap="round"/>
</svg>
