<svg width="144" height="124" viewBox="0 0 144 124" fill="none" xmlns="http://www.w3.org/2000/svg">
<path d="M16.5445 87.8701C13.7857 73.5547 13.2066 57.3382 16.8366 43.1698C18.5521 36.4741 21.0161 28.8214 28.1051 25.7323C38.2744 21.3009 47.3424 32.1402 51.2896 39.8316C51.5446 40.3287 56.6776 51.7217 52.4788 54.0931C51.4086 54.6975 50.1411 52.3798 50.2502 51.1556C51.1644 40.891 58.3215 33.6348 67.7076 29.4475C83.708 22.3096 95.7439 24.3201 111.159 31.5717C117.058 34.3471 131.197 44.6699 134.582 52.6432" stroke="#87DAD1" stroke-width="2" stroke-linecap="round"/>
<path d="M139.763 48.2003C139.836 50.551 139.856 51.6753 139.886 54.0631C139.891 54.501 139.973 57.1888 139.812 58.0003C139.551 59.3119 136.744 58.2191 136.231 58.0979C131.147 56.8968 132.973 57.3631 127.95 55.9331" stroke="#87DAD1" stroke-width="2" stroke-linecap="round"/>
</svg>
