<svg width="30" height="30" viewBox="0 0 30 30" fill="none" xmlns="http://www.w3.org/2000/svg">
<path d="M6.05033 27.362V23.0724C6.05033 21.5366 5.64796 20.7379 4.85771 19.4027C3.89434 17.7716 3.37954 15.9147 3.36553 14.0204C3.35152 12.1261 3.83881 10.2618 4.77795 8.61667C5.71709 6.97152 7.07467 5.60404 8.71296 4.65297C10.3512 3.7019 12.2119 3.20108 14.1063 3.20132C16.9544 3.20164 19.6859 4.33304 21.7 6.34675C23.7142 8.36047 24.8462 11.0916 24.8472 13.9398C24.8472 14.6406 24.8472 14.991 24.8762 15.1868C24.9462 15.6556 25.1662 16.0592 25.38 16.4773L27.5321 20.6509L25.8404 21.4967C25.351 21.7408 25.1057 21.8628 24.9354 22.0888C24.765 22.3147 24.7167 22.5709 24.6212 23.0796L24.6115 23.1304C24.3904 24.3 24.1475 25.5905 23.4636 26.4049C23.222 26.6913 22.9223 26.9245 22.5852 27.0901C22.0281 27.362 21.343 27.362 19.9727 27.362C19.3384 27.362 18.7028 27.3765 18.0684 27.362C16.5665 27.3245 15.4487 26.0606 15.4487 24.5949" stroke="white" stroke-width="1.5" stroke-linecap="round" stroke-linejoin="round"/>
<path d="M18.3343 13.5108C17.8196 13.5108 17.3495 13.3151 16.9931 12.9949M18.3343 13.5108C18.3343 14.8956 17.532 16.2103 15.9877 16.2103C14.4435 16.2103 13.6411 17.5249 13.6411 18.9097M18.3343 13.5108C20.9322 13.5108 20.9322 9.46171 18.3343 9.46171C18.0975 9.46252 17.8731 9.50078 17.6613 9.5765C17.7881 6.55809 13.4369 5.73884 12.4509 8.56634M12.4509 8.56634C13.1699 9.05088 13.6411 9.87496 13.6411 10.8102M12.4509 8.56634C10.2131 7.05592 7.23093 9.76621 8.64951 12.1829C6.26909 12.5393 6.52284 16.2103 8.94797 16.2103C9.27132 16.2101 9.58985 16.1318 9.8764 15.982C10.163 15.8322 10.4091 15.6154 10.5937 15.3499" stroke="white" stroke-width="1.5" stroke-linecap="round" stroke-linejoin="round"/>
</svg>
