<svg width="22" height="21" viewBox="0 0 22 21" fill="none" xmlns="http://www.w3.org/2000/svg">
<path d="M5.03845 13.9124C4.18446 13.9124 3.41279 14.2525 2.85718 14.7925C1.64308 15.9725 0.922852 20.9127 0.922852 20.9127C0.922852 20.9127 6.00561 20.2127 7.21971 19.0326C7.65286 18.6138 7.94819 18.0794 8.06821 17.4971C8.18823 16.9148 8.12751 16.311 7.89377 15.7623C7.66003 15.2137 7.26382 14.7449 6.75543 14.4155C6.24704 14.0861 5.64942 13.911 5.03845 13.9124ZM5.76896 17.6226C5.48087 17.9026 3.53625 18.3826 3.53625 18.3826C3.53625 18.3826 4.01984 16.5025 4.31822 16.2125C4.49313 16.0225 4.75035 15.9125 5.03845 15.9125C5.24215 15.9128 5.44121 15.9717 5.61055 16.0817C5.77989 16.1918 5.91194 16.3481 5.99005 16.5309C6.06816 16.7138 6.08885 16.915 6.04951 17.1093C6.01017 17.3035 5.91255 17.4821 5.76896 17.6226ZM16.7885 12.5624C23.3323 6.20213 21.151 1.25193 21.151 1.25193C21.151 1.25193 16.0579 -0.868151 9.51415 5.4921L6.9522 4.99208C6.61916 4.92993 6.27557 4.94753 5.9511 5.04336C5.62663 5.13919 5.33105 5.31037 5.08989 5.54211L0.922852 9.60227L6.06734 11.7424L10.3579 15.9125L12.5597 20.9127L16.7267 16.8626C17.2103 16.3925 17.4264 15.7125 17.2926 15.0525L16.7885 12.5624ZM6.48919 9.74227L4.524 8.92224L6.55093 6.95216L8.03254 7.24217C7.44607 8.07221 6.92133 8.94224 6.48919 9.74227ZM13.2593 17.4126L12.4156 15.5025C13.2388 15.0825 14.1339 14.5725 14.9776 14.0024L15.276 15.4425L13.2593 17.4126ZM15.3274 11.1523C13.9693 12.4724 11.8498 13.5524 11.1707 13.8824L8.15601 10.9523C8.48526 10.3023 9.59647 8.24221 10.9649 6.91216C15.7801 2.23197 19.4327 2.922 19.4327 2.922C19.4327 2.922 20.1427 6.47214 15.3274 11.1523ZM14.2985 9.91228C15.4303 9.91228 16.3563 9.01224 16.3563 7.9122C16.3563 6.81216 15.4303 5.91212 14.2985 5.91212C13.1667 5.91212 12.2407 6.81216 12.2407 7.9122C12.2407 9.01224 13.1667 9.91228 14.2985 9.91228Z" fill="white"/>
</svg>
