<svg width="20" height="22" viewBox="0 0 20 22" fill="none" xmlns="http://www.w3.org/2000/svg">
<path d="M2.38268 12.9127C1.56869 11.6839 1.13952 10.2715 1.14272 8.83172C1.14272 4.45772 5.02858 0.91272 9.82135 0.91272C14.6141 0.91272 18.5 4.45772 18.5 8.83172C18.5032 10.2715 18.074 11.6839 17.26 12.9127M13.0758 17.9127L12.9348 18.5597C12.7829 19.2667 12.7059 19.6197 12.5334 19.8997C12.2676 20.3313 11.8373 20.6563 11.326 20.8117C10.9951 20.9127 10.6024 20.9127 9.82135 20.9127C9.04027 20.9127 8.64757 20.9127 8.31669 20.8127C7.80524 20.6571 7.37486 20.3317 7.10928 19.8997C6.93679 19.6197 6.85977 19.2667 6.70789 18.5597L6.56686 17.9127M4.81269 16.0107C4.71289 15.7347 4.66299 15.5957 4.66841 15.4837C4.67455 15.3679 4.71695 15.2562 4.7905 15.1622C4.86404 15.0681 4.96558 14.9957 5.08282 14.9537C5.19564 14.9127 5.35402 14.9127 5.66862 14.9127H13.9741C14.2898 14.9127 14.4471 14.9127 14.5599 14.9527C14.6773 14.9948 14.7789 15.0673 14.8525 15.1616C14.926 15.2558 14.9684 15.3677 14.9743 15.4837C14.9797 15.5957 14.9298 15.7337 14.83 16.0107C14.6456 16.5217 14.5534 16.7777 14.4113 16.9847C14.114 17.4173 13.6481 17.7284 13.1095 17.8537C12.8513 17.9127 12.5605 17.9127 11.978 17.9127H7.66471C7.08216 17.9127 6.79034 17.9127 6.53323 17.8527C5.99479 17.7276 5.52889 17.417 5.23144 16.9847C5.08933 16.7777 4.99712 16.5217 4.81269 16.0107Z" stroke="white" stroke-width="1.8" stroke-linecap="round" stroke-linejoin="round"/>
<path d="M5.75344 8.66272L8.19431 10.9127V14.9127M13.8897 8.66272L11.4488 10.9127V14.9127M5.75344 9.41272C5.96923 9.41272 6.17617 9.3337 6.32876 9.19305C6.48134 9.0524 6.56706 8.86163 6.56706 8.66272C6.56706 8.46381 6.48134 8.27304 6.32876 8.13239C6.17617 7.99174 5.96923 7.91272 5.75344 7.91272C5.53766 7.91272 5.33071 7.99174 5.17812 8.13239C5.02554 8.27304 4.93982 8.46381 4.93982 8.66272C4.93982 8.86163 5.02554 9.0524 5.17812 9.19305C5.33071 9.3337 5.53766 9.41272 5.75344 9.41272ZM13.8897 9.41272C13.6739 9.41272 13.4669 9.3337 13.3143 9.19305C13.1618 9.0524 13.076 8.86163 13.076 8.66272C13.076 8.46381 13.1618 8.27304 13.3143 8.13239C13.4669 7.99174 13.6739 7.91272 13.8897 7.91272C14.1054 7.91272 14.3124 7.99174 14.465 8.13239C14.6176 8.27304 14.7033 8.46381 14.7033 8.66272C14.7033 8.86163 14.6176 9.0524 14.465 9.19305C14.3124 9.3337 14.1054 9.41272 13.8897 9.41272Z" stroke="white" stroke-width="1.8" stroke-linecap="round" stroke-linejoin="round"/>
</svg>
