<svg width="28" height="29" viewBox="0 0 28 29" fill="none" xmlns="http://www.w3.org/2000/svg">
<g clip-path="url(#clip0_148_261)">
<path fill-rule="evenodd" clip-rule="evenodd" d="M6.65234 0.0339355C6.31513 0.0339355 5.99172 0.172216 5.75327 0.418358C5.51482 0.664499 5.38086 0.998339 5.38086 1.34644C5.38086 1.69453 5.51482 2.02837 5.75327 2.27451C5.99172 2.52065 6.31513 2.65894 6.65234 2.65894H7.07617V21.0339C7.07617 22.8905 7.79062 24.6709 9.06235 25.9837C10.3341 27.2964 12.0589 28.0339 13.8574 28.0339C15.6559 28.0339 17.3808 27.2964 18.6525 25.9837C19.9242 24.6709 20.6387 22.8905 20.6387 21.0339V2.65894H21.0625C21.3997 2.65894 21.7231 2.52065 21.9616 2.27451C22.2 2.02837 22.334 1.69453 22.334 1.34644C22.334 0.998339 22.2 0.664499 21.9616 0.418358C21.7231 0.172216 21.3997 0.0339355 21.0625 0.0339355L6.65234 0.0339355ZM18.0957 2.65894H9.61914V7.03394H18.0957V2.65894ZM18.0957 17.5339H15.1289C14.7917 17.5339 14.4683 17.6722 14.2298 17.9184C13.9914 18.1645 13.8574 18.4983 13.8574 18.8464C13.8574 19.1945 13.9914 19.5284 14.2298 19.7745C14.4683 20.0207 14.7917 20.1589 15.1289 20.1589H18.0957V21.0339C18.0957 22.1943 17.6492 23.3071 16.8543 24.1275C16.0595 24.948 14.9815 25.4089 13.8574 25.4089C12.7334 25.4089 11.6553 24.948 10.8605 24.1275C10.0657 23.3071 9.61914 22.1943 9.61914 21.0339V9.65894H18.0957V12.2839H15.1289C14.7917 12.2839 14.4683 12.4222 14.2298 12.6684C13.9914 12.9145 13.8574 13.2483 13.8574 13.5964C13.8574 13.9445 13.9914 14.2784 14.2298 14.5245C14.4683 14.7707 14.7917 14.9089 15.1289 14.9089H18.0957V17.5339Z" fill="white"/>
</g>
<defs>
<clipPath id="clip0_148_261">
<rect width="27.125" height="28" fill="white" transform="translate(0.294922 0.0339355)"/>
</clipPath>
</defs>
</svg>
