<svg width="47" height="65" viewBox="0 0 47 65" fill="none" xmlns="http://www.w3.org/2000/svg">
<g clip-path="url(#clip0_68_437)">
<path d="M18.8126 56.5625C20.1251 51.9375 19.2023 48.113 16.3126 44.5625C13.4229 41.012 9.85578 37.992 9.06253 33.4375C7.93243 26.9487 10.9356 22.176 14.5193 19.7168C18.1031 17.2577 23.2876 16.8211 27.4096 18.0725C31.7583 19.3967 35.3988 22.6852 37.2403 26.9487C39.0817 31.2122 37.8352 37.542 35.2005 41.3253C33.869 43.2315 32.0417 44.7157 30.7526 46.651C29.4636 48.5863 29.1378 54.0721 30.441 55.9928" stroke="#87DBD1" stroke-miterlimit="10"/>
<path d="M18.0323 56.4876C17.5223 56.5894 17.2957 57.3752 17.5082 57.7681C17.7207 58.161 18.2023 58.3065 18.6414 58.4083C23.2451 59.4415 34.1522 58.6411 32.7924 57.2151" stroke="#87DBD1" stroke-miterlimit="10"/>
<path d="M17.5789 59.0922C17.4231 59.7034 17.8197 60.3582 18.3439 60.6783C18.868 60.9984 19.5196 61.0712 20.1287 61.1148C24.534 61.4204 34.1238 61.4932 32.9198 58.8594" stroke="#87DBD1" stroke-miterlimit="10"/>
<path d="M17.6214 61.4786C17.5648 62.2789 18.1597 62.9919 18.8679 63.3121C19.5762 63.6322 20.3836 63.6467 21.1627 63.6467C22.6359 63.6467 24.1091 63.6613 25.5822 63.6613C26.673 63.6613 27.8345 63.5158 28.911 63.4139C30.2851 63.2829 33.0048 62.9337 32.8065 61.726" stroke="#87DBD1" stroke-miterlimit="10"/>
<path d="M18.5564 63.4285C18.7972 64.0833 19.4063 64.5344 20.0579 64.7381C20.7095 64.9418 21.3894 64.9418 22.0694 64.9273C24.0808 64.9273 25.4548 64.9563 28.727 64.869C29.2653 64.8545 29.8177 64.8545 30.3276 64.6799C30.8376 64.5053 31.56 63.6904 31.7017 63.152" stroke="#87DBD1" stroke-miterlimit="10"/>
<path d="M4.70288 8.43967C5.4253 11.0298 6.57268 13.4889 8.08835 15.6861" stroke="#87DBD1" stroke-miterlimit="10"/>
<path d="M12.6494 4.26349C12.7627 6.75174 13.2302 9.22543 14.0093 11.5827" stroke="#87DBD1" stroke-miterlimit="10"/>
<path d="M24.6616 0C24.69 2.77927 24.7041 5.55854 24.7324 8.35236" stroke="#87DBD1" stroke-miterlimit="10"/>
<path d="M36.6452 4.9183C35.8236 8.11956 35.002 11.3208 34.1804 14.5221" stroke="#87DBD1" stroke-miterlimit="10"/>
<path d="M44.2519 15.075C42.1271 17.4468 40.3564 20.1533 39.0107 23.0781" stroke="#87DBD1" stroke-miterlimit="10"/>
<path d="M46.9575 23.7329C45.3993 25.159 43.827 26.5995 42.2688 28.0255" stroke="#87DBD1" stroke-miterlimit="10"/>
<path d="M0.0424805 21.2156C1.68564 22.8017 3.79625 23.8784 6.02018 24.2568" stroke="#87DBD1" stroke-miterlimit="10"/>
<path d="M20.582 30.3537L28.1462 31.2122C28.2737 31.2268 28.3162 31.4159 28.1887 31.4741C26.2623 32.4636 23.9675 32.9293 21.7152 32.7837C21.6444 32.7837 21.6303 32.871 21.7011 32.9002C23.4576 33.3803 25.299 33.6423 27.1547 33.6568C27.268 33.6568 27.2963 33.8169 27.1972 33.8605C25.299 34.6608 23.1884 35.0974 21.0778 35.141C21.007 35.141 20.9928 35.2429 21.0636 35.272C23.6275 36.116 26.3614 36.5525 29.1095 36.567C29.2511 36.567 29.2794 36.7562 29.152 36.8144C27.7496 37.3965 24.6191 37.702 21.8569 38.0513C21.7861 38.0658 21.7861 38.1677 21.8569 38.1822C23.6842 38.4005 25.5115 38.6188 27.3388 38.837" stroke="#87DBD1" stroke-miterlimit="10"/>
</g>
<defs>
<clipPath id="clip0_68_437">
<rect width="47" height="65" fill="white"/>
</clipPath>
</defs>
</svg>
