<svg width="29" height="26" viewBox="0 0 29 26" fill="none" xmlns="http://www.w3.org/2000/svg">
<path d="M14.5006 0.578098C13.8815 0.220405 13.1185 0.220405 12.4994 0.578099L1.49847 6.93422C0.165602 7.70432 0.165952 9.62841 1.4991 10.398L2.95448 11.2382C3.57332 11.5955 3.95455 12.2557 3.95455 12.9703V19.3282C3.95455 20.0424 4.33535 20.7023 4.95363 21.0597L12.4991 25.4214C13.1184 25.7794 13.8816 25.7794 14.5009 25.4214L22.0464 21.0597C22.6647 20.7023 23.0455 20.0424 23.0455 19.3282V12.6029C23.0455 12.1157 23.3054 11.6655 23.7273 11.4219C24.6364 10.8971 25.7727 11.5532 25.7727 12.6029V18.8586C25.7727 19.6117 26.3832 20.2222 27.1364 20.2222C27.8895 20.2222 28.5 19.6117 28.5 18.8586V9.82094C28.5 9.10664 28.119 8.44656 27.5006 8.08921L14.5006 0.578098ZM20.3182 17.6096C20.3182 18.3236 19.9376 18.9835 19.3195 19.3409L14.5013 22.1276C13.8818 22.4858 13.1182 22.4858 12.4987 22.1276L7.68051 19.3409C7.06245 18.9835 6.68182 18.3236 6.68182 17.6096V16.8571C6.68182 15.3168 8.34979 14.3547 9.68312 15.1258L12.4987 16.7542C13.1182 17.1125 13.8818 17.1125 14.5013 16.7542L17.3169 15.1258C18.6502 14.3547 20.3182 15.3168 20.3182 16.8571V17.6096ZM14.5006 13.4619C13.8815 13.8196 13.1185 13.8196 12.4994 13.4619L7.19723 10.3984C5.86463 9.62846 5.86463 7.70488 7.19723 6.93494L12.4994 3.87143C13.1185 3.51374 13.8815 3.51374 14.5006 3.87143L19.8028 6.93494C21.1354 7.70488 21.1354 9.62845 19.8028 10.3984L14.5006 13.4619Z" fill="#87DBD1"/>
</svg>
