<svg width="29" height="25" viewBox="0 0 29 25" fill="none" xmlns="http://www.w3.org/2000/svg">
<path d="M2.30771 20.4872C2.30771 21.1557 2.59407 21.7968 3.10379 22.2695C3.61351 22.7422 4.30483 23.0078 5.02568 23.0078H14.2124C13.5737 22.3398 13.1796 21.4576 13.1796 20.4872H2.30771ZM17.2565 23.0078C17.9774 23.0078 18.6687 22.7422 19.1784 22.2695C19.6882 21.7968 19.9745 21.1557 19.9745 20.4872V4.10359C19.9745 3.13317 20.3686 2.25098 21.0073 1.58303H9.10264C8.38179 1.58303 7.69046 1.84859 7.18074 2.32129C6.67102 2.79398 6.38467 3.4351 6.38467 4.10359V19.2269H14.5386V20.4872C14.5386 21.1557 14.8249 21.7968 15.3346 22.2695C15.8444 22.7422 16.5357 23.0078 17.2565 23.0078ZM5.02568 4.10359C5.02568 3.10085 5.45522 2.13918 6.2198 1.43014C6.98437 0.721091 8.02136 0.322754 9.10264 0.322754H24.0515C25.1327 0.322754 26.1697 0.721091 26.9343 1.43014C27.6989 2.13918 28.1284 3.10085 28.1284 4.10359V6.62415H21.3335V20.4872C21.3335 21.4899 20.904 22.4516 20.1394 23.1607C19.3748 23.8697 18.3378 24.268 17.2565 24.268H5.02568C3.94441 24.268 2.90742 23.8697 2.14284 23.1607C1.37827 22.4516 0.94873 21.4899 0.94873 20.4872V19.2269H5.02568V4.10359ZM26.7694 5.36387V4.10359C26.7694 3.4351 26.4831 2.79398 25.9734 2.32129C25.4636 1.84859 24.7723 1.58303 24.0515 1.58303C23.3306 1.58303 22.6393 1.84859 22.1296 2.32129C21.6199 2.79398 21.3335 3.4351 21.3335 4.10359V5.36387H26.7694Z" fill="white"/>
</svg>
