<svg width="698" height="78" viewBox="0 0 698 78" fill="none" xmlns="http://www.w3.org/2000/svg">
<rect x="0.439453" y="0.857666" width="697.138" height="76.3728" rx="23" fill="#A8D5D0"/>
<mask id="mask0_148_33" style="mask-type:alpha" maskUnits="userSpaceOnUse" x="0" y="0" width="698" height="78">
<rect x="0.439453" y="0.857666" width="697.138" height="76.3728" rx="23" fill="#87DBD1"/>
</mask>
<g mask="url(#mask0_148_33)">
<path d="M-12.2917 7.07669C18.9442 111.154 50.68 214.818 82.9827 317.846C92.1897 347.133 101.397 376.421 110.665 405.714C116.597 424.535 129.698 409.802 135.837 399.483C140.443 391.658 144.529 382.644 148.075 373.239C152.608 361.177 157.544 342.976 158.487 327.852C160.289 298.51 159.635 269.523 156.41 240.651C153.228 212.469 148.683 184.967 143.766 157.66C134.303 105.252 124.713 53.0619 115.064 0.751931C109.593 -28.7763 104.12 -58.1905 98.6489 -87.7188C82.9813 -54.2319 67.3776 -20.8537 51.71 12.6332C79.3209 103.239 106.987 194.079 140.275 277.985C150.437 303.469 161.105 328.312 172.223 352.281C175.38 355.533 178.671 355.939 182.101 353.385C185.518 351.286 188.6 348.015 191.281 343.678C200.099 331.424 206.452 315.179 211.626 297.228C225.939 247.612 227.739 192.429 230.509 137.56C233.035 87.3583 235.562 37.1562 238.146 -12.9265C222.183 13.1018 206.223 39.016 190.321 65.0497C201.809 117.18 214.107 168.695 227.281 219.488C240.066 268.76 253.087 318.396 268.133 365.353C275.826 389.361 285.347 413.645 298.489 427.959C306.042 436.175 315.232 423.725 320.718 414.949C330.096 400.001 337.302 379.142 341.41 357.552C357.932 269.942 366.961 178.923 369.305 86.2828C353.235 116.418 337.165 146.553 321.095 176.689C332.336 217.133 343.635 257.698 357.202 295.719C364.615 316.386 372.722 336.2 381.473 354.813C389.004 370.917 397.276 386.743 407.463 397.137C419.796 409.664 433.345 413.037 446.867 405.659C461.072 397.885 474.009 380.05 484.475 360.852C507.338 318.741 524.966 268.619 539.978 215.636C546.308 193.213 552.101 170.286 557.891 147.473C560.689 136.286 563.483 125.213 566.339 114.146C567.835 108.333 569.395 102.411 570.953 96.6031C571.22 95.712 571.427 94.8156 571.695 93.9245C574.122 85.2207 568.107 104.927 568.369 104.264C568.698 103.378 569.154 102.275 569.425 101.27C567.854 105.247 566.225 109.105 564.654 113.082C559.272 122.553 557.795 125.281 560.342 121.39C558.248 124.292 556.094 127.189 554.001 130.091C554.446 129.444 554.952 128.803 555.513 128.395C553.51 130.161 551.507 131.928 549.505 133.694C550.379 132.971 551.123 132.58 552.05 132.205C550.263 132.732 548.476 133.26 546.628 133.782C548.101 133.57 549.316 133.906 550.704 134.601C549.2 133.667 547.753 132.853 546.249 131.919C551.645 136.056 555.742 145.453 559.826 153.018C564.262 161.187 568.758 169.36 573.193 177.529C582.415 194.469 591.698 211.414 600.92 228.353C619.424 262.238 637.868 296.118 656.373 330.002C660.225 337.09 669.049 329.296 672.258 325.807C679.436 317.867 686.407 303.734 690.841 290.749C695.534 277.215 700.219 261.622 701.253 245.362C701.906 234.328 701.914 224.61 697.359 216.316C663.203 154.059 629.355 91.7155 595.318 29.5835C590.996 21.7681 585.857 14.7951 579.567 14.4665C567.228 13.9449 556.045 32.507 548.472 48.6446C538.246 70.3788 531.806 97.0222 525.204 122.851C516.349 157.742 507.787 193.116 497.677 226.867C497.007 229.094 496.341 231.208 495.672 233.435C492.468 243.785 500.997 216.755 497.674 226.981C496.21 231.539 494.682 236.206 493.1 240.64C490.12 249.409 486.964 257.934 483.63 266.214C479.645 276.038 490.088 250.664 486.047 260.254C485.201 262.237 484.355 264.22 483.511 266.089C481.693 270.159 479.875 274.229 477.941 278.06C476.778 280.472 472.663 288.226 477.805 278.619C482.818 269.23 479.093 276.103 477.875 278.282C475.764 281.869 473.597 285.221 471.312 288.449C473.405 285.547 475.56 282.651 477.653 279.749C474.801 283.613 471.9 287.015 468.766 289.939C470.769 288.172 472.772 286.406 474.774 284.64C471.019 287.966 467.168 290.255 463.1 291.495C464.887 290.967 466.674 290.44 468.522 289.917C463.167 291.272 457.993 290.356 452.809 287.496C454.313 288.43 455.76 289.244 457.264 290.177C441.185 280.634 429.105 256.009 418.588 232.437C419.569 234.696 420.55 236.956 421.594 239.107C399.701 189.714 383.756 132.615 367.982 75.9889C365.465 66.9614 360.012 64.9918 355.159 68.2207C349.064 72.1402 344.095 79.8184 339.658 88.2297C334.129 98.6026 328.975 111.067 325.633 124.378C324.46 129.534 323.289 134.575 322.177 139.737C320.485 148.391 319.704 157.241 319.834 166.4C319.751 169.594 319.668 172.789 319.585 175.983C319.691 171.876 319.862 167.66 319.969 163.553C318.227 218.856 313.627 273.563 306.302 327.227C306.976 322.485 307.588 317.736 308.262 312.994C304.946 337.055 301.027 360.835 296.628 384.229C310.934 360.798 325.24 337.367 339.549 313.822C333.187 306.855 327.799 297.687 323.057 287.205C324.038 289.464 325.018 291.724 326.063 293.875C318.959 277.809 313.5 259.602 308.166 241.291C301.82 219.575 295.602 197.642 289.509 175.605C277.384 131.537 265.889 86.7246 255.078 41.5153C248.954 15.9313 243.078 -9.74523 237.329 -35.6391C236.348 -37.8985 235.368 -40.158 234.323 -42.3088C232.009 -45.0294 229.641 -45.6966 227.156 -44.2016C221.551 -42.64 216.252 -36.3632 212.093 -29.2993C207.487 -21.4746 203.401 -12.4604 199.855 -3.05529C195.389 8.78392 190.194 27.5335 189.443 42.3317C187.295 85.0207 185.147 127.71 182.935 170.507C181.899 191.569 180.802 212.626 179.766 233.688C178.78 252.81 177.676 271.808 175.174 290.453C175.847 285.71 176.46 280.962 177.133 276.219C176.384 281.527 175.515 286.71 174.525 291.882C172.277 303.117 178.35 276.441 175.972 285.607C175.291 288.291 174.613 290.861 173.874 293.425C187.009 275.036 200.141 256.761 213.277 238.372C210.613 232.647 207.951 226.809 205.351 220.975C206.332 223.235 207.313 225.494 208.358 227.645C174.908 152.301 147.169 69.0017 120.926 -15.423C113.48 -39.5234 106.095 -63.6184 98.7129 -87.8275C91.1596 -112.509 73.1464 -82.8891 67.1811 -69.8106C61.1429 -56.2812 55.5454 -40.8833 52.7828 -23.9764C50.8156 -11.8014 49.4005 0.308044 51.71 12.6332C66.679 93.2004 81.648 173.768 96.245 254.53C100.255 276.726 104.204 298.915 107.098 321.698C106.696 318.346 106.23 315.103 105.827 311.751C108.82 335.457 110.58 359.511 109.946 383.925C110.053 379.818 110.223 375.602 110.33 371.495C110.229 375.374 110.004 379.356 109.781 383.224C125.744 357.196 141.704 331.282 157.607 305.248C125.048 202.654 92.9982 99.3058 61.4484 -4.45602C52.4943 -34.0643 43.5403 -63.6725 34.6472 -93.2753C31.8307 -102.558 26.9737 -103.903 21.824 -101.043C14.8784 -97.3138 7.58867 -85.0388 3.17347 -75.1389C-2.85879 -61.8377 -8.45628 -46.4398 -11.216 -29.647C-13.0285 -18.7161 -15.4997 -3.61292 -12.2917 7.07669Z" fill="#79C1B9" fill-opacity="0.8"/>
</g>
</svg>
