<svg width="101" height="101" viewBox="0 0 101 101" fill="none" xmlns="http://www.w3.org/2000/svg">
<g clip-path="url(#clip0_148_217)">
<path d="M51.4388 21.6843L57.3311 14.9475L81.7823 36.2872L75.84 43.0264C73.8781 41.9222 71.6197 41.5052 69.439 41.8444C67.2582 42.1837 65.286 43.2589 63.8491 44.8918L62.7028 46.2025C59.7265 49.6602 59.7273 54.7039 62.5006 58.3325L56.5583 65.0717L47.2924 56.9674L41.3729 63.6805C39.9973 65.2532 29.985 74.1235 28.3818 72.7212C26.7514 71.2953 34.1824 60.1673 35.558 58.5945L41.4273 51.8839L32.1572 43.7296L38.0995 36.9903C40.0508 38.1015 42.3035 38.5229 44.4783 38.1835C46.6531 37.8442 48.6173 36.765 50.0403 35.1274L51.1866 33.8167C54.1901 30.3828 54.2121 25.3128 51.4388 21.6843Z" fill="#D165BC"/>
</g>
<defs>
<clipPath id="clip0_148_217">
<rect width="72.1996" height="69.6501" fill="white" transform="translate(46.1289 0.338135) rotate(41.1742)"/>
</clipPath>
</defs>
</svg>
