<svg width="768" height="66" viewBox="0 0 768 66" fill="none" xmlns="http://www.w3.org/2000/svg">
<rect x="0.685547" y="0.421387" width="767.032" height="64.9854" rx="23" fill="#A8D5D0"/>
<mask id="mask0_152_358" style="mask-type:alpha" maskUnits="userSpaceOnUse" x="0" y="0" width="768" height="66">
<rect x="0.685547" y="0.421387" width="767.032" height="64.9854" rx="23" fill="#87DBD1"/>
</mask>
<g mask="url(#mask0_152_358)">
<path d="M4.6174 -41.4242C44.8519 -1.55918 85.6664 38.1259 127.133 77.5409C138.95 88.7445 150.767 99.9481 162.656 111.152C170.268 118.351 185.347 112.097 192.306 107.822C197.526 104.583 202.093 100.893 206.008 97.0685C211.01 92.1641 216.302 84.83 216.954 78.8458C218.187 67.2372 216.519 55.8536 211.807 44.605C207.167 33.6264 200.933 22.9628 194.263 12.3891C181.432 -7.90339 168.455 -28.1059 155.406 -48.3533C148.012 -59.7819 140.617 -71.1655 133.223 -82.5941C115.679 -68.8708 98.208 -55.1925 80.6643 -41.4692C116.187 -6.77853 151.782 28.0021 193.828 59.8581C206.66 69.5319 220.072 78.9357 233.991 87.9796C237.833 89.1495 241.747 89.1945 245.735 88.0696C249.722 87.1247 253.274 85.7299 256.319 83.9301C266.396 78.8008 273.428 72.1866 279.01 64.9425C294.451 44.92 294.886 23.1427 296.481 1.45544C297.931 -18.3871 299.381 -38.2296 300.903 -58.0271C282.779 -47.2285 264.656 -36.4748 246.605 -25.6762C261.828 -5.56368 277.995 14.2788 295.176 33.8064C311.85 52.749 328.814 71.8266 348.097 89.7794C357.956 98.9582 369.991 108.182 386.012 113.356C395.219 116.326 405.73 111.107 411.965 107.462C422.622 101.253 430.524 92.794 434.728 84.1551C451.62 49.1045 459.521 12.974 459.449 -23.5614C441.325 -11.143 423.202 1.27546 405.078 13.6939C419.649 29.217 434.293 44.785 451.547 59.2732C460.971 67.1472 471.193 74.6613 482.14 81.6804C491.564 87.7546 501.858 93.6939 514.255 97.4284C529.261 101.928 545.428 102.783 561.231 99.4082C577.833 95.8536 592.622 88.3846 604.438 80.4656C630.246 63.0977 649.602 42.7603 665.769 21.388C672.583 12.3441 678.745 3.12023 684.907 -6.05862C687.88 -10.5581 690.852 -15.0125 693.897 -19.4669C695.492 -21.8067 697.159 -24.1914 698.826 -26.5311C699.116 -26.891 699.334 -27.251 699.624 -27.6109C702.234 -31.1205 695.709 -23.1565 695.999 -23.4264C696.361 -23.7864 696.869 -24.2363 697.159 -24.6413C695.419 -23.0215 693.607 -21.4467 691.867 -19.8269C685.777 -15.9124 684.11 -14.7875 687.01 -16.4073C684.617 -15.1925 682.153 -13.9776 679.76 -12.7628C680.268 -13.0328 680.848 -13.3027 681.5 -13.4827C679.18 -12.7178 676.86 -11.9529 674.541 -11.188C675.556 -11.5029 676.425 -11.6829 677.513 -11.8629C675.411 -11.5929 673.308 -11.323 671.133 -11.053C672.873 -11.188 674.323 -11.098 675.99 -10.873C674.178 -11.188 672.438 -11.4579 670.626 -11.7729C677.15 -10.3331 682.298 -6.77853 687.372 -3.94388C692.882 -0.884267 698.464 2.17535 703.973 5.23497C715.428 11.5792 726.954 17.9234 738.408 24.2676C761.389 36.956 784.298 49.6444 807.278 62.3328C812.063 64.9875 822.285 61.6129 825.982 60.1281C834.246 56.7535 842.076 50.9492 846.933 45.6849C852.08 40.1956 857.155 33.8964 857.88 27.4622C858.315 23.0977 858.025 19.2732 852.37 16.1686C809.961 -7.13849 767.914 -30.4906 725.649 -53.7527C720.285 -56.6773 713.978 -59.242 706.511 -59.152C691.867 -58.927 679.18 -51.233 670.698 -44.6188C659.244 -35.7099 652.43 -25.0013 645.398 -14.6075C635.973 -0.569304 626.912 13.6489 615.965 27.2822C615.24 28.1821 614.515 29.037 613.79 29.9369C610.31 34.1213 619.59 23.1877 615.965 27.3272C614.37 29.172 612.703 31.0617 610.963 32.8615C607.701 36.4161 604.221 39.8806 600.524 43.2552C596.101 47.2597 607.701 36.911 603.206 40.8255C602.263 41.6354 601.321 42.4453 600.379 43.2102C598.349 44.875 596.319 46.5398 594.144 48.1146C592.839 49.1045 588.199 52.2991 593.999 48.3396C599.654 44.4701 595.449 47.3047 594.072 48.2046C591.679 49.6894 589.214 51.0842 586.605 52.4341C588.997 51.2192 591.462 50.0044 593.854 48.7895C590.592 50.4093 587.257 51.8491 583.632 53.109C585.952 52.3441 588.272 51.5792 590.592 50.8143C586.242 52.2541 581.747 53.289 576.963 53.9189C579.065 53.6489 581.167 53.3789 583.342 53.109C577.035 53.8289 570.873 53.6489 564.639 52.704C566.451 53.019 568.191 53.289 570.003 53.6039C550.647 50.4093 535.568 41.1405 522.374 32.2316C523.607 33.0865 524.839 33.9414 526.144 34.7513C498.669 16.0786 478.008 -5.83365 457.564 -27.5659C454.302 -31.0305 447.777 -31.6154 442.123 -30.1756C435.018 -28.4208 429.364 -25.2262 424.361 -21.7617C418.127 -17.4872 412.4 -12.4028 408.848 -7.04849C407.615 -4.97875 406.383 -2.95401 405.223 -0.884265C403.483 2.5803 402.831 6.08986 403.266 9.68941C403.266 10.9493 403.266 12.2091 403.266 13.4689C403.266 11.8491 403.338 10.1844 403.338 8.56455C402.976 30.3868 399.206 52.0741 392.174 73.4464C392.826 71.5567 393.406 69.6669 394.059 67.7771C390.869 77.3609 386.954 86.8548 382.46 96.2136C398.698 86.4948 414.937 76.776 431.176 67.0122C423.419 64.4926 416.75 61.073 410.805 57.1135C412.037 57.9684 413.27 58.8233 414.575 59.6332C405.658 53.5589 398.626 46.5848 391.739 39.5657C383.547 31.2417 375.5 22.8278 367.598 14.3688C351.867 -2.54906 336.86 -19.7819 322.651 -37.1947C314.605 -47.0485 306.848 -56.9473 299.236 -66.936C298.003 -67.7909 296.771 -68.6458 295.466 -69.4557C292.639 -70.4456 289.811 -70.6256 286.912 -69.9506C280.315 -69.1407 274.225 -66.4861 269.513 -63.5614C264.293 -60.3218 259.726 -56.6323 255.811 -52.8078C250.882 -47.9934 245.3 -40.4343 244.865 -34.5851C243.632 -17.7122 242.4 -0.839272 241.095 16.0786C240.515 24.4026 239.863 32.7265 239.283 41.0505C238.703 48.6095 237.978 56.1236 235.585 63.5477C236.238 61.6579 236.818 59.7681 237.47 57.8784C236.745 59.9931 235.875 62.0629 234.86 64.1326C232.541 68.632 238.92 57.9234 236.383 61.6129C235.658 62.6928 234.933 63.7277 234.136 64.7625C249.142 57.0685 264.148 49.4194 279.155 41.7254C275.82 39.5657 272.485 37.3609 269.223 35.1562C270.455 36.0111 271.688 36.866 272.993 37.6759C231.018 9.19447 195.568 -22.6165 161.858 -54.9225C152.289 -64.1464 142.792 -73.3702 133.295 -82.639C123.581 -92.0879 103.138 -79.8044 96.4681 -74.4501C89.7261 -68.9158 83.5641 -62.6615 80.8093 -55.9124C78.8519 -51.053 77.547 -46.2386 80.6643 -41.4692C100.89 -10.2881 121.116 20.893 140.907 52.1641C146.344 60.758 151.709 69.3519 155.841 78.2158C155.261 76.911 154.609 75.6512 154.029 74.3463C158.306 83.5702 161.133 92.974 161.133 102.603C161.133 100.983 161.206 99.3182 161.206 97.6984C161.206 99.2282 161.061 100.803 160.916 102.333C179.04 91.5342 197.163 80.7805 215.214 69.9819C173.457 30.7468 132.281 -8.80327 91.6835 -48.5333C80.1568 -59.8719 68.6302 -71.2105 57.176 -82.5491C53.5513 -86.1036 47.7517 -86.4636 41.7347 -85.1587C33.6153 -83.4489 25.3509 -78.3646 20.4212 -74.3151C13.6792 -68.8708 7.51719 -62.6165 4.76239 -55.9124C2.95003 -51.5479 0.485209 -45.5187 4.6174 -41.4242Z" fill="#79C1B9" fill-opacity="0.8"/>
</g>
</svg>
