<svg width="446" height="29" viewBox="0 0 446 29" fill="none" xmlns="http://www.w3.org/2000/svg">
<path d="M444.629 27.1963C393.686 10.2852 331.946 1.31446 270.423 1.82961C259.119 1.91843 245.966 2.87767 240.35 7.69165C238.031 9.68119 237.452 12.026 235.966 14.1754C234.444 16.3426 231.401 18.5276 226.835 18.9361C223.575 19.2203 220.314 18.5453 217.306 17.9058C199.77 14.1044 184.099 21.0285 176.2 21.546C163.211 22.3969 152.588 21.546 143.767 21.546C134.945 21.546 119.479 18.4032 107.594 16.3959C95.7102 14.3886 82.7028 12.5945 70.7461 14.5129C61.3981 16.0229 54.1153 19.6111 45.6732 22.0981C32.4846 25.9883 16.0351 27.1252 1.17974 25.1712" stroke="#D165BC" stroke-width="2" stroke-miterlimit="10" stroke-linecap="round"/>
</svg>
