<svg width="34" height="34" viewBox="0 0 34 34" fill="none" xmlns="http://www.w3.org/2000/svg">
<g clip-path="url(#clip0_148_180)">
<path d="M14.1001 7.01766L15.3954 4.12223L25.8995 8.80757L24.5876 11.709C23.808 11.5391 22.9995 11.6328 22.296 11.9746C21.5925 12.3165 21.0362 12.886 20.7194 13.5887L20.4674 14.152C19.8188 15.6331 20.3439 17.3418 21.6611 18.2825L20.3491 21.184L16.3667 19.4025L15.0598 22.2927C14.7574 22.9687 12.2884 27.0156 11.5993 26.7073C10.8986 26.3939 12.2582 21.8507 12.5606 21.1747L13.8507 18.2905L9.86168 16.4926L11.1736 13.5911C11.9503 13.7645 12.7573 13.6729 13.4588 13.3316C14.1603 12.9904 14.7134 12.4203 15.0251 11.7175L15.2771 11.1542C15.9373 9.67831 15.4172 7.95839 14.1001 7.01766Z" fill="#D165BC"/>
</g>
<defs>
<clipPath id="clip0_148_180">
<rect width="25.5878" height="24.6842" fill="white" transform="translate(10.0801 0.338379) rotate(24.1006)"/>
</clipPath>
</defs>
</svg>
