<svg width="64" height="63" viewBox="0 0 64 63" fill="none" xmlns="http://www.w3.org/2000/svg">
<g clip-path="url(#clip0_150_336)">
<path d="M27.3177 12.8421L29.761 7.38026L49.5756 16.2185L47.1008 21.6917C45.6303 21.3711 44.1052 21.5479 42.7781 22.1927C41.4511 22.8376 40.4017 23.9118 39.804 25.2374L39.3286 26.3C38.1053 29.0939 39.0958 32.317 41.5804 34.0916L39.1056 39.5648L31.5933 36.2043L29.128 41.6563C28.5576 42.9314 23.9001 50.5653 22.6003 49.9839C21.2785 49.3926 23.8432 40.8225 24.4136 39.5473L26.8473 34.1068L19.3225 30.7152L21.7973 25.242C23.2624 25.569 24.7847 25.3962 26.108 24.7525C27.4313 24.1087 28.4747 23.0335 29.0626 21.7077L29.5379 20.6451C30.7833 17.861 29.8023 14.6166 27.3177 12.8421Z" fill="#D165BC"/>
</g>
<defs>
<clipPath id="clip0_150_336">
<rect width="48.2678" height="46.5633" fill="white" transform="translate(19.7344 0.242676) rotate(24.1006)"/>
</clipPath>
</defs>
</svg>
