<svg width="25" height="23" viewBox="0 0 25 23" fill="none" xmlns="http://www.w3.org/2000/svg">
<path d="M6.84052 4.13879C6.26288 4.13864 5.69557 4.27996 5.19677 4.54827C4.69796 4.81658 4.2856 5.20222 4.00195 5.66567C3.7183 6.12911 3.57357 6.65369 3.58259 7.18563C3.5916 7.71757 3.75405 8.23773 4.05327 8.69279C3.31008 8.82505 2.64007 9.19146 2.15828 9.72913C1.67648 10.2668 1.41296 10.9422 1.41296 11.6393C1.41296 12.3364 1.67648 13.0118 2.15828 13.5495C2.64007 14.0871 3.31008 14.4535 4.05327 14.5858M6.84052 4.13879C6.84052 3.47575 7.12652 2.83987 7.63558 2.37103C8.14465 1.90219 8.8351 1.63879 9.55503 1.63879C10.275 1.63879 10.9654 1.90219 11.4745 2.37103C11.9835 2.83987 12.2695 3.47575 12.2695 4.13879M6.84052 4.13879C6.84052 4.95679 7.26724 5.68279 7.92633 6.13879M4.05327 14.5858C3.75433 15.0408 3.59211 15.5609 3.58323 16.0927C3.57435 16.6245 3.71914 17.1489 4.00276 17.6122C4.28638 18.0755 4.69863 18.461 5.19727 18.7292C5.69592 18.9975 6.26304 19.1388 6.84052 19.1388C6.84052 19.8018 7.12652 20.4377 7.63558 20.9066C8.14465 21.3754 8.8351 21.6388 9.55503 21.6388C10.275 21.6388 10.9654 21.3754 11.4745 20.9066C11.9835 20.4377 12.2695 19.8018 12.2695 19.1388M4.05327 14.5858C4.44294 13.9917 5.04425 13.5404 5.75472 13.3088M12.2695 4.13879V19.1388M12.2695 4.13879C12.2695 3.47575 12.5555 2.83987 13.0646 2.37103C13.5737 1.90219 14.2641 1.63879 14.984 1.63879C15.704 1.63879 16.3944 1.90219 16.9035 2.37103C17.4125 2.83987 17.6985 3.47575 17.6985 4.13879C18.2762 4.13864 18.8435 4.27996 19.3423 4.54827C19.8411 4.81658 20.2535 5.20222 20.5371 5.66567C20.8208 6.12911 20.9655 6.65369 20.9565 7.18563C20.9475 7.71757 20.785 8.23773 20.4858 8.69279M12.2695 19.1388C12.2695 19.8018 12.5555 20.4377 13.0646 20.9066C13.5737 21.3754 14.2641 21.6388 14.984 21.6388C15.704 21.6388 16.3944 21.3754 16.9035 20.9066C17.4125 20.4377 17.6985 19.8018 17.6985 19.1388M17.6985 19.1388C18.276 19.1388 18.8431 18.9975 19.3418 18.7292C19.8404 18.461 20.2527 18.0755 20.5363 17.6122C20.8199 17.1489 20.9647 16.6245 20.9558 16.0927C20.947 15.5609 20.7847 15.0408 20.4858 14.5858C21.229 14.4535 21.899 14.0871 22.3808 13.5495C22.8626 13.0118 23.1261 12.3364 23.1261 11.6393C23.1261 10.9422 22.8626 10.2668 22.3808 9.72913C21.899 9.19146 21.229 8.82505 20.4858 8.69279M17.6985 19.1388C17.6985 18.3208 17.2718 17.5948 16.6127 17.1388M20.4858 8.69279C20.0957 9.28617 19.4945 9.73673 18.7843 9.96779" stroke="white" stroke-width="2.5" stroke-linecap="round" stroke-linejoin="round"/>
</svg>
