<svg width="30" height="30" viewBox="0 0 30 30" fill="none" xmlns="http://www.w3.org/2000/svg">
<path d="M15.3076 17.1847C17.3096 17.1847 18.9326 15.5618 18.9326 13.5597C18.9326 11.5577 17.3096 9.93474 15.3076 9.93474C13.3056 9.93474 11.6826 11.5577 11.6826 13.5597C11.6826 15.5618 13.3056 17.1847 15.3076 17.1847Z" stroke="white" stroke-width="1.5" stroke-linecap="round" stroke-linejoin="round"/>
<path d="M22.1432 22.0181C23.5719 20.8634 24.6849 19.3656 25.3783 17.6644C26.0716 15.9632 26.3227 14.1141 26.1082 12.2897C25.8936 10.4652 25.2204 8.72481 24.1512 7.23091C23.0821 5.73701 21.652 4.53829 19.9943 3.7466C18.3366 2.9549 16.5054 2.59604 14.6715 2.7035C12.8376 2.81096 11.0608 3.38123 9.50691 4.3611C7.95302 5.34098 6.67268 6.69852 5.78535 8.30706C4.89803 9.91559 4.43264 11.7227 4.43262 13.5597V24.4347M23.1618 21.4139L17.8705 16.1226M22.5576 6.30973L17.8693 10.9969" stroke="white" stroke-width="1.5" stroke-linecap="round" stroke-linejoin="round"/>
<path d="M22.5576 22.0181H6.84928C5.70983 22.0181 5.1407 22.0181 4.78666 22.3721C4.43262 22.7261 4.43262 23.2953 4.43262 24.4347C4.43262 25.5742 4.43262 26.1433 4.78666 26.4974C5.1407 26.8514 5.70983 26.8514 6.84928 26.8514H24.9743C25.2948 26.8514 25.6021 26.7241 25.8287 26.4975C26.0553 26.2709 26.1826 25.9635 26.1826 25.6431C26.1826 24.6817 25.8007 23.7596 25.1209 23.0798C24.4411 22.4 23.519 22.0181 22.5576 22.0181Z" stroke="white" stroke-width="1.5" stroke-linecap="round" stroke-linejoin="round"/>
</svg>
