<svg width="341" height="72" viewBox="0 0 341 72" fill="none" xmlns="http://www.w3.org/2000/svg">
<path d="M-20.6424 7.10987C-2.78673 35.0594 15.3161 62.8764 33.6959 90.4965C38.9332 98.3471 44.1704 106.198 49.4388 114.048C52.8122 119.092 59.2158 114.531 62.1524 111.441C64.3544 109.1 66.2696 106.445 67.9021 103.699C69.9879 100.179 72.1654 94.9319 72.3648 90.6811C72.7372 82.4355 71.8649 74.3734 69.6842 66.4322C67.5383 58.6819 64.7105 51.1682 61.6967 43.722C55.8991 29.4318 50.0403 15.2066 44.1498 0.950116C40.8124 -7.09664 37.4756 -15.1115 34.1383 -23.1582C26.7756 -13.2778 19.4436 -3.42988 12.081 6.45056C27.8385 30.7681 43.6286 55.1488 62.1552 77.4015C67.8083 84.1585 73.7074 90.7192 79.8199 97.0204C81.4892 97.8186 83.1743 97.8183 84.8748 96.9873C86.5777 96.2841 88.0873 95.2653 89.373 93.9633C93.6394 90.2413 96.5754 85.491 98.8789 80.3058C105.251 65.9738 105.142 50.5208 105.533 35.122C105.887 21.0332 106.242 6.94438 106.627 -7.11313C98.9754 0.697277 91.3228 8.47576 83.702 16.2856C90.5266 30.4284 97.7531 44.3718 105.412 58.0835C112.845 71.3844 120.404 84.7787 128.946 97.3558C133.313 103.786 138.617 110.231 145.582 113.769C149.584 115.8 154.036 112.011 156.67 109.374C161.171 104.881 164.456 98.8144 166.148 92.651C172.94 67.6458 175.849 41.9485 175.32 16.0298C167.691 24.9894 160.061 33.9489 152.431 42.9084C158.912 53.8007 165.425 64.7244 173.047 74.8604C177.209 80.3687 181.71 85.615 186.516 90.5043C190.654 94.7358 195.165 98.8643 200.55 101.411C207.068 104.48 214.037 104.953 220.791 102.428C227.887 99.7697 234.149 94.3489 239.126 88.6335C249.995 76.0993 258.048 61.5116 264.714 46.2161C267.523 39.7439 270.049 33.1494 272.576 26.5868C273.794 23.3702 275.012 20.1856 276.262 17.0004C276.917 15.3273 277.602 13.6218 278.287 11.9482C278.407 11.6904 278.496 11.4333 278.616 11.1755C279.691 8.6642 276.992 14.3679 277.113 14.174C277.264 13.9157 277.476 13.5923 277.595 13.3026C276.869 14.4661 276.11 15.5983 275.384 16.7617C272.816 19.589 272.114 20.4008 273.34 19.2278C272.327 20.1093 271.283 20.9915 270.27 21.8731C270.485 21.6774 270.731 21.4811 271.009 21.348C270.021 21.9098 269.033 22.4716 268.045 23.0334C268.478 22.8016 268.85 22.6667 269.315 22.5301C268.414 22.7389 267.513 22.9478 266.581 23.1573C267.328 23.0471 267.953 23.099 268.674 23.2449C267.89 23.0364 267.137 22.8592 266.353 22.6507C269.18 23.6183 271.443 26.0976 273.666 28.0667C276.078 30.1918 278.522 32.3164 280.934 34.4415C285.949 38.8477 290.996 43.2534 296.011 47.6597C306.072 56.4716 316.103 65.2842 326.164 74.0961C328.259 75.9399 332.612 73.4616 334.183 72.3777C337.693 69.9155 340.983 65.7332 343.002 61.9584C345.142 58.0217 347.24 53.511 347.464 48.9404C347.592 45.8405 347.415 43.1297 344.94 40.9738C326.374 24.789 307.963 8.56922 289.459 -7.58491C287.111 -9.61547 284.362 -11.3829 281.15 -11.2575C274.852 -10.977 269.497 -5.41399 265.937 -0.651725C261.13 5.763 258.343 13.4163 255.458 20.8479C251.594 30.8848 247.888 41.0464 243.363 50.8085C243.063 51.4529 242.763 52.0654 242.463 52.7098C241.023 55.7071 244.867 47.8739 243.363 50.8404C242.702 52.1623 242.01 53.5167 241.286 54.8079C239.931 57.3565 238.481 59.8431 236.935 62.2676C235.087 65.145 239.938 57.7077 238.057 60.5218C237.662 61.1041 237.268 61.6865 236.873 62.2369C236.022 63.4347 235.171 64.6325 234.256 65.7677C233.708 66.4807 231.755 68.7853 234.197 65.9285C236.578 63.1367 234.807 65.1823 234.226 65.8321C233.217 66.9052 232.176 67.9151 231.071 68.8942C232.084 68.0126 233.128 67.1305 234.141 66.2489C232.759 67.4249 231.344 68.4739 229.801 69.3975C230.789 68.8358 231.777 68.274 232.765 67.7122C230.912 68.7695 228.992 69.5408 226.942 70.0271C227.843 69.8183 228.744 69.6094 229.676 69.3999C226.972 69.9627 224.318 69.8859 221.622 69.267C222.406 69.4755 223.159 69.6526 223.943 69.8611C215.57 67.7545 208.956 61.3033 203.157 55.0919C203.699 55.6882 204.241 56.2845 204.813 56.8483C192.736 43.8281 183.548 28.4533 174.455 13.2045C173.004 10.7735 170.188 10.4124 167.775 11.4805C164.742 12.784 162.352 15.097 160.246 17.5961C157.622 20.68 155.226 24.3342 153.771 28.1621C153.269 29.6406 152.766 31.0871 152.295 32.565C151.593 35.0373 151.36 37.5324 151.596 40.0825C151.613 40.9762 151.631 41.87 151.648 42.7638C151.626 41.6147 151.634 40.433 151.612 39.2839C151.753 54.7682 150.426 70.1849 147.691 85.4051C147.946 84.0591 148.169 82.7136 148.425 81.3676C147.182 88.1929 145.627 94.9604 143.82 101.637C150.676 94.6082 157.531 87.5794 164.386 80.5187C161.014 78.7952 158.098 76.4243 155.486 73.6643C156.028 74.2606 156.57 74.8569 157.142 75.4207C153.222 71.1851 150.102 66.2954 147.043 61.3727C143.404 55.535 139.827 49.6323 136.312 43.6964C129.312 31.8242 122.62 19.7225 116.269 7.48656C112.673 0.562397 109.2 -6.39608 105.789 -13.4196C105.247 -14.0159 104.705 -14.6122 104.132 -15.176C102.902 -15.855 101.683 -15.9593 100.444 -15.4566C97.6167 -14.8276 95.0324 -12.8941 93.0445 -10.7804C90.8425 -8.43903 88.9273 -5.78388 87.2948 -3.03835C85.239 0.417793 82.9398 5.82646 82.8322 9.9797C82.5313 21.96 82.2305 33.9403 81.8991 45.9531C81.7627 51.8631 81.5952 57.7738 81.4589 63.6838C81.3121 69.0512 81.1024 74.3879 80.1739 79.6745C80.429 78.3285 80.6528 76.983 80.9079 75.637C80.6247 77.1432 80.2785 78.6187 79.8699 80.0954C78.9328 83.3066 81.5324 75.657 80.4907 78.2953C80.1935 79.0674 79.8956 79.8076 79.5665 80.5483C85.9193 74.9661 92.2727 69.4159 98.6255 63.8337C97.1611 62.329 95.6962 60.7924 94.2624 59.2552C94.8043 59.8516 95.3463 60.4479 95.9188 61.0117C77.4693 41.1524 61.7821 18.8772 46.8368 -3.76349C42.5936 -10.2282 38.3815 -16.6935 34.1688 -23.1908C29.8601 -29.8139 21.2301 -20.931 18.433 -17.0774C15.6071 -13.0956 13.0405 -8.60784 11.9469 -3.79707C11.1707 -0.333521 10.6747 3.09272 12.081 6.45056C21.2086 28.4045 30.3362 50.3584 39.2779 72.3798C41.7344 78.4317 44.1598 84.4842 46.0585 90.7384C45.7912 89.8175 45.4933 88.9291 45.226 88.0082C47.1919 94.5166 48.5365 101.165 48.6674 107.996C48.6454 106.846 48.654 105.665 48.6319 104.516C48.6527 105.601 48.6118 106.719 48.5702 107.806C56.2221 99.9955 63.8747 92.217 71.4955 84.4072C52.9933 56.9171 34.7364 29.1989 16.7266 1.34816C11.6123 -6.60067 6.498 -14.5495 1.41491 -22.4989C-0.193207 -24.9907 -2.69374 -25.1982 -5.26521 -24.2229C-8.73583 -22.943 -12.223 -19.2678 -14.2892 -16.3543C-17.1163 -12.4363 -19.6828 -7.94853 -20.7771 -3.16967C-21.4976 -0.0584447 -22.4762 4.23921 -20.6424 7.10987Z" fill="#76CBC2" fill-opacity="0.8"/>
</svg>
