<svg width="1200" height="149" viewBox="0 0 1200 149" fill="none" xmlns="http://www.w3.org/2000/svg">
<path d="M-90.3259 -59.4084C-19.9619 21.6415 51.4165 102.326 123.936 182.461C144.601 205.239 165.267 228.017 186.059 250.795C199.371 265.432 225.742 252.716 237.913 244.026C247.041 237.439 255.029 229.938 261.875 222.162C270.623 212.191 279.878 197.28 281.019 185.114C283.174 161.512 280.258 138.368 272.017 115.498C263.903 93.1777 253 71.4973 241.336 49.9999C218.896 8.74308 196.202 -32.3308 173.381 -73.4961C160.449 -96.7316 147.517 -119.876 134.586 -143.111C103.904 -115.21 73.3498 -87.4008 42.6685 -59.4999C104.792 11.03 167.042 81.7429 240.575 146.51C263.016 166.178 286.471 185.297 310.813 203.684C317.532 206.062 324.378 206.154 331.351 203.867C338.324 201.946 344.537 199.11 349.862 195.451C367.484 185.022 379.782 171.575 389.544 156.847C416.549 116.139 417.31 71.8632 420.099 27.7706C422.635 -12.5714 425.17 -52.9135 427.833 -93.164C396.137 -71.2091 364.442 -49.3458 332.873 -27.3909C359.497 13.4999 387.769 53.842 417.817 93.5436C446.977 132.056 476.644 170.843 510.368 207.343C527.61 226.004 548.656 244.758 576.675 255.278C592.776 261.315 611.16 250.704 622.063 243.294C640.7 230.67 654.519 213.472 661.873 195.908C691.413 124.646 705.232 51.1891 705.105 -23.0915C673.41 2.15661 641.714 27.4047 610.019 52.6528C635.502 84.2128 661.112 115.864 691.286 145.32C707.768 161.329 725.644 176.606 744.788 190.877C761.27 203.226 779.273 215.302 800.952 222.894C827.196 232.042 855.469 233.78 883.107 226.919C912.14 219.693 938.004 204.507 958.669 188.407C1003.8 153.096 1037.65 111.748 1065.93 68.2956C1077.84 49.9084 1088.62 31.1553 1099.4 12.4937C1104.6 3.34585 1109.79 -5.71053 1115.12 -14.7669C1117.91 -19.5238 1120.82 -24.3721 1123.74 -29.129C1124.25 -29.8609 1124.63 -30.5927 1125.13 -31.3245C1129.7 -38.4598 1118.29 -22.2681 1118.8 -22.817C1119.43 -23.5488 1120.32 -24.4636 1120.82 -25.2869C1117.78 -21.9937 1114.61 -18.792 1111.57 -15.4987C1100.92 -7.54011 1098 -5.25314 1103.07 -8.54636C1098.89 -6.07644 1094.58 -3.60653 1090.4 -1.13661C1091.28 -1.68548 1092.3 -2.23435 1093.44 -2.60026C1089.38 -1.04513 1085.32 0.510001 1081.27 2.06513C1083.04 1.42478 1084.56 1.05887 1086.47 0.692954C1082.79 1.24183 1079.11 1.7907 1075.31 2.33958C1078.35 2.06513 1080.89 2.2481 1083.8 2.7055C1080.63 2.06515 1077.59 1.51627 1074.42 0.875922C1085.83 3.80324 1094.83 11.03 1103.71 16.7932C1113.34 23.0137 1123.11 29.2343 1132.74 35.4548C1152.77 48.3533 1172.93 61.2517 1192.96 74.1502C1233.15 99.9471 1273.22 125.744 1313.41 151.541C1321.77 156.938 1339.65 150.077 1346.12 147.059C1360.57 140.198 1374.26 128.397 1382.76 117.694C1391.76 106.534 1400.63 93.7266 1401.9 80.6452C1402.66 71.7718 1402.15 63.9961 1392.26 57.6841C1318.1 10.2982 1244.56 -37.1791 1170.65 -84.4735C1161.27 -90.4196 1150.24 -95.6339 1137.18 -95.451C1111.57 -94.9936 1089.38 -79.3507 1074.55 -65.9034C1054.52 -47.7906 1042.6 -26.0188 1030.3 -4.88723C1013.82 23.6541 997.972 52.5613 978.828 80.2793C977.56 82.1088 976.292 83.8469 975.024 85.6765C968.939 94.184 985.167 71.9547 978.828 80.3707C976.039 84.1214 973.123 87.9634 970.08 91.6226C964.375 98.8494 958.289 105.893 951.823 112.754C944.09 120.896 964.375 99.8557 956.514 107.814C954.866 109.461 953.218 111.107 951.57 112.663C948.02 116.047 944.47 119.432 940.666 122.634C938.384 124.646 930.27 131.141 940.413 123.091C950.302 115.224 942.949 120.987 940.54 122.817C936.356 125.836 932.045 128.671 927.481 131.416C931.665 128.946 935.976 126.476 940.159 124.006C934.454 127.299 928.622 130.227 922.283 132.788C926.34 131.233 930.397 129.678 934.454 128.123C926.847 131.05 918.987 133.154 910.619 134.435C914.296 133.886 917.972 133.337 921.776 132.788C910.746 134.252 899.969 133.886 889.066 131.965C892.236 132.605 895.278 133.154 898.448 133.794C864.597 127.299 838.226 108.455 815.152 90.3419C817.307 92.08 819.463 93.8181 821.745 95.4647C773.694 57.5011 737.561 12.9511 701.809 -31.233C696.104 -38.2769 684.693 -39.4661 674.804 -36.5388C662.38 -32.9711 652.491 -26.4762 643.743 -19.4323C632.839 -10.7419 622.824 -0.404779 616.611 10.4812C614.456 14.6892 612.301 18.8057 610.272 23.0137C607.229 30.0576 606.088 37.1929 606.849 44.5112C606.849 47.0726 606.849 49.634 606.849 52.1954C606.849 48.9021 606.976 45.5174 606.976 42.2242C606.342 86.5913 599.749 130.684 587.451 174.136C588.592 170.294 589.607 166.452 590.748 162.61C585.169 182.095 578.323 201.397 570.463 220.424C598.862 200.665 627.261 180.906 655.66 161.055C642.094 155.932 630.431 148.98 620.034 140.93C622.19 142.668 624.345 144.406 626.627 146.052C611.033 133.703 598.735 119.524 586.691 105.253C572.364 88.3294 558.291 71.2229 544.472 54.0249C516.96 19.629 490.717 -15.4072 465.867 -50.8094C451.794 -70.8432 438.229 -90.9685 424.917 -111.277C422.761 -113.015 420.606 -114.753 418.324 -116.4C413.379 -118.412 408.435 -118.778 403.364 -117.406C391.827 -115.759 381.177 -110.362 372.936 -104.416C363.808 -97.8294 355.82 -90.3282 348.974 -82.5525C340.353 -72.7643 330.591 -57.3959 329.83 -45.5037C327.675 -11.1992 325.519 23.1052 323.237 57.5011C322.223 74.4246 321.082 91.3481 320.068 108.272C319.054 123.64 317.786 138.917 313.602 154.011C314.743 150.169 315.757 146.327 316.898 142.485C315.63 146.784 314.109 150.992 312.334 155.2C308.277 164.348 319.434 142.576 314.997 150.077C313.729 152.273 312.461 154.377 311.066 156.481C337.31 140.838 363.554 125.287 389.798 109.644C383.966 105.253 378.134 100.77 372.429 96.288C374.584 98.0261 376.739 99.7642 379.021 101.411C305.615 43.5049 243.618 -21.1704 184.665 -86.852C167.929 -105.605 151.321 -124.358 134.712 -143.203C117.724 -162.413 81.971 -137.44 70.307 -126.554C58.5163 -115.302 47.7398 -102.586 42.9221 -88.8645C39.499 -78.9848 37.2169 -69.1966 42.6685 -59.4999C78.0407 3.89471 113.413 67.2893 148.024 130.867C157.533 148.339 166.915 165.812 174.142 183.833C173.127 181.18 171.986 178.619 170.972 175.966C178.452 194.719 183.397 213.838 183.397 233.414C183.397 230.121 183.523 226.736 183.523 223.443C183.523 226.553 183.27 229.755 183.016 232.865C214.712 210.911 246.407 189.047 277.976 167.092C204.95 87.3231 132.937 6.9135 61.9394 -73.862C41.781 -96.9146 21.6227 -119.967 1.5911 -143.02C-4.74801 -150.247 -14.8906 -150.978 -25.4135 -148.326C-39.6131 -144.849 -54.0663 -134.512 -62.6874 -126.279C-74.4782 -115.21 -85.2547 -102.495 -90.0724 -88.8645C-93.2419 -79.9911 -97.5525 -67.733 -90.3259 -59.4084Z" fill="#776EDB"/>
</svg>
