<svg width="40" height="46" viewBox="0 0 40 46" fill="none" xmlns="http://www.w3.org/2000/svg">
<path d="M35.6355 1.74707H35.5148L35.3976 1.77579L13.3522 7.17651L13.3487 7.17738C12.3567 7.42419 11.4031 8.24025 11.4031 9.49798V16.4177V31.2824C11.3972 31.2823 11.3914 31.2823 11.3856 31.2823C10.0233 31.2823 8.52235 31.6652 7.05995 32.3896C5.40802 33.1242 3.80051 34.3108 2.65835 35.7259C1.52075 37.1353 0.749978 38.8992 1.07403 40.7267L1.07602 40.738L1.07827 40.7492C1.53897 43.0417 3.60387 44.2525 5.95901 44.2525C7.32429 44.2525 8.82887 43.8679 10.2943 43.1404C11.8487 42.4105 13.4052 41.2742 14.5433 39.9335C15.655 38.6238 16.4764 36.9832 16.2859 35.2616V18.3875L33.2789 14.3105V26.0504C33.2731 26.0504 33.2673 26.0503 33.2614 26.0503C31.8991 26.0503 30.3982 26.4333 28.9358 27.1576C27.2839 27.8923 25.6764 29.0788 24.5342 30.4939C23.3966 31.9034 22.6258 33.6672 22.9499 35.4948L22.9519 35.506L22.9541 35.5172C23.4148 37.8097 25.4797 39.0205 27.8349 39.0205C29.1944 39.0205 30.692 38.6392 32.1516 37.9176C33.8807 37.1877 35.4866 36.0497 36.6311 34.7015C37.7579 33.3742 38.5212 31.7355 38.3313 30.0295V11.1857V4.26602C38.3313 3.89557 38.2681 3.54207 38.1172 3.20427C37.9684 2.87096 37.7567 2.60343 37.528 2.37583C36.8861 1.73693 35.9936 1.74425 35.6821 1.7468C35.6647 1.74694 35.6492 1.74707 35.6355 1.74707Z" stroke="#675DD2" stroke-width="2"/>
</svg>
