<svg width="391" height="165" viewBox="0 0 391 165" fill="none" xmlns="http://www.w3.org/2000/svg">
<mask id="mask0_232_15" style="mask-type:alpha" maskUnits="userSpaceOnUse" x="66" y="0" width="258" height="165">
<rect x="66.9415" width="256.375" height="164.614" rx="23" fill="#8D86D5"/>
</mask>
<g mask="url(#mask0_232_15)">
</g>
<g clip-path="url(#clip0_232_15)">
<path d="M65.7592 47.0039C42.5736 83.1404 19.388 119.354 4.52431e-05 156.887C-0.499645 157.817 18.4886 158.67 19.9876 158.67C24.6847 158.748 29.4817 158.748 34.0789 158.36C35.6779 158.282 38.8759 158.36 39.9752 157.352C87.8455 110.359 135.616 63.3661 183.486 16.2957C170.194 16.1406 156.803 15.9855 143.511 15.8304C145.81 22.3443 144.211 28.703 141.912 35.0618C139.713 41.0329 137.215 46.9264 134.616 52.8199C129.22 65.0721 123.024 77.0918 116.728 89.0338C104.135 112.996 90.9436 136.802 81.3496 161.617C80.9498 162.78 99.8381 163.401 101.337 163.401C106.034 163.478 110.831 163.478 115.428 163.09C117.027 163.013 120.225 163.09 121.325 162.082C137.914 145.953 154.504 129.823 170.994 113.693C179.089 105.861 187.184 97.9516 195.179 90.1195C199.276 86.0871 203.474 82.0547 207.571 78.0223C209.67 76.0061 211.669 73.9899 213.767 71.9737C214.967 70.733 217.465 67.8638 219.664 67.4761C212.168 67.6311 204.573 67.7862 197.078 67.9413C197.477 67.9413 197.877 67.9413 198.177 67.9413C193.58 67.5536 188.883 67.0883 184.286 66.7006C188.283 67.9413 185.385 73.6797 184.885 75.9286C183.886 79.961 182.887 83.9934 181.887 88.1033C179.888 96.1681 177.89 104.31 175.891 112.375C175.591 113.771 194.279 114.159 195.878 114.159C200.576 114.236 205.373 114.236 209.97 113.849C211.469 113.771 214.867 113.849 215.866 112.84C224.96 103.147 234.554 93.7642 244.748 84.6913C249.645 80.3487 254.542 76.0837 259.639 71.8962C262.137 69.8024 264.736 67.7087 267.334 65.6925C268.833 64.5293 270.332 63.2886 271.931 62.1254C273.63 60.8071 277.728 59.8765 272.731 60.1867C261.638 59.799 250.445 59.4888 239.351 59.1011C241.95 59.6439 241.15 67.1659 240.951 68.7168C240.651 72.2839 239.651 75.7735 238.652 79.263C236.753 86.0871 234.754 92.8336 235.954 99.8127C236.353 101.906 253.743 101.596 255.941 101.596C260.638 101.674 265.435 101.674 270.032 101.286C271.631 101.209 274.829 101.286 275.929 100.278C291.919 84.4586 309.408 69.5698 328.296 55.8441C315.204 55.8441 302.113 55.8441 289.021 55.7666C292.119 56.6972 292.319 59.7214 292.519 62.0478C292.818 65.5374 292.818 69.027 292.918 72.439C293.218 79.8834 293.518 87.3278 293.818 94.7723C293.918 97.3313 329.595 97.1762 333.093 95.6253C341.988 91.6704 350.882 87.7156 359.777 83.7607C364.074 81.8221 368.371 79.961 372.669 78.0223C375.767 76.6265 379.465 74.2226 383.162 73.9124C377.366 74.0675 371.669 74.3001 365.873 74.4552C366.273 74.4552 366.573 74.4552 366.972 74.4552C361.176 74.145 355.479 73.8348 349.683 73.4471C349.483 73.7573 349.583 73.9899 350.183 74.3001C350.882 75.2307 355.28 75.3857 355.979 75.4633C360.676 75.9286 365.473 76.0837 370.07 76.0837C374.767 76.1612 379.564 76.1612 384.162 75.7735C384.761 75.7735 390.358 75.1531 390.058 74.7654C388.659 73.0594 386.66 72.6716 384.162 72.2839C376.466 71.1207 368.371 71.1983 360.476 71.2758C355.18 71.3534 349.383 71.2758 344.186 72.5165C341.188 73.2145 338.49 74.6878 335.692 75.9286C321.9 82.0547 308.109 88.1808 294.317 94.307C307.409 94.6172 320.501 94.9273 333.593 95.16C333.293 87.2503 332.993 79.2631 332.694 71.3534C332.494 66.7006 334.592 57.5502 327.397 55.3013C321.101 53.3627 312.106 53.9055 305.51 53.9055C301.713 53.9055 297.815 53.9055 294.018 54.2157C292.219 54.3708 289.52 54.2932 288.121 55.2238C269.233 68.9494 251.744 83.8383 235.754 99.6577C249.045 99.8128 262.437 99.9678 275.729 100.123C273.93 89.6542 279.427 79.8834 280.626 69.6473C280.926 67.0108 280.926 64.2967 280.326 61.6601C279.527 58.1705 277.028 58.1705 272.531 57.7828C263.237 56.9298 253.643 56.8522 244.248 57.4726C240.751 57.7053 237.453 57.8603 234.554 59.4888C228.958 62.6682 224.161 67.321 219.364 71.2758C214.267 75.4633 209.27 79.7283 204.473 84.0709C194.379 93.1438 184.785 102.527 175.591 112.22C188.883 112.375 202.274 112.53 215.566 112.685C217.565 104.621 219.564 96.4783 221.563 88.4135C222.562 84.3811 223.561 80.3487 224.561 76.2388C225.26 73.5246 227.659 69.027 224.361 66.9332C222.562 65.77 219.764 65.6925 217.465 65.4599C212.468 64.9946 207.271 64.8395 202.175 64.8395C195.279 64.7619 185.485 63.8314 179.289 66.9332C175.591 68.7168 173.193 71.8186 170.494 74.4552C167.196 77.7121 163.898 80.8915 160.6 84.1485C134.117 109.971 107.633 135.794 81.0497 161.617C94.3415 161.772 107.733 161.927 121.025 162.082C130.619 137.267 143.811 113.461 156.403 89.4991C162.699 77.557 168.895 65.5374 174.292 53.2851C176.89 47.3916 179.389 41.4981 181.587 35.5271C183.886 29.1683 185.485 22.8095 183.186 16.2957C182.887 15.4427 177.49 15.1325 177.39 15.1325C172.693 14.6672 167.896 14.5121 163.299 14.5121C158.602 14.4346 153.805 14.4346 149.207 14.8223C147.608 14.8998 144.41 14.8223 143.311 15.8304C95.7406 62.9008 47.8703 109.894 4.52431e-05 156.887C13.2918 157.042 26.6835 157.197 39.9752 157.352C59.3632 119.82 82.5488 83.6056 105.734 47.3916C106.234 46.6937 87.2459 45.6081 85.7468 45.6081C81.0497 45.5305 76.2527 45.5305 71.6556 45.9183C70.3564 46.0733 66.4588 45.9183 65.7592 47.0039Z" fill="#837BD4" fill-opacity="0.63"/>
</g>
<defs>
<clipPath id="clip0_232_15">
<rect width="390.258" height="149.121" fill="white" transform="translate(0 14.5121)"/>
</clipPath>
</defs>
</svg>
