<svg width="91" height="85" viewBox="0 0 91 85" fill="none" xmlns="http://www.w3.org/2000/svg">
<g clip-path="url(#clip0_148_230)">
<path d="M34.7124 85H30.9366C30.5241 85 30.175 84.6774 30.1433 84.2581C29.5722 77.6452 32.4913 68.3226 32.6182 67.9355C32.7451 67.5161 33.1893 67.2903 33.6018 67.4193C34.0143 67.5484 34.2364 68 34.1095 68.4193C34.0778 68.5161 31.3808 77.129 31.6346 83.3548H34.1412C35.2835 80.7097 40.7727 68.4839 49.4983 60.4516C49.7204 60.2258 50.0694 60.1935 50.355 60.3226C50.8944 60.5484 63.6496 65.9677 70.6301 50C70.8204 49.5806 71.2647 49.4193 71.6771 49.5806C72.0896 49.7742 72.2483 50.2258 72.0896 50.6452C68.1234 59.7097 62.2535 62.2903 58.0335 62.8387C54.3846 63.3226 51.3703 62.4193 50.228 62C41.09 70.6129 35.4739 84.3226 35.4104 84.4839C35.3152 84.8064 35.0296 85 34.7124 85Z" fill="#D165BC"/>
<path d="M74.9131 51.6774C70.0585 51.6774 67.1711 48.3226 66.7586 47.8064C64.8549 45.9677 64.1251 43.4516 64.7914 41.0645C65.2674 39.3226 66.5048 38 67.8692 37.6774C68.5672 37.5161 69.9316 37.5161 71.2008 39.0968C71.4863 39.4516 71.4229 39.9355 71.0739 40.2258C70.7248 40.5161 70.2489 40.4516 69.9633 40.0968C69.5826 39.6129 68.948 39.0645 68.1865 39.2258C67.3932 39.3871 66.6317 40.2903 66.3144 41.4516C65.8068 43.258 66.4096 45.1935 67.8692 46.6129C67.9009 46.6451 67.9326 46.6774 67.9644 46.7097C68.1547 46.9677 72.8507 53 81.0369 48.0645C84.4319 46.0322 86.3992 43.3548 86.8751 40.1935C87.4145 36.6129 85.9232 32.9677 84.1781 31C82.6234 29.2258 80.4658 28.9355 79.0062 29.4193C78.2764 29.6451 77.0707 30.2903 76.8803 31.9677C76.7851 32.9032 76.9438 33.6451 77.388 34.0968C78.0543 34.8387 79.1966 34.8064 79.2283 34.8064C79.6725 34.7742 80.0216 35.129 80.0533 35.5806C80.0533 36.0322 79.736 36.3871 79.2918 36.4193C79.2283 36.4193 77.4197 36.4839 76.2457 35.2258C75.4842 34.3871 75.1669 33.258 75.3256 31.8064C75.516 29.9355 76.7217 28.4839 78.5303 27.9032C80.8782 27.129 83.6387 27.9677 85.3838 29.9677C87.3828 32.2258 89.0962 36.3871 88.4616 40.4839C87.9222 44.0968 85.6377 47.2258 81.8619 49.5161C79.2283 51.129 76.9121 51.6774 74.9131 51.6774Z" fill="#D165BC"/>
<path d="M87.732 38.0645C87.605 38.0645 87.4464 38.0322 87.3195 37.9355C86.9387 37.7097 86.8118 37.2258 87.0339 36.8387C87.2877 36.3871 93.3481 25.8064 85.2571 14.7419C75.4844 1.38708 63.7762 5.35482 63.681 5.38708C63.2686 5.54837 62.8244 5.32256 62.6657 4.9032C62.5071 4.48385 62.7292 4.03224 63.1416 3.87095C63.2686 3.83869 66.4415 2.74191 70.9154 3.41933C75.0402 4.03224 81.0688 6.35482 86.4945 13.8064C95.2518 25.7742 88.43 37.5806 88.3665 37.7097C88.2714 37.9032 87.9858 38.0645 87.732 38.0645Z" fill="#D165BC"/>
<path d="M59.9055 21.9677C57.8431 21.9677 56.2883 21.2903 55.3047 19.9677C53.2423 17.1613 54.5749 12.5161 54.6384 12.3226C54.7653 11.9032 55.2095 11.6452 55.622 11.7742C56.0345 11.9032 56.2883 12.3548 56.1614 12.7742C56.1614 12.8064 54.9874 16.8387 56.5739 19C57.2402 19.9032 58.3507 20.3548 59.9055 20.3548C59.9055 20.3548 59.9055 20.3548 59.9372 20.3548C62.5707 20.3548 64.6332 18.9677 65.585 16.5806C66.759 13.7097 65.9341 10.1613 63.5544 7.77418C63.5226 7.74193 63.5226 7.74193 63.4909 7.70967C63.4592 7.67741 60.7304 4.4516 55.7806 2.70967C49.1809 0.387087 41.9149 1.67741 34.2681 6.58064C33.8873 6.80644 33.4114 6.70967 33.1893 6.32257C32.9672 5.93547 33.0624 5.4516 33.4431 5.2258C43.5648 -1.25807 51.5289 -0.548397 56.4152 1.2258C61.5554 3.03225 64.4111 6.29031 64.6966 6.64515C67.5523 9.54838 68.4724 13.6774 67.0446 17.1935C65.8389 20.1613 63.2053 21.9677 59.9055 21.9677C59.9372 21.9677 59.9372 21.9677 59.9055 21.9677Z" fill="#D165BC"/>
<path d="M19.0693 32.258C16.5944 32.258 14.6272 30.6774 13.7705 29.5484C13.485 29.2258 11.0101 26.2258 11.3273 21.6774C11.5812 17.7419 13.8657 13.9355 18.0857 10.3225C24.1778 5.129 30.0477 4.58061 33.9187 5.03223C37.9166 5.48384 40.5502 7.06448 40.8992 7.29029C47.1816 10.4838 48.8315 16.3871 47.2133 20.5484C45.8807 24 42.6443 25.6129 39.2175 24.5806C37.8214 24.1613 36.8061 23.3548 36.235 22.1613C35.0927 19.7419 36.235 16.6774 36.2984 16.5484C36.4571 16.129 36.933 15.9355 37.3138 16.0967C37.7262 16.258 37.9166 16.7419 37.758 17.129C37.758 17.1613 36.8061 19.6774 37.6628 21.4516C38.0435 22.2258 38.6781 22.7419 39.6617 23.0322C42.8981 24 44.9605 22 45.7221 19.9677C47.023 16.5806 45.849 11.6129 40.1377 8.70965C40.1059 8.70965 40.1059 8.67739 40.0742 8.67739C39.6617 8.41932 29.8573 2.38706 19.1011 11.5484C15.2301 14.8709 13.1359 18.2903 12.8821 21.7742C12.5965 25.7742 14.9128 28.4838 14.9445 28.4838L14.9762 28.5161C15.0714 28.6451 17.6098 31.8387 21.1317 30.0967C22.7817 29.258 23.1942 28.0645 23.2576 27.1935C23.3211 26 22.7499 24.9677 22.1154 24.5806C21.7663 24.3548 21.4173 24.3225 21.1 24.5161C20.7193 24.7419 20.2433 24.5806 20.0212 24.1935C19.7991 23.8064 19.9578 23.3225 20.3385 23.0967C21.1635 22.6451 22.1471 22.6774 22.9721 23.2258C24.1778 24 24.9393 25.6451 24.8441 27.2903C24.7806 28.3548 24.3047 30.3225 21.8615 31.5484C20.8779 32.0645 19.926 32.258 19.0693 32.258Z" fill="#D165BC"/>
<path d="M2.47502 43.0968C2.09427 43.0968 1.74524 42.8064 1.68179 42.4193C0.412609 33.7419 3.26826 28 5.87007 24.7097C8.72572 21.129 11.8669 19.6451 11.9938 19.5806C12.4063 19.3871 12.8505 19.5806 13.0409 19.9677C13.2313 20.3871 13.0409 20.8387 12.6602 21.0322C12.6284 21.0322 9.6776 22.4516 7.07579 25.7742C3.58555 30.1935 2.31637 35.7097 3.26826 42.1613C3.33172 42.6129 3.04615 43 2.60194 43.0645C2.57021 43.0645 2.50675 43.0968 2.47502 43.0968Z" fill="#D165BC"/>
<path d="M16.7216 68.0968C15.3889 68.0968 5.5528 67.7097 1.4597 57.129C-3.71219 43.8065 6.75852 36.7742 6.85371 36.7097C6.88544 36.7097 6.88543 36.6774 6.91716 36.6774C8.85266 35.6129 11.042 35.3871 12.9458 36.0645C14.6909 36.6774 16.087 38 16.8485 39.8064C17.7369 41.871 17.1975 44.5161 15.4841 46.5161C14.088 48.129 12.3429 48.8387 10.7882 48.3871C10.3757 48.2581 10.1218 47.8064 10.2488 47.3871C10.3757 46.9677 10.8199 46.7097 11.2324 46.8387C12.1842 47.0968 13.3582 46.5806 14.3101 45.4839C15.3889 44.2258 16.1504 42.1935 15.4207 40.4839C14.8178 39.0968 13.8025 38.0968 12.4698 37.6129C11.0103 37.0968 9.29687 37.2903 7.74213 38.0968C7.10754 38.5161 -1.61805 44.6774 2.98271 56.5484C6.94889 66.7742 16.4677 66.5161 16.8802 66.4839C17.3244 66.4516 17.6734 66.8064 17.7052 67.2581C17.7369 67.7097 17.3879 68.0645 16.9437 68.0968C16.8485 68.0968 16.785 68.0968 16.7216 68.0968Z" fill="#D165BC"/>
<path d="M31.6979 75.9032C31.6662 75.9032 31.6345 75.9032 31.6028 75.9032C24.3684 75 19.4187 72.5484 16.9755 68.6452C14.2468 64.3226 15.6111 59.9032 15.6746 59.7097C16.4361 57.2581 18.6889 55.6129 21.2907 55.6129C23.5752 55.6129 26.3991 57 27.5731 60.8387C28.0808 62.5161 26.7482 64.5807 25.1934 65.4194C23.7339 66.2258 22.2426 65.9355 21.1955 64.6774C20.9099 64.3226 20.9734 63.8387 21.2907 63.5484C21.6397 63.2581 22.1157 63.3226 22.4012 63.6452C22.9406 64.3226 23.6387 64.4194 24.4319 64C25.479 63.4194 26.2722 62.0645 26.0501 61.3226C25.2886 58.7742 23.5118 57.2581 21.2907 57.2581C19.3869 57.2581 17.737 58.4516 17.1976 60.2258C17.1976 60.2581 16.0236 64.1613 18.3399 67.8387C20.5292 71.3226 25.0665 73.5161 31.8249 74.3549C32.2691 74.4194 32.5546 74.8065 32.5229 75.2581C32.4277 75.6129 32.0787 75.9032 31.6979 75.9032Z" fill="#D165BC"/>
<path d="M24.6855 57.2258C22.9087 57.2258 21.7029 57.0323 21.6395 57.0323C21.1953 56.9677 20.9097 56.5484 20.9732 56.0968C21.0366 55.6452 21.4491 55.3548 21.8933 55.4194C21.925 55.4194 25.9229 56.0323 30.1112 54.9355C35.6004 53.5161 38.8368 50 39.7887 44.4839C40.2964 41.4194 39.4714 38.871 37.5359 37.4516C35.7908 36.1935 33.4428 36.0645 31.6025 37.129C30.3651 37.8387 28.3344 39.7097 28.6199 44.1613C28.6517 44.6129 28.3344 45 27.8902 45.0323C27.446 45.0645 27.0652 44.7419 27.0335 44.2903C26.7479 40.3871 28.144 37.2581 30.8093 35.7419C33.189 34.3871 36.1716 34.5484 38.4243 36.1613C40.8992 37.9355 41.978 41.0645 41.3435 44.7742C40.2964 50.9032 36.5523 54.9677 30.4603 56.5161C28.3344 57.0968 26.272 57.2258 24.6855 57.2258Z" fill="#D165BC"/>
<path d="M58.795 50.7419C57.5575 50.7419 56.2883 50.0322 55.5268 48.8387C54.5432 47.3226 54.3211 44.7419 56.8912 42.5806C60.5401 39.4839 64.6014 42.2258 66.2514 44.129C66.5369 44.4516 66.5052 44.9677 66.1879 45.2581C65.8706 45.5484 65.363 45.5161 65.0774 45.1935C64.9187 45.0323 61.3016 40.9677 57.9383 43.8387C55.7172 45.7097 56.5739 47.4839 56.8912 48C57.4306 48.871 58.5411 49.5161 59.5565 49.0322C59.9372 48.8387 60.4132 49 60.6035 49.4193C60.7939 49.8064 60.6353 50.2903 60.2228 50.4839C59.7468 50.6452 59.2709 50.7419 58.795 50.7419Z" fill="#D165BC"/>
</g>
<defs>
<clipPath id="clip0_148_230">
<rect width="91" height="85" fill="white"/>
</clipPath>
</defs>
</svg>
