<svg width="57" height="52" viewBox="0 0 57 52" fill="none" xmlns="http://www.w3.org/2000/svg">
<path d="M13.5458 2.51033L11.7254 1.83252L0.627441 34.7371L20.5334 42.1314C20.5334 42.1314 20.4747 44.5345 22.3537 45.2123" stroke="url(#paint0_linear_148_122)" stroke-miterlimit="10" stroke-linecap="round" stroke-linejoin="round"/>
<path d="M22.2949 45.1508C24.1739 45.8286 25.5245 43.9184 25.5245 43.9184L44.9607 51.1278L56 18.2232L54.1797 17.5454" stroke="url(#paint1_linear_148_122)" stroke-miterlimit="10" stroke-linecap="round" stroke-linejoin="round"/>
<path d="M23.4106 41.3919C23.4106 41.3919 16.5991 38.1877 3.38721 32.7652C6.9691 22.1668 11.0795 9.90457 13.8393 1.70923C14.6614 2.01732 15.0724 2.20218 15.8358 2.5719" stroke="url(#paint2_linear_148_122)" stroke-miterlimit="10" stroke-linecap="round" stroke-linejoin="round"/>
<path d="M23.3521 41.3304C23.3521 41.3304 30.9269 43.4255 43.9626 47.7388C47.5445 37.2019 51.6549 24.8781 54.4147 16.7444C53.5926 16.4363 52.8293 16.1898 52.0659 15.9434" stroke="url(#paint3_linear_148_122)" stroke-miterlimit="10" stroke-linecap="round" stroke-linejoin="round"/>
<path d="M23.6453 41.9468C23.6453 41.9468 19.4175 37.4486 6.20557 32.0261C9.78746 21.4893 13.8978 9.16546 16.6577 1.03174C30.0457 5.96126 33.4515 12.801 33.4515 12.801L23.6453 41.9468Z" stroke="url(#paint4_linear_148_122)" stroke-miterlimit="10" stroke-linecap="round" stroke-linejoin="round"/>
<path d="M23.6455 41.9468C23.6455 41.9468 29.1651 41.0225 42.2009 45.3359C45.7828 34.799 49.8932 22.4752 52.653 14.3415C40.2044 9.72006 33.4517 12.7394 33.4517 12.7394L23.6455 41.9468Z" stroke="url(#paint5_linear_148_122)" stroke-miterlimit="10" stroke-linecap="round" stroke-linejoin="round"/>
<defs>
<linearGradient id="paint0_linear_148_122" x1="1.69626" y1="6.47232" x2="19.1546" y2="7.36645" gradientUnits="userSpaceOnUse">
<stop stop-color="#CA4FB2"/>
<stop offset="0.628207" stop-color="#F278EA"/>
</linearGradient>
<linearGradient id="paint1_linear_148_122" x1="23.953" y1="21.1373" x2="50.8251" y2="23.8952" gradientUnits="userSpaceOnUse">
<stop stop-color="#CA4FB2"/>
<stop offset="0.628207" stop-color="#F278EA"/>
</linearGradient>
<linearGradient id="paint2_linear_148_122" x1="4.37225" y1="5.9536" x2="20.4616" y2="6.78377" gradientUnits="userSpaceOnUse">
<stop stop-color="#CA4FB2"/>
<stop offset="0.628207" stop-color="#F278EA"/>
</linearGradient>
<linearGradient id="paint3_linear_148_122" x1="24.8802" y1="19.3441" x2="49.6591" y2="21.8196" gradientUnits="userSpaceOnUse">
<stop stop-color="#CA4FB2"/>
<stop offset="0.628207" stop-color="#F278EA"/>
</linearGradient>
<linearGradient id="paint4_linear_148_122" x1="7.54592" y1="5.40792" x2="29.3957" y2="6.89578" gradientUnits="userSpaceOnUse">
<stop stop-color="#CA4FB2"/>
<stop offset="0.628207" stop-color="#F278EA"/>
</linearGradient>
<linearGradient id="paint5_linear_148_122" x1="25.0725" y1="15.3606" x2="48.2618" y2="17.4099" gradientUnits="userSpaceOnUse">
<stop stop-color="#CA4FB2"/>
<stop offset="0.628207" stop-color="#F278EA"/>
</linearGradient>
</defs>
</svg>
