<svg width="59" height="32" viewBox="0 0 59 32" fill="none" xmlns="http://www.w3.org/2000/svg">
<g clip-path="url(#clip0_148_129)">
<path d="M19.1218 12.8399C19.1218 15.4345 17.0596 17.5634 14.5463 17.5634C12.0329 17.5634 9.9707 15.4345 9.9707 12.8399C9.9707 10.2454 12.0329 8.11646 14.5463 8.11646C17.0596 8.11646 19.1218 10.2454 19.1218 12.8399Z" stroke="white" stroke-width="2.8368" stroke-miterlimit="10" stroke-linecap="round" stroke-linejoin="round"/>
<path d="M30.3996 26.3451C30.3996 28.9397 28.3374 31.0686 25.8241 31.0686C23.3108 31.0686 21.2485 28.9397 21.2485 26.3451C21.2485 23.7505 23.3108 21.6216 25.8241 21.6216C28.3374 21.5551 30.3996 23.684 30.3996 26.3451Z" stroke="white" stroke-width="2.8368" stroke-miterlimit="10" stroke-linecap="round" stroke-linejoin="round"/>
<path d="M49.5393 5.72147C49.5393 8.31607 47.4771 10.445 44.9637 10.445C42.4504 10.445 40.3882 8.31607 40.3882 5.72147C40.3882 3.12688 42.4504 0.997978 44.9637 0.997978C47.4771 0.93145 49.5393 3.06035 49.5393 5.72147Z" stroke="white" stroke-width="2.8368" stroke-miterlimit="10" stroke-linecap="round" stroke-linejoin="round"/>
<path d="M1.52832 18.2953L9.9061 14.9023" stroke="white" stroke-width="2.8368" stroke-miterlimit="10" stroke-linecap="round" stroke-linejoin="round"/>
<path d="M17.7686 16.2329L22.9886 22.5531" stroke="white" stroke-width="2.8368" stroke-miterlimit="10" stroke-linecap="round" stroke-linejoin="round"/>
<path d="M29.3037 22.0874L43.0948 10.0458" stroke="white" stroke-width="2.8368" stroke-miterlimit="10" stroke-linecap="round" stroke-linejoin="round"/>
<path d="M48.6372 8.51562L57.7239 15.3015" stroke="white" stroke-width="2.8368" stroke-miterlimit="10" stroke-linecap="round" stroke-linejoin="round"/>
<path d="M19.1218 12.8399C19.1218 15.4345 17.0596 17.5634 14.5463 17.5634C12.0329 17.5634 9.9707 15.4345 9.9707 12.8399C9.9707 10.2454 12.0329 8.11646 14.5463 8.11646C17.0596 8.11646 19.1218 10.2454 19.1218 12.8399Z" stroke="white" stroke-width="2.8368" stroke-miterlimit="10" stroke-linecap="round" stroke-linejoin="round"/>
<path d="M30.3996 26.3451C30.3996 28.9397 28.3374 31.0686 25.8241 31.0686C23.3108 31.0686 21.2485 28.9397 21.2485 26.3451C21.2485 23.7505 23.3108 21.6216 25.8241 21.6216C28.3374 21.5551 30.3996 23.684 30.3996 26.3451Z" stroke="white" stroke-width="2.8368" stroke-miterlimit="10" stroke-linecap="round" stroke-linejoin="round"/>
<path d="M49.5393 5.72147C49.5393 8.31607 47.4771 10.445 44.9637 10.445C42.4504 10.445 40.3882 8.31607 40.3882 5.72147C40.3882 3.12688 42.4504 0.997978 44.9637 0.997978C47.4771 0.93145 49.5393 3.06035 49.5393 5.72147Z" stroke="white" stroke-width="2.8368" stroke-miterlimit="10" stroke-linecap="round" stroke-linejoin="round"/>
<path d="M1.52832 18.2953L9.9061 14.9023" stroke="white" stroke-width="2.8368" stroke-miterlimit="10" stroke-linecap="round" stroke-linejoin="round"/>
<path d="M17.7686 16.2329L22.9886 22.5531" stroke="white" stroke-width="2.8368" stroke-miterlimit="10" stroke-linecap="round" stroke-linejoin="round"/>
<path d="M29.3037 22.0874L43.0948 10.0458" stroke="white" stroke-width="2.8368" stroke-miterlimit="10" stroke-linecap="round" stroke-linejoin="round"/>
<path d="M48.6372 8.51562L57.7239 15.3015" stroke="white" stroke-width="2.8368" stroke-miterlimit="10" stroke-linecap="round" stroke-linejoin="round"/>
</g>
<defs>
<clipPath id="clip0_148_129">
<rect width="58" height="32" fill="white" transform="translate(0.625977)"/>
</clipPath>
</defs>
</svg>
