<svg width="550" height="224" viewBox="0 0 550 224" fill="none" xmlns="http://www.w3.org/2000/svg">
<path d="M1.44808 49.8706C27.2729 94.3652 53.4699 138.659 80.0857 182.651C87.6703 195.156 95.2549 207.66 102.886 220.165C107.772 228.2 117.45 221.22 121.917 216.449C125.267 212.833 128.199 208.715 130.712 204.446C133.922 198.973 137.319 190.787 137.738 184.108C138.529 171.151 137.459 158.445 134.434 145.89C131.456 133.637 127.454 121.735 123.174 109.933C114.938 87.2842 106.608 64.7356 98.2329 42.1368C93.4867 29.3811 88.7405 16.6755 83.9943 3.91974C72.7338 19.2367 61.5198 34.5035 50.2592 49.8204C73.0595 88.5397 95.9063 127.359 122.894 162.915C131.13 173.712 139.739 184.208 148.673 194.302C151.139 195.608 153.651 195.658 156.211 194.403C158.77 193.348 161.05 191.791 163.004 189.782C169.472 184.057 173.986 176.675 177.568 168.59C187.48 146.242 187.759 121.936 188.782 97.7299C189.713 75.5831 190.644 53.4362 191.621 31.3396C179.988 43.3923 168.355 55.3948 156.769 67.4475C166.541 89.8956 176.917 112.042 187.945 133.838C198.647 154.98 209.535 176.273 221.913 196.311C228.241 206.556 235.965 216.851 246.248 222.626C252.158 225.94 258.905 220.115 262.907 216.047C269.747 209.117 274.819 199.676 277.517 190.033C288.359 150.912 293.431 110.586 293.384 69.8078C281.752 83.6684 270.119 97.529 258.486 111.39C267.839 128.715 277.238 146.091 288.313 162.262C294.362 171.05 300.923 179.437 307.949 187.271C313.998 194.051 320.605 200.68 328.562 204.848C338.194 209.87 348.57 210.824 358.714 207.058C369.37 203.091 378.862 194.754 386.447 185.915C403.012 166.531 415.436 143.831 425.812 119.977C430.186 109.883 434.141 99.588 438.096 89.3432C440.004 84.3213 441.912 79.3495 443.866 74.3778C444.89 71.7664 445.96 69.1047 447.03 66.4933C447.216 66.0916 447.356 65.6898 447.542 65.288C449.217 61.3709 445.029 70.2598 445.216 69.9585C445.448 69.5567 445.774 69.0545 445.96 68.6025C444.843 70.4104 443.68 72.1681 442.563 73.976C438.655 78.3451 437.585 79.6006 439.446 77.7927C437.91 79.1486 436.328 80.5046 434.793 81.8605C435.118 81.5592 435.491 81.2579 435.909 81.057C434.42 81.9107 432.931 82.7645 431.442 83.6182C432.094 83.2666 432.652 83.0658 433.35 82.8649C432.001 83.1662 430.651 83.4675 429.255 83.7688C430.372 83.6182 431.303 83.7186 432.373 83.9697C431.21 83.6182 430.093 83.3169 428.93 82.9653C433.118 84.5724 436.421 88.5397 439.678 91.7035C443.215 95.1185 446.798 98.5334 450.334 101.948C457.686 109.029 465.084 116.11 472.436 123.191C487.187 137.353 501.891 151.515 516.641 165.677C519.712 168.64 526.273 164.873 528.646 163.216C533.95 159.45 538.976 152.971 542.093 147.096C545.397 140.969 548.654 133.938 549.12 126.757C549.399 121.885 549.213 117.617 545.583 114.152C518.363 88.1379 491.375 62.074 464.247 36.1105C460.804 32.8462 456.755 29.9837 451.963 30.0841C442.563 30.3352 434.42 38.9228 428.976 46.3051C421.624 56.2485 417.25 68.2008 412.737 79.8015C406.688 95.47 400.871 111.339 393.845 126.556C393.38 127.56 392.915 128.514 392.449 129.519C390.216 134.189 396.172 121.986 393.845 126.606C392.822 128.665 391.751 130.774 390.635 132.783C388.541 136.75 386.307 140.617 383.934 144.384C381.096 148.853 388.541 137.303 385.656 141.672C385.051 142.576 384.446 143.48 383.841 144.334C382.538 146.192 381.235 148.05 379.839 149.808C379.002 150.912 376.024 154.478 379.746 150.059C383.376 145.74 380.677 148.904 379.793 149.908C378.257 151.565 376.675 153.122 375 154.629C376.536 153.273 378.118 151.917 379.653 150.561C377.559 152.369 375.419 153.976 373.092 155.382C374.581 154.528 376.07 153.674 377.559 152.821C374.767 154.428 371.883 155.583 368.811 156.286C370.161 155.985 371.51 155.683 372.906 155.382C368.858 156.185 364.903 155.985 360.901 154.93C362.064 155.281 363.181 155.583 364.344 155.934C351.921 152.369 342.242 142.024 333.774 132.08C334.565 133.034 335.356 133.988 336.193 134.892C318.558 114.051 305.296 89.5943 292.175 65.3383C290.081 61.4714 285.893 60.8185 282.264 62.4255C277.703 64.3841 274.074 67.9497 270.863 71.8166C266.862 76.5874 263.186 82.2623 260.906 88.2384C260.115 90.5485 259.324 92.8084 258.579 95.1185C257.462 98.9854 257.044 102.903 257.323 106.92C257.323 108.326 257.323 109.732 257.323 111.139C257.323 109.331 257.369 107.472 257.369 105.665C257.137 130.021 254.717 154.227 250.204 178.081C250.622 175.972 250.995 173.863 251.413 171.754C249.366 182.45 246.853 193.047 243.968 203.492C254.391 192.645 264.814 181.797 275.237 170.9C270.259 168.087 265.978 164.271 262.162 159.851C262.953 160.806 263.744 161.76 264.582 162.664C258.858 155.884 254.345 148.1 249.924 140.266C244.666 130.975 239.501 121.584 234.43 112.143C224.332 93.2603 214.7 74.0263 205.58 54.5913C200.415 43.5932 195.436 32.5449 190.551 21.3961C189.76 20.442 188.969 19.4878 188.131 18.5839C186.316 17.479 184.502 17.2781 182.64 18.0314C178.406 18.9354 174.497 21.8983 171.473 25.1626C168.123 28.7784 165.191 32.8964 162.678 37.1651C159.514 42.5386 155.931 50.9755 155.652 57.504C154.861 76.3364 154.07 95.1687 153.233 114.051C152.86 123.342 152.442 132.632 152.069 141.923C151.697 150.36 151.232 158.747 149.696 167.033C150.115 164.924 150.487 162.814 150.906 160.705C150.441 163.066 149.882 165.376 149.231 167.686C147.742 172.708 151.837 160.755 150.208 164.873C149.743 166.079 149.278 167.234 148.766 168.389C158.398 159.801 168.03 151.264 177.662 142.676C175.521 140.266 173.381 137.805 171.287 135.344C172.078 136.298 172.869 137.253 173.706 138.157C146.765 106.368 124.011 70.8624 102.374 34.8048C96.232 24.5098 90.1364 14.2148 84.0409 3.86952C77.8057 -6.67659 64.6839 7.03335 60.403 13.0095C56.0756 19.1865 52.1205 26.167 50.3523 33.6999C49.096 39.1237 48.2584 44.4971 50.2592 49.8204C63.2414 84.6226 76.2236 119.425 88.9266 154.327C92.4165 163.919 95.8598 173.511 98.512 183.404C98.1398 181.948 97.721 180.542 97.3488 179.086C100.094 189.381 101.909 199.876 101.909 210.623C101.909 208.816 101.955 206.957 101.955 205.15C101.955 206.857 101.862 208.615 101.769 210.322C113.402 198.269 125.035 186.267 136.621 174.214C109.819 130.423 83.3894 86.2798 57.332 41.936C49.9335 29.2806 42.5351 16.6253 35.1832 3.96996C32.8566 0.0026152 29.1341 -0.399142 25.272 1.05723C20.0605 2.96557 14.756 8.64038 11.5919 13.1601C7.26447 19.2367 3.30932 26.2172 1.54114 33.6999C0.37786 38.5712 -1.2042 45.3007 1.44808 49.8706Z" fill="#90C6C0" fill-opacity="0.8"/>
</svg>
