<svg width="272" height="48" viewBox="0 0 272 48" fill="none" xmlns="http://www.w3.org/2000/svg">
<rect x="0.050293" y="0.191895" width="271.833" height="46.8492" rx="23" fill="#A8D5D0"/>
<mask id="mask0_193_907" style="mask-type:alpha" maskUnits="userSpaceOnUse" x="0" y="0" width="272" height="48">
<rect x="0.050293" y="0.191895" width="271.833" height="46.8492" rx="23" fill="#87DBD1"/>
</mask>
<g mask="url(#mask0_193_907)">
<path d="M-36.2255 -29.1217C-20.3585 -3.72588 -4.26272 21.5553 12.0903 46.6644C16.7504 53.8016 21.4104 60.9388 26.0991 68.076C29.101 72.6621 35.0475 68.6779 37.7921 65.9549C39.8505 63.8911 41.6516 61.5407 43.1955 59.1043C45.1681 55.98 47.2551 51.3079 47.5124 47.4957C47.9985 40.1005 47.3409 32.8486 45.4826 25.6828C43.6529 18.6889 41.1942 11.8957 38.564 5.15978C33.5037 -7.76742 28.3862 -20.6373 23.2402 -33.5358C20.3241 -40.8163 17.4079 -48.0682 14.4918 -55.3487C7.57324 -46.6064 0.683229 -37.8927 -6.23537 -29.1503C7.77337 -7.05083 21.8107 15.106 38.3925 35.3997C43.4528 41.5623 48.7418 47.553 54.2309 53.3143C55.7462 54.0596 57.29 54.0882 58.8624 53.3717C60.4348 52.7697 61.8357 51.8812 63.0364 50.7346C67.0103 47.467 69.7835 43.2535 71.9849 38.6387C78.0744 25.8834 78.2459 12.0103 78.8749 -1.80543C79.4467 -14.446 80.0184 -27.0866 80.6188 -39.6985C73.4715 -32.8193 66.3242 -25.9687 59.2055 -19.0895C65.2092 -6.27692 71.5846 6.36364 78.3603 18.8036C84.9358 30.8709 91.6257 43.0242 99.2304 54.4609C103.119 60.3082 107.864 66.1842 114.183 69.4805C117.813 71.3723 121.959 68.0473 124.418 65.7256C128.62 61.77 131.736 56.3813 133.395 50.8779C140.056 28.5491 143.172 5.53241 143.144 -17.7423C135.996 -9.83119 128.849 -1.92008 121.702 5.99102C127.448 15.8799 133.223 25.7974 140.027 35.0271C143.744 40.0432 147.775 44.8299 152.092 49.3014C155.809 53.171 159.868 56.9546 164.757 59.3336C170.675 62.2 177.05 62.7446 183.283 60.5948C189.83 58.3304 195.662 53.5723 200.322 48.5275C210.5 37.4635 218.133 24.5076 224.509 10.8925C227.196 5.13112 229.626 -0.74488 232.056 -6.59222C233.228 -9.45856 234.401 -12.2962 235.601 -15.1339C236.23 -16.6244 236.888 -18.1436 237.545 -19.6341C237.66 -19.8634 237.745 -20.0927 237.86 -20.322C238.889 -22.5577 236.316 -17.4843 236.43 -17.6563C236.573 -17.8856 236.773 -18.1722 236.888 -18.4302C236.202 -17.3983 235.487 -16.3951 234.801 -15.3632C232.399 -12.8695 231.742 -12.1529 232.885 -13.1848C231.942 -12.4109 230.97 -11.637 230.026 -10.8631C230.226 -11.0351 230.455 -11.207 230.712 -11.3217C229.798 -10.8344 228.883 -10.3471 227.968 -9.85985C228.368 -10.0605 228.711 -10.1751 229.14 -10.2898C228.311 -10.1178 227.482 -9.94584 226.624 -9.77386C227.31 -9.85985 227.882 -9.80252 228.54 -9.6592C227.825 -9.85985 227.139 -10.0318 226.424 -10.2325C228.997 -9.31524 231.027 -7.05083 233.028 -5.24504C235.201 -3.29593 237.402 -1.34681 239.575 0.602298C244.092 4.64384 248.638 8.68538 253.155 12.7269C262.218 20.81 271.252 28.8931 280.315 36.9762C282.202 38.6673 286.233 36.5176 287.691 35.5717C290.95 33.4219 294.038 29.7243 295.953 26.3707C297.983 22.8738 299.984 18.8609 300.27 14.762C300.442 11.9817 300.327 9.54529 298.097 7.56751C281.373 -7.28014 264.791 -22.1565 248.123 -36.9754C246.008 -38.8386 243.52 -40.4724 240.576 -40.4151C234.801 -40.2717 229.798 -35.3703 226.453 -31.1568C221.936 -25.4814 219.248 -18.6595 216.475 -12.0383C212.758 -3.09528 209.185 5.96236 204.868 14.6474C204.582 15.2206 204.296 15.7652 204.01 16.3385C202.638 19.0042 206.297 12.039 204.868 14.676C204.239 15.8512 203.581 17.0551 202.895 18.2016C201.609 20.466 200.236 22.6731 198.778 24.8229C197.034 27.3739 201.609 20.7813 199.836 23.2751C199.464 23.791 199.093 24.3069 198.721 24.7942C197.921 25.8548 197.12 26.9153 196.262 27.9185C195.748 28.5491 193.918 30.5842 196.205 28.0619C198.435 25.5968 196.777 27.4026 196.234 27.9759C195.29 28.9218 194.318 29.8103 193.289 30.6702C194.233 29.8963 195.205 29.1224 196.148 28.3485C194.862 29.3804 193.546 30.2976 192.117 31.1002C193.032 30.6129 193.947 30.1256 194.862 29.6383C193.146 30.5556 191.374 31.2148 189.487 31.6161C190.316 31.4441 191.145 31.2722 192.003 31.1002C189.515 31.5588 187.085 31.4441 184.627 30.8422C185.341 31.0428 186.027 31.2148 186.742 31.4155C179.109 29.3804 173.162 23.4757 167.959 17.8003C168.445 18.345 168.931 18.8896 169.446 19.4055C158.61 7.51018 150.462 -6.4489 142.4 -20.2933C141.114 -22.5004 138.541 -22.873 136.311 -21.9558C133.509 -20.8379 131.279 -18.8028 129.306 -16.5958C126.848 -13.8727 124.589 -10.6338 123.188 -7.22281C122.702 -5.9043 122.216 -4.61444 121.759 -3.29592C121.073 -1.08884 120.815 1.14691 120.987 3.43998C120.987 4.24255 120.987 5.04513 120.987 5.8477C120.987 4.81582 121.015 3.75528 121.015 2.72339C120.873 16.6252 119.386 30.4409 116.613 44.056C116.87 42.8522 117.099 41.6483 117.356 40.4444C116.098 46.5498 114.554 52.5977 112.782 58.5597C119.186 52.3684 125.59 46.1771 131.994 39.9572C128.935 38.352 126.304 36.1736 123.96 33.6512C124.446 34.1958 124.932 34.7404 125.447 35.2564C121.93 31.3868 119.157 26.944 116.441 22.4725C113.211 17.1698 110.037 11.8097 106.921 6.42097C100.717 -4.35647 94.7991 -15.3346 89.1956 -26.4273C86.0222 -32.7046 82.9631 -39.0105 79.9613 -45.3738C79.4753 -45.9184 78.9892 -46.463 78.4746 -46.979C77.3596 -47.6096 76.2447 -47.7242 75.1011 -47.2943C72.4995 -46.7783 70.098 -45.0872 68.2397 -43.2241C66.1812 -41.1603 64.3801 -38.8099 62.8363 -36.3735C60.8922 -33.3065 58.6909 -28.4911 58.5193 -24.7648C58.0333 -14.016 57.5473 -3.26726 57.0327 7.51018C56.804 12.8129 56.5467 18.1156 56.3179 23.4184C56.0892 28.2338 55.8033 33.0206 54.8599 37.7501C55.1172 36.5462 55.3459 35.3424 55.6032 34.1385C55.3173 35.4857 54.9743 36.8042 54.574 38.1227C53.6591 40.9891 56.175 34.1672 55.1744 36.5176C54.8885 37.2055 54.6026 37.8647 54.2881 38.524C60.2061 33.6226 66.1241 28.7498 72.042 23.8483C70.7269 22.4725 69.4118 21.068 68.1253 19.6635C68.6113 20.2081 69.0973 20.7527 69.612 21.2686C53.0588 3.12468 39.0786 -17.1404 25.7846 -37.7207C22.0108 -43.5967 18.2656 -49.4727 14.5204 -55.3774C10.6895 -61.3967 2.6273 -53.5716 -0.00291539 -50.1606C-2.66172 -46.635 -5.0918 -42.6508 -6.1782 -38.3513C-6.95011 -35.2556 -7.46471 -32.1887 -6.23537 -29.1503C1.74103 -9.28658 9.71744 10.5772 17.5223 30.4982C19.6665 35.973 21.7821 41.4477 23.4117 47.0944C23.183 46.2631 22.9257 45.4605 22.697 44.6293C24.3837 50.5053 25.4987 56.496 25.4987 62.6299C25.4987 61.5981 25.5273 60.5375 25.5273 59.5056C25.5273 60.4802 25.4701 61.4834 25.4129 62.458C32.5603 55.5787 39.7076 48.7282 46.8263 41.849C30.3589 16.8545 14.1202 -8.34069 -1.88981 -33.6505C-6.4355 -40.8737 -10.9812 -48.0969 -15.4983 -55.32C-16.9278 -57.5844 -19.2149 -57.8138 -21.5878 -56.9825C-24.7898 -55.8933 -28.049 -52.6543 -29.9931 -50.0746C-32.6519 -46.6064 -35.0819 -42.6221 -36.1683 -38.3513C-36.8831 -35.5709 -37.8551 -31.73 -36.2255 -29.1217Z" fill="#79C1B9" fill-opacity="0.8"/>
</g>
</svg>
