<svg width="655" height="402" viewBox="0 0 655 402" fill="none" xmlns="http://www.w3.org/2000/svg">
<path d="M1.72639 89.5559C32.5145 169.458 63.7464 248.998 95.4775 327.998C104.52 350.454 113.562 372.909 122.66 395.365C128.485 409.794 140.023 397.258 145.349 388.691C149.343 382.198 152.838 374.803 155.833 367.137C159.661 357.308 163.711 342.608 164.21 330.614C165.153 307.347 163.877 284.53 160.271 261.985C156.721 239.98 151.95 218.607 146.847 197.414C137.028 156.742 127.098 116.25 117.112 75.6678C111.454 52.7614 105.796 29.9453 100.137 7.03893C86.7126 34.5446 73.3434 61.96 59.9187 89.4657C87.101 158.996 114.339 228.707 146.514 292.557C156.333 311.946 166.595 330.794 177.246 348.921C180.186 351.265 183.182 351.356 186.233 349.101C189.284 347.207 192.002 344.411 194.332 340.804C202.043 330.523 207.424 317.267 211.696 302.747C223.512 262.616 223.844 218.968 225.065 175.5C226.174 135.729 227.284 95.9588 228.449 56.2785C214.58 77.9223 200.712 99.4759 186.899 121.12C198.548 161.431 210.919 201.202 224.066 240.341C236.825 278.308 249.806 316.545 264.562 352.528C272.107 370.925 281.316 389.413 293.575 399.784C300.621 405.736 308.664 395.274 313.435 387.97C321.59 375.524 327.636 358.57 330.854 341.255C343.779 271.003 349.826 198.586 349.771 125.358C335.902 150.249 322.034 175.139 308.165 200.029C319.315 231.142 330.521 262.345 343.724 291.384C350.936 307.166 358.757 322.227 367.134 336.295C374.346 348.47 382.223 360.374 391.709 367.859C403.192 376.877 415.563 378.591 427.656 371.827C440.36 364.703 451.676 349.732 460.719 333.86C480.467 299.05 495.279 258.287 507.65 215.451C512.864 197.324 517.58 178.837 522.295 160.439C524.569 151.421 526.844 142.493 529.174 133.565C530.394 128.875 531.67 124.096 532.946 119.406C533.168 118.685 533.334 117.963 533.556 117.242C535.553 110.208 530.561 126.17 530.782 125.629C531.06 124.907 531.448 124.006 531.67 123.194C530.339 126.441 528.952 129.597 527.62 132.843C522.961 140.689 521.685 142.944 523.904 139.697C522.073 142.132 520.187 144.567 518.356 147.002C518.745 146.461 519.188 145.92 519.688 145.559C517.912 147.092 516.137 148.625 514.362 150.158C515.139 149.527 515.804 149.166 516.637 148.806C515.028 149.347 513.419 149.888 511.755 150.429C513.086 150.158 514.196 150.339 515.472 150.79C514.085 150.158 512.753 149.617 511.367 148.986C516.359 151.872 520.298 158.996 524.181 164.678C528.397 170.81 532.669 176.943 536.885 183.075C545.649 195.791 554.47 208.507 563.235 221.222C580.82 246.654 598.35 272.085 615.935 297.517C619.596 302.837 627.418 296.074 630.247 293.098C636.571 286.334 642.563 274.7 646.279 264.149C650.218 253.147 654.101 240.521 654.656 227.625C654.989 218.878 654.767 211.212 650.44 204.989C617.988 158.275 585.813 111.47 553.471 64.8459C549.366 58.984 544.54 53.8436 538.826 54.024C527.62 54.4749 517.912 69.8961 511.422 83.1529C502.657 101.009 497.443 122.472 492.062 143.305C484.85 171.442 477.916 199.939 469.539 227.264C468.984 229.068 468.43 230.782 467.875 232.585C465.212 240.972 472.313 219.058 469.539 227.355C468.319 231.052 467.043 234.84 465.711 238.447C463.215 245.572 460.552 252.516 457.723 259.279C454.339 267.305 463.215 246.564 459.776 254.409C459.054 256.033 458.333 257.656 457.612 259.189C456.059 262.526 454.506 265.863 452.841 269.019C451.843 271.003 448.293 277.406 452.73 269.47C457.057 261.714 453.84 267.396 452.786 269.199C450.955 272.175 449.069 274.971 447.072 277.676C448.903 275.242 450.789 272.807 452.62 270.372C450.123 273.618 447.571 276.504 444.798 279.029C446.573 277.496 448.348 275.963 450.123 274.43C446.795 277.316 443.355 279.39 439.694 280.653C441.303 280.111 442.912 279.57 444.576 279.029C439.75 280.472 435.034 280.111 430.263 278.218C431.65 278.849 432.982 279.39 434.369 280.021C419.557 273.618 408.018 255.041 397.922 237.185C398.865 238.898 399.808 240.611 400.807 242.235C379.782 204.809 363.972 160.89 348.328 117.332C345.832 110.388 340.839 109.216 336.512 112.101C331.076 115.619 326.749 122.022 322.921 128.966C318.15 137.533 313.768 147.724 311.05 158.455C310.107 162.604 309.164 166.662 308.276 170.81C306.945 177.754 306.445 184.789 306.778 192.003C306.778 194.528 306.778 197.053 306.778 199.578C306.778 196.332 306.834 192.995 306.834 189.749C306.556 233.487 303.672 276.955 298.291 319.792C298.79 316.004 299.234 312.216 299.733 308.429C297.292 327.638 294.297 346.666 290.857 365.424C303.283 345.945 315.71 326.465 328.136 306.896C322.2 301.845 317.096 294.992 312.548 287.055C313.491 288.769 314.434 290.482 315.432 292.106C308.609 279.931 303.228 265.953 297.958 251.884C291.689 235.201 285.532 218.336 279.485 201.382C267.447 167.474 255.964 132.934 245.091 98.033C238.933 78.2831 232.998 58.4429 227.173 38.4224C226.23 36.709 225.287 34.9955 224.288 33.3722C222.125 31.3882 219.961 31.0275 217.742 32.3802C212.694 34.0035 208.034 39.3242 204.429 45.1861C200.434 51.6792 196.94 59.0742 193.944 66.7397C190.172 76.3892 185.9 91.5399 185.567 103.264C184.624 137.082 183.681 170.9 182.683 204.809C182.239 221.493 181.74 238.177 181.296 254.86C180.852 270.011 180.297 285.071 178.467 299.952C178.966 296.164 179.41 292.376 179.909 288.589C179.354 292.827 178.689 296.976 177.912 301.124C176.137 310.142 181.019 288.679 179.077 296.074C178.522 298.238 177.967 300.312 177.357 302.386C188.84 286.965 200.323 271.634 211.807 256.213C209.255 251.884 206.703 247.465 204.207 243.046C205.15 244.76 206.093 246.473 207.091 248.097C174.972 191.011 147.845 127.252 122.05 62.5011C114.727 44.0137 107.46 25.5263 100.193 6.94875C92.7593 -11.9896 77.1156 12.6302 72.012 23.362C66.8529 34.4544 62.1376 46.9898 60.0296 60.5171C58.5318 70.2568 57.5333 79.9064 59.9187 89.4657C75.3959 151.962 90.8732 214.459 106.018 277.135C110.178 294.36 114.283 311.585 117.445 329.351C117.001 326.736 116.502 324.211 116.058 321.595C119.331 340.083 121.495 358.931 121.495 378.23C121.495 374.983 121.55 371.647 121.55 368.4C121.55 371.466 121.439 374.623 121.328 377.689C135.197 356.045 149.065 334.491 162.879 312.848C130.925 234.209 99.4162 154.938 68.3507 75.3071C59.5303 52.5811 50.71 29.8551 41.9451 7.12911C39.1714 0.00469629 34.7334 -0.716764 30.1291 1.89853C23.916 5.32546 17.592 15.5161 13.8197 23.6325C8.66064 34.5446 3.94535 47.0799 1.83733 60.5171C0.450482 69.2648 -1.43564 81.3493 1.72639 89.5559Z" fill="#DFDDEE"/>
</svg>
