<svg width="39" height="38" viewBox="0 0 39 38" fill="none" xmlns="http://www.w3.org/2000/svg">
<path d="M21.3239 0.976382C22.7005 0.971236 24.0771 0.984714 25.4534 1.01681L25.8193 1.02968C26.2419 1.04438 26.6588 1.06276 27.1625 1.08481C29.1697 1.1767 30.5392 1.48544 31.7409 1.93936C32.986 2.40615 34.0348 3.03833 35.0837 4.06011C36.0427 4.97826 36.7849 6.08888 37.2588 7.31475C37.7247 8.48539 38.0416 9.82143 38.136 11.7768C38.1586 12.2656 38.1775 12.6736 38.1926 13.0853L38.2039 13.4418C38.2374 14.7819 38.2519 16.1223 38.2473 17.4628L38.2491 18.8337V21.2412C38.2538 22.5822 38.2393 23.9233 38.2058 25.264L38.1944 25.6205C38.1794 26.0322 38.1605 26.4383 38.1379 26.929C38.0435 28.8843 37.7228 30.2185 37.2588 31.3892C36.7865 32.6163 36.0441 33.7279 35.0837 34.6457C34.1404 35.5798 32.9997 36.3028 31.7409 36.7646C30.5392 37.2185 29.1697 37.5272 27.1625 37.6191C26.6588 37.6412 26.2419 37.6595 25.8193 37.6742L25.4534 37.6853C24.0771 37.7179 22.7005 37.732 21.3239 37.7275L19.9166 37.7294H17.4473C16.0706 37.7339 14.694 37.7198 13.3178 37.6871L12.9518 37.6761C12.504 37.6603 12.0563 37.6419 11.6087 37.621C9.60151 37.5291 8.23194 37.2167 7.02839 36.7646C5.76953 36.3039 4.62927 35.5807 3.68748 34.6457C2.72736 33.7273 1.98444 32.616 1.51052 31.3892C1.04456 30.2185 0.727641 28.8843 0.633318 26.929C0.612309 26.4929 0.593444 26.0567 0.576725 25.6205L0.567293 25.264C0.532514 23.9233 0.516791 22.5822 0.520131 21.2412V17.4628C0.514866 16.1223 0.528702 14.7819 0.561634 13.4418L0.574839 13.0853C0.58993 12.6736 0.608795 12.2656 0.631432 11.7768C0.725755 9.8196 1.04268 8.48723 1.50863 7.31475C1.98283 6.08828 2.72721 4.97796 3.68937 4.06195C4.63051 3.12608 5.77005 2.40168 7.02839 1.93936C8.23194 1.48544 9.59962 1.1767 11.6087 1.08481L12.9518 1.02968L13.3178 1.02049C14.6934 0.986624 16.0694 0.971308 17.4454 0.974545L21.3239 0.976382ZM19.3846 10.1651C18.1349 10.1479 16.8941 10.3728 15.7343 10.8268C14.5746 11.2808 13.519 11.9548 12.629 12.8097C11.7389 13.6646 11.0322 14.6832 10.5498 15.8065C10.0674 16.9298 9.819 18.1353 9.819 19.3529C9.819 20.5705 10.0674 21.776 10.5498 22.8992C11.0322 24.0225 11.7389 25.0412 12.629 25.8961C13.519 26.7509 14.5746 27.425 15.7343 27.879C16.8941 28.333 18.1349 28.5579 19.3846 28.5407C21.8862 28.5407 24.2854 27.5726 26.0543 25.8494C27.8231 24.1261 28.8169 21.789 28.8169 19.352C28.8169 16.915 27.8231 14.5778 26.0543 12.8546C24.2854 11.1313 21.8862 10.1651 19.3846 10.1651ZM19.3846 13.8406C20.1364 13.8271 20.8834 13.9597 21.582 14.2306C22.2805 14.5015 22.9167 14.9053 23.4533 15.4184C23.9899 15.9315 24.4161 16.5436 24.7072 17.219C24.9982 17.8944 25.1481 18.6195 25.1483 19.3519C25.1484 20.0844 24.9987 20.8096 24.7079 21.4851C24.4171 22.1605 23.9911 22.7728 23.4546 23.2861C22.9182 23.7994 22.2822 24.2034 21.5837 24.4745C20.8852 24.7456 20.1383 24.8784 19.3865 24.8652C17.8856 24.8652 16.4461 24.2843 15.3848 23.2504C14.3234 22.2165 13.7272 20.8142 13.7272 19.352C13.7272 17.8898 14.3234 16.4875 15.3848 15.4535C16.4461 14.4196 17.8856 13.8387 19.3865 13.8387L19.3846 13.8406ZM29.2885 7.40848C28.6799 7.43221 28.1044 7.68442 27.6824 8.11228C27.2604 8.54015 27.0247 9.11047 27.0247 9.70382C27.0247 10.2972 27.2604 10.8675 27.6824 11.2954C28.1044 11.7232 28.6799 11.9754 29.2885 11.9992C29.9139 11.9992 30.5137 11.7571 30.9559 11.3263C31.3981 10.8955 31.6466 10.3112 31.6466 9.70198C31.6466 9.09273 31.3981 8.50844 30.9559 8.07763C30.5137 7.64683 29.9139 7.4048 29.2885 7.4048V7.40848Z" fill="white"/>
</svg>
