<svg width="201" height="181" viewBox="0 0 201 181" fill="none" xmlns="http://www.w3.org/2000/svg">
<path d="M172.107 105.832C171.659 88.5398 168.151 69.6211 160.212 54.1803C156.459 46.8832 151.578 38.6758 142.424 36.9667C129.293 34.515 121.407 49.4452 118.742 59.3849C118.57 60.0272 115.464 74.5626 121.026 76.2017C122.443 76.6195 123.338 73.6038 122.893 72.2158C119.163 60.5779 108.853 54.0644 96.7079 51.6891C76.005 47.64 62.3388 53.1343 46.0447 65.5832C39.8086 70.3476 25.8113 86.0149 23.8822 96.1328" stroke="#87DAD1" stroke-width="2" stroke-linecap="round"/>
<path d="M16.6281 92.3547C17.1494 95.0942 17.4157 96.4007 17.9982 99.1717C18.105 99.6797 18.7026 102.812 19.1025 103.708C19.7488 105.158 22.7753 103.154 23.3482 102.879C29.0297 100.151 26.9984 101.171 32.549 98.1943" stroke="#87DAD1" stroke-width="2" stroke-linecap="round"/>
</svg>
