<svg width="37" height="37" viewBox="0 0 37 37" fill="none" xmlns="http://www.w3.org/2000/svg">
<path d="M36.0001 20.4256V16.6212H33.0411C32.9002 15.4236 32.548 14.2259 32.1253 13.0987L34.732 11.6193L32.8298 8.37858L30.2231 9.85803C29.5186 8.87173 28.6028 8.02633 27.6869 7.32183L29.0959 4.78563L25.8552 2.88347L24.3758 5.49013C23.2486 5.06743 22.1214 4.71518 20.8533 4.57428V1.54492H17.049V4.50383C15.8513 4.64473 14.6537 4.99698 13.5265 5.41968L12.047 2.81302L8.87677 4.78563L10.3562 7.39228C9.36992 8.09678 8.52452 9.01263 7.82001 9.92848L5.21336 8.44903L3.31121 11.6897L5.91786 13.1692C5.49516 14.2964 5.14291 15.4236 5.00201 16.6917H1.97266V20.496H4.93156C5.07246 21.6937 5.42471 22.8913 5.84741 24.0185L3.24076 25.498L5.21336 28.6682L7.82001 27.1888C8.52452 28.1751 9.44037 29.0205 10.3562 29.725L8.87677 32.3316L12.1175 34.2338L13.5969 31.6271C14.7241 32.0498 15.8513 32.4021 17.1194 32.543V35.5019H20.9237V32.543C22.1214 32.4021 23.319 32.0498 24.4462 31.6271L25.9257 34.2338L29.1664 32.3316L27.6869 29.725C28.6732 29.0205 29.5186 28.1046 30.2231 27.1888L32.8298 28.6682L34.732 25.4275L32.1253 23.9481C32.548 22.8209 32.9002 21.6937 33.0411 20.4256H36.0001ZM10.4267 18.5234C10.4267 13.8032 14.231 9.99893 18.9511 9.99893C23.6713 9.99893 27.4756 13.8032 27.4756 18.5234C27.4756 23.2436 23.6713 27.0479 18.9511 27.0479C14.231 27.1183 10.4267 23.2436 10.4267 18.5234Z" stroke="#87DBD1" stroke-width="2" stroke-miterlimit="10" stroke-linecap="round" stroke-linejoin="round"/>
</svg>
