<svg width="30" height="30" viewBox="0 0 30 30" fill="none" xmlns="http://www.w3.org/2000/svg">
<path fill-rule="evenodd" clip-rule="evenodd" d="M8.99393 7.12841H21.621C22.607 7.12841 23.4021 7.12841 24.0461 7.18157C24.7107 7.23595 25.2919 7.35074 25.8308 7.62624C26.6767 8.06003 27.3654 8.74878 27.7992 9.59462C28.0747 10.1335 28.1895 10.7159 28.2439 11.3793C28.2971 12.0234 28.2971 12.8184 28.2971 13.8044V13.9482C28.2983 14.3567 28.2995 14.7917 28.1424 15.1807C28.0067 15.5146 27.7879 15.8083 27.5068 16.0338C27.3784 16.1359 27.2375 16.2211 27.0875 16.2876C27.0839 18.2354 27.0597 20.2026 26.8845 21.8894C26.7818 22.8802 26.6247 23.8094 26.3746 24.6009C26.1293 25.3815 25.7656 26.1186 25.1916 26.6297C24.1972 27.5142 22.9441 27.9045 21.3818 28.0918C19.8472 28.2742 17.88 28.2742 15.3691 28.2742H15.2458C12.7349 28.2742 10.7678 28.2742 9.23318 28.0906C7.6696 27.9045 6.41776 27.5142 5.4233 26.6297C4.84814 26.1198 4.48564 25.3815 4.23914 24.6021C3.99022 23.8094 3.83314 22.8802 3.73043 21.8894C3.55522 20.2038 3.52984 18.2354 3.52622 16.2864C3.37674 16.2202 3.23626 16.1353 3.10814 16.0338C2.82704 15.8083 2.60825 15.5146 2.47255 15.1807C2.31547 14.7917 2.31547 14.3567 2.31789 13.9482V13.8044C2.31789 12.8184 2.31789 12.0234 2.37105 11.3793C2.42543 10.7147 2.54022 10.1335 2.81572 9.59462C3.24906 8.74821 3.93769 8.05958 4.7841 7.62624C5.3218 7.35074 5.90422 7.23595 6.5676 7.18157C7.21285 7.12841 8.00793 7.12841 8.99393 7.12841ZM5.34114 16.8664C5.3496 18.6027 5.38464 20.2702 5.53326 21.7033C5.62993 22.6337 5.7701 23.4276 5.96826 24.0572C6.17126 24.6976 6.40447 25.0782 6.6268 25.2752C7.22493 25.8068 8.05022 26.1246 9.44826 26.2902C10.862 26.4593 12.7216 26.4617 15.3075 26.4617C17.8933 26.4617 19.7517 26.4605 21.1667 26.2914C22.5647 26.1246 23.39 25.8056 23.9881 25.2752C24.2093 25.0782 24.4437 24.6976 24.6455 24.0572C24.8436 23.4288 24.985 22.6337 25.0817 21.7033C25.2303 20.2702 25.2653 18.6015 25.2738 16.8664L19.2346 18.6777V19.1054C19.2346 19.7217 18.8588 20.2775 18.2848 20.5071L17.439 20.8454C16.0707 21.3927 14.5443 21.3927 13.176 20.8454L12.3301 20.5071C12.0499 20.3951 11.8097 20.2017 11.6404 19.9518C11.4711 19.702 11.3806 19.4072 11.3804 19.1054V18.6777L5.34114 16.8664ZM11.3804 16.7854L4.86385 14.8303C4.68892 14.7807 4.51563 14.7255 4.34426 14.6648C4.30935 14.6515 4.27508 14.6366 4.24155 14.6201C4.20265 14.5882 4.17233 14.547 4.15335 14.5004C4.14683 14.464 4.14199 14.4273 4.13885 14.3905C4.13015 14.2086 4.12733 14.0264 4.13039 13.8443C4.13039 12.81 4.13039 12.0886 4.17751 11.5267C4.22222 10.9757 4.3068 10.6604 4.42885 10.4211C4.6886 9.91308 5.10161 9.49964 5.60939 9.23937C5.84985 9.11732 6.16522 9.03395 6.71622 8.98803C7.2781 8.94212 7.99826 8.94091 9.0338 8.94091H21.5811C22.6155 8.94091 23.3368 8.94091 23.8987 8.98803C24.4485 9.03274 24.7651 9.11732 25.0043 9.23937C25.5118 9.49916 25.9251 9.91241 26.1861 10.4211C26.3081 10.6604 26.3915 10.9769 26.4374 11.5267C26.4833 12.0886 26.4846 12.81 26.4846 13.8443C26.4846 14.1162 26.4846 14.2733 26.4749 14.3905C26.4721 14.4273 26.4677 14.464 26.4616 14.5004C26.4423 14.5472 26.4115 14.5883 26.3722 14.6201C26.339 14.6365 26.3052 14.6514 26.2707 14.6648C26.0993 14.7255 25.926 14.7807 25.7511 14.8303L19.2346 16.7854V16.493C19.2346 15.6592 18.5579 14.9826 17.7241 14.9826H12.8908C12.0571 14.9826 11.3804 15.6592 11.3804 16.493V16.7854ZM13.1929 16.7951V18.9L13.849 19.1622C14.7853 19.5367 15.8297 19.5367 16.7659 19.1622L17.4221 18.9V16.7951H13.1929ZM15.3075 4.10757C14.7451 4.1074 14.1965 4.28163 13.7373 4.60624C13.2781 4.93085 12.9308 5.38987 12.7434 5.92007C12.6605 6.14292 12.4933 6.32425 12.2779 6.42495C12.0625 6.52566 11.8161 6.53767 11.5919 6.4584C11.3677 6.37913 11.1837 6.21493 11.0795 6.0012C10.9753 5.78748 10.9592 5.54135 11.0348 5.31591C11.3472 4.43221 11.9259 3.66709 12.6912 3.12594C13.4565 2.58478 14.3708 2.29419 15.3081 2.29419C16.2454 2.29419 17.1596 2.58478 17.9249 3.12594C18.6902 3.66709 19.2689 4.43221 19.5813 5.31591C19.6615 5.54264 19.6482 5.79191 19.5446 6.00889C19.4409 6.22586 19.2553 6.39277 19.0285 6.47289C18.8018 6.553 18.5525 6.53977 18.3356 6.4361C18.1186 6.33243 17.9517 6.14681 17.8716 5.92007C17.6841 5.38987 17.3368 4.93085 16.8776 4.60624C16.4184 4.28163 15.8698 4.1074 15.3075 4.10757Z" fill="white"/>
</svg>
