<svg width="29" height="28" viewBox="0 0 29 28" fill="none" xmlns="http://www.w3.org/2000/svg">
<path d="M14.5004 14V21M14.5004 14C19.1718 14 22.9587 10.3635 22.9587 5.87766C22.9587 5.76099 22.9563 5.64433 22.9515 5.52766C22.8995 4.36099 22.8741 3.77766 22.0549 3.05549C21.2356 2.33333 20.3306 2.33333 18.5169 2.33333H10.4839C8.6714 2.33333 7.76394 2.33333 6.9459 3.05666C6.12785 3.77766 6.10127 4.36099 6.04931 5.52649C6.04448 5.64316 6.04206 5.76022 6.04206 5.87766C6.04206 10.3635 9.82898 14 14.5004 14ZM14.5004 21C12.4776 21 10.7183 22.1807 9.80965 23.9225C9.37465 24.7543 9.99815 25.6667 10.8246 25.6667H18.1749C19.0026 25.6667 19.6249 24.7543 19.1911 23.9225C18.2825 22.1807 16.5231 21 14.5004 21ZM6.04206 5.83333H4.8156C3.62298 5.83333 3.02727 5.83333 2.65873 6.26499C2.29019 6.69783 2.39894 7.18199 2.61523 8.15033C3.02606 9.99833 3.92144 11.6235 5.1346 12.8333M22.9587 5.83333H24.1852C25.3778 5.83333 25.9735 5.83333 26.3421 6.26499C26.7106 6.69783 26.6019 7.18199 26.3868 8.15033C25.9735 9.99833 25.0794 11.6235 23.865 12.8333" stroke="white" stroke-width="1.5" stroke-linecap="round" stroke-linejoin="round"/>
</svg>
