<svg width="61" height="71" viewBox="0 0 61 71" fill="none" xmlns="http://www.w3.org/2000/svg">
<path d="M31.1923 43.3538L9.7854 70.2725C9.56623 70.5438 9.20866 70.2944 9.39526 69.9995L27.9486 40.8486C29.1645 38.8737 28.9209 37.7982 27.4106 36.5009L0.538366 16.323C0.325787 16.1592 0.582495 15.7799 0.818175 15.912L29.8308 32.4023C31.7516 33.3882 32.9269 33.9451 34.5353 32.0128L60.0904 0.0584395C60.2021 -0.0829259 60.3917 0.0496663 60.2913 0.204024L38.7108 32.8976C37.1427 35.4052 37.309 36.9271 39.0341 38.8054L59.9358 59.0933C60.0464 59.1977 59.8835 59.4034 59.7586 59.3129L36.1689 42.6492C34.2462 41.4444 32.9457 41.3768 31.1923 43.3538Z" fill="#D165BC"/>
</svg>
