<svg width="144" height="28" viewBox="0 0 144 28" fill="none" xmlns="http://www.w3.org/2000/svg">
<path d="M18.0143 3.181C15.466 3.181 13.2452 4.6847 12.2623 6.88524L10.26 6.11505L1.48633 2.63086V9.59925V14.0003H3.27019V15.8341L10.26 13.0468L12.2623 12.2766C13.2816 14.4771 15.466 15.9808 18.0143 15.9808C21.5092 15.9808 24.3853 13.1201 24.3853 9.56257C24.3853 6.00503 21.5092 3.181 18.0143 3.181Z" fill="#009A93"/>
<path d="M23.2933 5.78474C21.2546 2.88736 17.2864 2.2272 14.4468 4.24436C12.3717 5.74807 11.4252 8.24202 11.862 10.6259L9.78693 11.1394L0.612793 13.4133L4.58097 19.098L6.65607 22.0688H10.333L13.7551 16.8241L14.9201 15.027C16.9952 16.2373 19.6528 16.2006 21.7643 14.6969C24.6403 12.6798 25.2956 8.68213 23.2933 5.78474Z" fill="#008899"/>
<path d="M21.0361 3.87767C17.9052 2.26394 14.0827 3.51091 12.4808 6.66503C11.3159 8.93892 11.6435 11.6162 13.1361 13.5234L11.5343 14.9537L4.47168 21.262L10.6242 24.4161L12.9177 25.5897L16.9223 25.9565L17.6868 18.1079L17.9052 15.9807C20.308 16.0907 22.6379 14.807 23.8029 12.4965C25.4047 9.34235 24.1669 5.4914 21.0361 3.87767Z" fill="#0075B3"/>
<path d="M21.5823 17.4843L20.7814 15.4672C22.9657 14.4402 24.4583 12.2397 24.4583 9.6724C24.4583 6.15153 21.6187 3.25415 18.0874 3.25415C14.5561 3.25415 11.7165 6.11486 11.7165 9.6724C11.7165 12.2397 13.2091 14.4769 15.3934 15.4672L14.6289 17.4843L11.1704 26.3232H18.0874H25.0044L21.5823 17.4843Z" fill="#164194"/>
<path d="M33.6325 11.4328L39.2389 17.0808H36.0353L31.1934 12.203V17.0808H28.8998V5.71137H31.1934V10.6626L35.9624 5.71137H38.9477L33.6325 11.4328ZM41.7145 11.2861C41.7145 12.8998 41.314 14.6602 40.2219 14.6602V17.1542C43.5348 17.1542 44.1536 14.1101 44.1536 11.3228V8.24199H47.3937V17.1542H49.8693V5.67469H41.7145V11.2861ZM67.0162 11.4695C67.0162 14.7336 64.395 17.3376 61.1913 17.3376C58.3517 17.3376 56.0218 15.3204 55.4757 12.6431H54.0195V17.0442H51.5439V5.67469H54.0195V10.1858H55.4757C56.0582 7.54515 58.3881 5.56466 61.1913 5.56466C64.395 5.60134 67.0162 8.24199 67.0162 11.4695ZM64.759 11.4695C64.759 9.48897 63.1572 7.87523 61.1913 7.87523C59.2254 7.87523 57.6236 9.48897 57.6236 11.4695C57.6236 13.4499 59.2254 15.0637 61.1913 15.0637C63.1572 15.0637 64.759 13.4499 64.759 11.4695ZM75.9355 9.34226C75.8627 10.8093 74.6977 11.9096 73.2779 11.9096C71.7853 11.9096 70.6203 10.6993 70.6203 9.23224V5.71137H68.3268V9.23224C68.3268 11.9829 70.5475 14.2201 73.2779 14.2201C74.2608 14.2201 75.171 13.9267 75.9355 13.4499V17.1175H78.229V5.71137H75.9355V9.34226ZM88.1312 11.4328L93.4464 5.71137H90.4612L85.6921 10.6626V5.71137H83.3986V17.1175H85.6921V12.203L90.534 17.0808H93.7377L88.1312 11.4328ZM106.589 14.0001C105.897 14.6969 104.987 15.027 104.077 15.027C103.13 15.027 102.256 14.6969 101.565 14.0001H101.601C100.91 13.2666 100.545 12.3497 100.545 11.4328C100.545 10.5159 100.873 9.59899 101.601 8.90215C102.293 8.20532 103.203 7.83856 104.113 7.83856C105.06 7.83856 105.933 8.16864 106.625 8.90215L108.154 7.36177C107.026 6.22483 105.569 5.67469 104.113 5.67469C102.621 5.67469 101.164 6.22483 100.036 7.36177H100.072C98.9436 8.49872 98.3975 9.96575 98.3975 11.3961C98.3975 12.8998 98.98 14.3668 100.072 15.5038C101.201 16.6407 102.657 17.1909 104.15 17.1909C105.606 17.1909 107.062 16.6407 108.191 15.5038L106.589 14.0001ZM114.744 5.78472C116.2 5.78472 117.947 6.62826 119.622 8.27867L113.214 14.7336C113.688 14.9903 114.234 15.1004 114.78 15.1004C115.654 15.1004 116.564 14.7703 117.255 14.0734L118.857 15.6872C117.729 16.8241 116.236 17.3742 114.78 17.3742C113.287 17.3742 111.831 16.8241 110.703 15.6872C109.574 14.5502 109.028 13.0832 109.028 11.5795C109.028 10.1125 109.574 8.60875 110.703 7.4718C111.795 6.37153 113.251 5.78472 114.744 5.78472ZM116.345 8.38869C115.872 8.16864 115.253 8.05861 114.78 8.05861C113.833 8.05861 112.96 8.38869 112.304 9.08553C111.613 9.78237 111.285 10.6993 111.285 11.5795C111.285 12.1296 111.394 12.6798 111.649 13.1565L116.345 8.38869ZM126.248 17.3742C123.117 17.3742 120.532 14.7703 120.532 11.6162V7.58183C120.532 2.88734 125.265 1.89709 128.213 1.89709C129.051 1.89709 129.743 1.56701 129.743 0.833496H131.963C131.963 3.07071 130.289 4.17099 128.213 4.17099C126.248 4.17099 123.226 4.72112 122.789 7.06837C123.772 6.33485 124.937 5.89474 126.211 5.89474C129.378 5.89474 131.927 8.46205 131.927 11.6528C132 14.7703 129.415 17.3742 126.248 17.3742ZM129.743 11.6162C129.743 9.67234 128.177 8.09529 126.248 8.09529C124.318 8.09529 122.789 9.67234 122.789 11.6162C122.789 13.56 124.355 15.1004 126.248 15.1004C128.141 15.1004 129.743 13.56 129.743 11.6162ZM142.739 15.6872C141.611 16.8241 140.118 17.3742 138.662 17.3742C137.169 17.3742 135.713 16.8241 134.584 15.6872C133.456 14.5502 132.91 13.0832 132.91 11.5795C132.91 10.1125 133.456 8.60875 134.584 7.4718C135.713 6.37153 137.169 5.78472 138.662 5.78472C140.118 5.78472 141.865 6.62826 143.54 8.27867L137.096 14.7336C137.57 14.9903 138.116 15.1004 138.662 15.1004C139.536 15.1004 140.446 14.7703 141.137 14.0734L142.739 15.6872ZM135.495 13.1565L140.227 8.38869C139.754 8.16864 139.135 8.05861 138.662 8.05861C137.715 8.05861 136.842 8.38869 136.186 9.08553C135.495 9.78237 135.167 10.6993 135.167 11.5795C135.13 12.1296 135.24 12.6798 135.495 13.1565ZM31.4118 21.4819H30.5381V24.5994H28.9362V21.4819H28.0625V25.4796H31.0113V26.4331H31.8122V24.6727H31.3754V21.4819H31.4118ZM37.6371 22.3621L35.4164 24.636C35.5984 24.7094 35.7804 24.7461 35.9624 24.7461C36.2901 24.7461 36.5813 24.636 36.8362 24.3793L37.3823 24.9294C36.9818 25.3329 36.4721 25.5163 35.9624 25.5163C35.4528 25.5163 34.9431 25.3329 34.5426 24.9294C34.1422 24.526 33.9602 24.0126 33.9602 23.4991C33.9602 22.9856 34.1422 22.4722 34.5426 22.0687C34.9431 21.6653 35.4528 21.4819 35.9624 21.4819C36.4721 21.5186 37.0546 21.812 37.6371 22.3621ZM36.5085 22.3988C36.3629 22.3255 36.1445 22.2888 35.9624 22.2888C35.6348 22.2888 35.3072 22.3988 35.0887 22.6555C34.8339 22.9123 34.7247 23.2057 34.7247 23.5358C34.7247 23.7191 34.7611 23.9025 34.8339 24.0859L36.5085 22.3988ZM42.3698 23.0223H40.768V21.4452H39.9306V25.4429H40.8044V23.9025H42.4062V25.4796H43.2799V21.4819H42.4062V23.0223H42.3698ZM45.5006 22.1788H46.8112V25.4429H47.685V22.1788H48.9591V21.4452H45.537V22.1788H45.5006ZM55.4029 23.4624C55.4029 24.5627 54.5656 25.4796 53.5098 25.4796C52.9273 25.4796 52.3084 25.1862 51.9808 24.7094V27.13H51.1799V21.4819H51.9808V22.2154C52.3084 21.7387 52.9273 21.4452 53.5098 21.4452C54.5656 21.4452 55.4029 22.3621 55.4029 23.4624ZM54.602 23.4624C54.602 22.7656 54.0559 22.2154 53.3642 22.2154C52.6725 22.2154 52.1264 22.7656 52.1264 23.4624C52.1264 24.1593 52.6725 24.7094 53.3642 24.7094C54.0559 24.7094 54.602 24.1593 54.602 23.4624ZM60.6452 25.4796H61.519V22.3621H63.1208V25.4796H63.9945V21.4819H60.6816V25.4796H60.6452ZM70.5111 23.4624C70.5111 24.5627 69.6738 25.4796 68.618 25.4796C68.0355 25.4796 67.4166 25.1862 67.089 24.7094V27.13H66.2881V21.4819H67.089V22.2154C67.4166 21.7387 68.0355 21.4452 68.618 21.4452C69.6738 21.4452 70.5111 22.3621 70.5111 23.4624ZM69.7102 23.4624C69.7102 22.7656 69.1641 22.2154 68.4724 22.2154C67.7807 22.2154 67.2346 22.7656 67.2346 23.4624C67.2346 24.1593 67.7807 24.7094 68.4724 24.7094C69.1641 24.7094 69.7102 24.1593 69.7102 23.4624ZM76.7364 23.4991C76.7364 24.636 75.8263 25.5529 74.6977 25.5529C73.5691 25.5529 72.659 24.636 72.659 23.4991C72.659 22.3621 73.5691 21.4452 74.6977 21.4452C75.8263 21.4452 76.7364 22.3621 76.7364 23.4991ZM75.9355 23.4991C75.9355 22.8023 75.3894 22.2521 74.6977 22.2521C74.006 22.2521 73.4599 22.8023 73.4599 23.4991C73.4599 24.1959 74.006 24.7461 74.6977 24.7461C75.3894 24.7461 75.9355 24.1959 75.9355 23.4991ZM83.8718 23.4991C83.8718 24.636 82.9617 25.5529 81.8331 25.5529V27.1667H81.0322V25.5529C79.9036 25.5529 78.9935 24.636 78.9935 23.4991C78.9935 22.3621 79.9036 21.4452 81.0322 21.4452V19.5014H81.8331V21.4452C82.9617 21.4452 83.8718 22.3621 83.8718 23.4991ZM81.0322 22.2521C80.3405 22.2521 79.7944 22.8389 79.7944 23.4991C79.7944 24.1959 80.3405 24.7461 81.0322 24.7461V22.2521ZM83.0709 23.4991C83.0709 22.8023 82.5248 22.2521 81.8331 22.2521V24.7827C82.5248 24.7461 83.0709 24.1959 83.0709 23.4991ZM90.0971 23.4991C90.0971 24.636 89.187 25.5529 88.0584 25.5529C86.9299 25.5529 86.0197 24.636 86.0197 23.4991C86.0197 22.3621 86.9299 21.4452 88.0584 21.4452C89.187 21.4452 90.0971 22.3621 90.0971 23.4991ZM89.2962 23.4991C89.2962 22.8023 88.7501 22.2521 88.0584 22.2521C87.3667 22.2521 86.8206 22.8023 86.8206 23.4991C86.8206 24.1959 87.3667 24.7461 88.0584 24.7461C88.7501 24.7461 89.2962 24.1959 89.2962 23.4991ZM96.5773 23.4624C96.5773 24.5627 95.74 25.4796 94.6842 25.4796C94.1017 25.4796 93.4828 25.1862 93.1552 24.7094V27.13H92.3543V21.4819H93.1552V22.2154C93.4828 21.7387 94.1017 21.4452 94.6842 21.4452C95.74 21.4452 96.5773 22.3621 96.5773 23.4624ZM95.7764 23.4624C95.7764 22.7656 95.2303 22.2154 94.5386 22.2154C93.8469 22.2154 93.3008 22.7656 93.3008 23.4624C93.3008 24.1593 93.8469 24.7094 94.5386 24.7094C95.2303 24.7094 95.7764 24.1593 95.7764 23.4624ZM99.7081 24.1593V21.4819H98.8344V25.4796H99.7809L101.456 22.8389V25.4796H102.329V21.4819H101.346L99.7081 24.1593ZM108.336 22.3621L106.079 24.636C106.261 24.7094 106.443 24.7461 106.625 24.7461C106.953 24.7461 107.244 24.636 107.499 24.3793L108.045 24.9294C107.644 25.3329 107.135 25.5163 106.625 25.5163C106.115 25.5163 105.606 25.3329 105.205 24.9294C104.805 24.526 104.623 24.0126 104.623 23.4991C104.623 22.9856 104.805 22.4722 105.205 22.0687C105.606 21.6653 106.115 21.4819 106.625 21.4819C107.135 21.5186 107.754 21.812 108.336 22.3621ZM107.171 22.3988C107.026 22.3255 106.807 22.2888 106.625 22.2888C106.297 22.2888 105.97 22.3988 105.751 22.6555C105.497 22.9123 105.387 23.2057 105.387 23.5358C105.387 23.7191 105.424 23.9025 105.497 24.0859L107.171 22.3988ZM113.069 23.0223H111.467V21.4452H110.593V25.4429H111.467V23.9025H113.069V25.4796H113.943V21.4819H113.069V23.0223ZM116.163 22.1788H117.474V25.4429H118.348V22.1788H119.622V21.4452H116.2V22.1788H116.163ZM125.155 21.4819H125.956V25.4796H125.155V24.7461C124.828 25.2229 124.209 25.5163 123.626 25.5163C122.607 25.5163 121.733 24.5994 121.733 23.4991C121.733 22.3988 122.571 21.4819 123.626 21.4819C124.209 21.4819 124.828 21.7753 125.155 22.2521V21.4819ZM125.01 23.4624C125.01 22.7656 124.464 22.2154 123.772 22.2154C123.08 22.2154 122.534 22.7656 122.534 23.4624C122.534 24.1593 123.08 24.7094 123.772 24.7094C124.427 24.7094 125.01 24.1593 125.01 23.4624ZM131.599 21.4819H130.725V24.5994H129.124V21.4819H128.25V25.4796H131.199V26.4331H132V24.6727H131.563V21.4819H131.599ZM135.094 24.1593V21.4819H134.22V25.4796H135.167L136.842 22.8389V25.4796H137.715V21.4819H136.769L135.094 24.1593ZM142.666 21.4819L140.992 24.1593V21.4819H140.118V25.4796H141.065L142.739 22.8389V25.4796H143.613V21.4819H142.666Z" fill="url(#paint0_linear_193_919)"/>
<defs>
<linearGradient id="paint0_linear_193_919" x1="28.1103" y1="13.979" x2="143.654" y2="13.979" gradientUnits="userSpaceOnUse">
<stop stop-color="#164194"/>
<stop offset="0.3179" stop-color="#0075B3"/>
<stop offset="0.6799" stop-color="#008899"/>
<stop offset="1" stop-color="#009A93"/>
</linearGradient>
</defs>
</svg>
