<svg width="50" height="27" viewBox="0 0 50 27" fill="none" xmlns="http://www.w3.org/2000/svg">
<g clip-path="url(#clip0_193_1064)">
<path d="M16.4748 10.8337C16.4748 13.0229 14.7325 14.8192 12.6092 14.8192C10.4859 14.8192 8.74365 13.0229 8.74365 10.8337C8.74365 8.64452 10.4859 6.84827 12.6092 6.84827C14.7325 6.84827 16.4748 8.64452 16.4748 10.8337Z" stroke="#FFEB14" stroke-width="2.8368" stroke-miterlimit="10" stroke-linecap="round" stroke-linejoin="round"/>
<path d="M26.0026 22.2287C26.0026 24.4179 24.2604 26.2141 22.137 26.2141C20.0137 26.2141 18.2715 24.4179 18.2715 22.2287C18.2715 20.0395 20.0137 18.2432 22.137 18.2432C24.2604 18.1871 26.0026 19.9833 26.0026 22.2287Z" stroke="#FFEB14" stroke-width="2.8368" stroke-miterlimit="10" stroke-linecap="round" stroke-linejoin="round"/>
<path d="M42.1725 4.82743C42.1725 7.01662 40.4303 8.81287 38.307 8.81287C36.1836 8.81287 34.4414 7.01662 34.4414 4.82743C34.4414 2.63824 36.1836 0.841979 38.307 0.841979C40.4303 0.785846 42.1725 2.5821 42.1725 4.82743Z" stroke="#FFEB14" stroke-width="2.8368" stroke-miterlimit="10" stroke-linecap="round" stroke-linejoin="round"/>
<path d="M1.61133 15.4365L8.68911 12.5737" stroke="#FFEB14" stroke-width="2.8368" stroke-miterlimit="10" stroke-linecap="round" stroke-linejoin="round"/>
<path d="M15.3315 13.6964L19.7415 19.0291" stroke="#FFEB14" stroke-width="2.8368" stroke-miterlimit="10" stroke-linecap="round" stroke-linejoin="round"/>
<path d="M25.0767 18.6362L36.7278 8.47607" stroke="#FFEB14" stroke-width="2.8368" stroke-miterlimit="10" stroke-linecap="round" stroke-linejoin="round"/>
<path d="M41.4102 7.18506L49.0868 12.9106" stroke="#FFEB14" stroke-width="2.8368" stroke-miterlimit="10" stroke-linecap="round" stroke-linejoin="round"/>
<path d="M16.4748 10.8337C16.4748 13.0229 14.7325 14.8192 12.6092 14.8192C10.4859 14.8192 8.74365 13.0229 8.74365 10.8337C8.74365 8.64452 10.4859 6.84827 12.6092 6.84827C14.7325 6.84827 16.4748 8.64452 16.4748 10.8337Z" stroke="#FFEB14" stroke-width="2.8368" stroke-miterlimit="10" stroke-linecap="round" stroke-linejoin="round"/>
<path d="M26.0026 22.2287C26.0026 24.4179 24.2604 26.2141 22.137 26.2141C20.0137 26.2141 18.2715 24.4179 18.2715 22.2287C18.2715 20.0395 20.0137 18.2432 22.137 18.2432C24.2604 18.1871 26.0026 19.9833 26.0026 22.2287Z" stroke="#FFEB14" stroke-width="2.8368" stroke-miterlimit="10" stroke-linecap="round" stroke-linejoin="round"/>
<path d="M42.1725 4.82743C42.1725 7.01662 40.4303 8.81287 38.307 8.81287C36.1836 8.81287 34.4414 7.01662 34.4414 4.82743C34.4414 2.63824 36.1836 0.841979 38.307 0.841979C40.4303 0.785846 42.1725 2.5821 42.1725 4.82743Z" stroke="#FFEB14" stroke-width="2.8368" stroke-miterlimit="10" stroke-linecap="round" stroke-linejoin="round"/>
<path d="M1.61133 15.4365L8.68911 12.5737" stroke="#FFEB14" stroke-width="2.8368" stroke-miterlimit="10" stroke-linecap="round" stroke-linejoin="round"/>
<path d="M15.3315 13.6964L19.7415 19.0291" stroke="#FFEB14" stroke-width="2.8368" stroke-miterlimit="10" stroke-linecap="round" stroke-linejoin="round"/>
<path d="M25.0767 18.6362L36.7278 8.47607" stroke="#FFEB14" stroke-width="2.8368" stroke-miterlimit="10" stroke-linecap="round" stroke-linejoin="round"/>
<path d="M41.4102 7.18506L49.0868 12.9106" stroke="#FFEB14" stroke-width="2.8368" stroke-miterlimit="10" stroke-linecap="round" stroke-linejoin="round"/>
</g>
<defs>
<clipPath id="clip0_193_1064">
<rect width="49" height="27" fill="white" transform="translate(0.849121)"/>
</clipPath>
</defs>
</svg>
