<svg width="375" height="205" viewBox="0 0 375 205" fill="none" xmlns="http://www.w3.org/2000/svg">
<mask id="mask0_193_1005" style="mask-type:alpha" maskUnits="userSpaceOnUse" x="-1" y="0" width="376" height="205">
<rect x="-0.396973" y="0.646851" width="375.246" height="204.322" rx="23" fill="#87DBD1"/>
</mask>
<g mask="url(#mask0_193_1005)">
<path d="M-272.623 -92.963C-227.542 -1.74791 -181.811 89.0554 -135.35 179.241C-122.11 204.876 -108.87 230.511 -95.5486 256.146C-87.0198 272.618 -70.1246 258.308 -62.3269 248.527C-56.4785 241.115 -51.3613 232.673 -46.975 223.922C-41.3704 212.7 -35.4408 195.919 -34.7098 182.227C-33.3289 155.665 -35.1971 129.618 -40.4769 103.88C-45.6754 78.7602 -52.6609 54.3607 -60.1337 30.1671C-74.5109 -16.2641 -89.0505 -62.4893 -103.671 -108.818C-111.956 -134.967 -120.242 -161.014 -128.527 -187.164C-148.184 -155.763 -167.759 -124.466 -187.416 -93.066C-147.615 -13.6903 -107.733 65.8913 -60.6211 138.781C-46.244 160.916 -31.217 182.432 -15.6215 203.126C-11.3165 205.802 -6.93019 205.905 -2.46272 203.332C2.00474 201.17 5.98485 197.978 9.39638 193.86C20.6869 182.124 28.5659 166.99 34.8204 150.415C52.1217 104.601 52.6091 54.7725 54.396 5.14986C56.0206 -40.2518 57.6451 -85.6534 59.3508 -130.952C39.0441 -106.244 18.7375 -81.6383 -1.48802 -56.93C15.5696 -10.9106 33.6832 34.491 52.9339 79.172C71.6161 122.515 90.6232 166.166 112.229 207.244C123.276 228.246 136.76 249.351 154.711 261.19C165.027 267.985 176.805 256.043 183.79 247.704C195.731 233.496 204.584 214.142 209.296 194.375C228.221 114.176 237.075 31.5054 236.994 -52.0912C216.687 -23.6766 196.38 4.73806 176.074 33.1527C192.4 68.671 208.808 104.292 228.14 137.443C238.7 155.459 250.153 172.652 262.418 188.713C272.977 202.611 284.512 216.201 298.401 224.746C315.215 235.041 333.329 236.997 351.036 229.275C369.637 221.142 386.208 204.052 399.447 185.933C428.364 146.194 450.052 99.6594 468.165 50.7574C475.801 30.0641 482.705 8.95906 489.609 -12.0431C492.94 -22.3382 496.27 -32.5304 499.681 -42.7226C501.468 -48.0761 503.337 -53.5325 505.205 -58.886C505.53 -59.7096 505.773 -60.5333 506.098 -61.3569C509.022 -69.3871 501.712 -51.1647 502.037 -51.7824C502.443 -52.606 503.012 -53.6355 503.337 -54.5621C501.387 -50.8558 499.356 -47.2525 497.407 -43.5462C490.584 -34.5895 488.716 -32.0157 491.965 -35.7219C489.284 -32.9422 486.523 -30.1625 483.842 -27.3829C484.411 -28.0006 485.061 -28.6183 485.792 -29.0301C483.192 -27.2799 480.593 -25.5297 477.994 -23.7795C479.131 -24.5002 480.106 -24.912 481.324 -25.3238C478.969 -24.7061 476.613 -24.0884 474.176 -23.4707C476.126 -23.7795 477.75 -23.5736 479.618 -23.0589C477.588 -23.7795 475.638 -24.3972 473.608 -25.1179C480.918 -21.8235 486.685 -13.6903 492.371 -7.20433C498.544 -0.203625 504.799 6.79708 510.972 13.7978C523.806 28.314 536.721 42.8301 549.555 57.3463C575.303 86.3786 600.971 115.411 626.72 144.443C632.081 150.517 643.534 142.796 647.677 139.399C656.936 131.677 665.709 118.397 671.151 106.351C676.918 93.7912 682.604 79.3779 683.416 64.6559C683.904 54.6696 683.579 45.9187 677.243 38.815C629.725 -14.5139 582.614 -67.9458 535.259 -121.172C529.248 -127.864 522.181 -133.732 513.815 -133.526C497.407 -133.011 483.192 -115.406 473.689 -100.273C460.855 -79.8882 453.22 -55.3857 445.341 -31.6038C434.781 0.517048 424.628 33.0497 412.363 64.2441C411.55 66.3031 410.738 68.2591 409.926 70.3182C406.027 79.8927 416.424 54.8755 412.363 64.347C410.576 68.568 408.707 72.892 406.758 77.01C403.103 85.1432 399.204 93.0705 395.061 100.792C390.106 109.955 403.103 86.2757 398.067 95.2325C397.011 97.0856 395.955 98.9387 394.899 100.689C392.624 104.498 390.35 108.307 387.913 111.911C386.451 114.176 381.253 121.485 387.751 112.425C394.087 103.572 389.375 110.058 387.832 112.117C385.152 115.514 382.39 118.705 379.466 121.794C382.146 119.014 384.908 116.235 387.588 113.455C383.933 117.161 380.197 120.456 376.135 123.338C378.735 121.588 381.334 119.838 383.933 118.088C379.06 121.382 374.023 123.75 368.662 125.191C371.018 124.574 373.374 123.956 375.811 123.338C368.744 124.985 361.839 124.574 354.854 122.412C356.885 123.132 358.834 123.75 360.865 124.471C339.177 117.161 322.282 95.9531 307.499 75.5687C308.88 77.5248 310.26 79.4809 311.723 81.334C280.938 38.6091 257.788 -11.5283 234.882 -61.2539C231.227 -69.1812 223.916 -70.5196 217.581 -67.2251C209.62 -63.21 203.285 -55.9004 197.68 -47.9732C190.695 -38.1928 184.278 -26.5592 180.298 -14.308C178.917 -9.57222 177.536 -4.93939 176.236 -0.203625C174.287 7.72365 173.556 15.7539 174.043 23.99C174.043 26.8727 174.043 29.7553 174.043 32.6379C174.043 28.9317 174.124 25.1225 174.124 21.4162C173.718 71.3477 169.494 120.97 161.615 169.872C162.346 165.548 162.996 161.224 163.727 156.9C160.153 178.829 155.767 200.552 150.731 221.966C168.926 199.728 187.121 177.491 205.315 155.15C196.624 149.385 189.151 141.561 182.491 132.501C183.872 134.457 185.252 136.413 186.714 138.266C176.724 124.368 168.845 108.41 161.128 92.3498C151.949 73.3038 142.933 54.0518 134.08 34.697C116.453 -4.01283 99.6394 -43.4433 83.7189 -83.2856C74.7027 -105.832 66.0115 -128.481 57.4826 -151.337C56.1018 -153.293 54.7209 -155.249 53.2588 -157.102C50.091 -159.367 46.9232 -159.779 43.6741 -158.234C36.2825 -156.381 29.4594 -150.307 24.1797 -143.615C18.3313 -136.203 13.214 -127.761 8.8278 -119.01C3.30437 -107.994 -2.95009 -90.6981 -3.43746 -77.3144C-4.81831 -38.7075 -6.19917 -0.100674 -7.66124 38.6091C-8.31108 57.6552 -9.0421 76.7012 -9.69191 95.7472C-10.3418 113.043 -11.154 130.236 -13.8345 147.223C-13.1034 142.899 -12.4536 138.575 -11.7226 134.251C-12.5349 139.09 -13.5096 143.826 -14.6467 148.561C-17.246 158.857 -10.0981 134.354 -12.941 142.796C-13.7533 145.267 -14.5655 147.635 -15.459 150.003C1.35493 132.398 18.1689 114.896 34.9828 97.2915C31.2464 92.3498 27.51 87.3052 23.8547 82.2606C25.2356 84.2167 26.6165 86.1727 28.0785 88.0259C-18.9518 22.8575 -58.6717 -49.9292 -96.4421 -123.848C-107.164 -144.954 -117.805 -166.059 -128.445 -187.267C-139.33 -208.886 -162.236 -180.781 -169.709 -168.529C-177.263 -155.866 -184.167 -141.556 -187.254 -126.113C-189.447 -114.995 -190.909 -103.979 -187.416 -93.066C-164.754 -21.7205 -142.092 49.6249 -119.917 121.176C-113.825 140.84 -107.814 160.504 -103.184 180.785C-103.834 177.8 -104.565 174.917 -105.215 171.931C-100.422 193.036 -97.2544 214.553 -97.2544 236.585C-97.2544 232.879 -97.1732 229.07 -97.1732 225.363C-97.1732 228.864 -97.3356 232.467 -97.4981 235.967C-77.1914 211.259 -56.8847 186.653 -36.6592 161.945C-83.4458 72.1713 -129.583 -18.3231 -175.07 -109.229C-187.985 -135.173 -200.9 -161.117 -213.734 -187.061C-217.795 -195.194 -224.293 -196.018 -231.035 -193.032C-240.132 -189.12 -249.392 -177.486 -254.916 -168.221C-262.47 -155.763 -269.374 -141.453 -272.461 -126.113C-274.491 -116.127 -277.253 -102.332 -272.623 -92.963Z" fill="#776EDB"/>
</g>
</svg>
