<svg width="38" height="38" viewBox="0 0 38 38" fill="none" xmlns="http://www.w3.org/2000/svg">
<g clip-path="url(#clip0_5_13)">
<path d="M18.9325 7.62521C20.2768 7.62521 21.301 8.69652 21.301 9.95689C21.301 11.2803 20.2128 12.2886 18.9325 12.2886C17.6522 12.2886 16.564 11.2173 16.564 9.95689C16.564 8.69652 17.5882 7.62521 18.9325 7.62521Z" fill="white"/>
<path d="M22.2612 3.40299C21.429 3.84412 20.3408 4.09619 19.1245 4.09619C17.7803 4.09619 16.564 3.7811 15.7318 3.27696C16.628 1.76452 17.7162 0.756226 18.9325 0.756226C20.2128 0.819244 21.365 1.82754 22.2612 3.40299Z" fill="white"/>
<path d="M24.0536 10.398L26.6142 14.9983L23.2215 15.8176H22.7094C23.4775 14.3682 24.0536 12.4776 24.0536 10.398Z" fill="white"/>
<path d="M15.0916 15.5655L14.7076 15.8176L11.3148 14.9983L13.8754 10.398C13.8754 12.4146 14.3235 14.1791 15.0916 15.5655Z" fill="white"/>
<path d="M21.173 17.4561L23.1574 20.796H23.0934C22.6453 20.4809 22.1332 20.2919 21.493 20.1028C20.7249 19.8507 19.8287 19.7247 18.8685 19.7247C17.5882 19.7247 16.4359 19.9768 15.5397 20.3549C15.2197 20.4809 14.9636 20.607 14.7076 20.796H14.6436L16.628 17.4561H21.173Z" fill="white"/>
<path d="M35.8322 34.7861H34.2318V36.3615H35.8322V34.7861Z" fill="#675DD2"/>
<path d="M33.3997 34.7861H31.7993V36.3615H33.3997V34.7861Z" fill="#675DD2"/>
<path d="M31.0311 34.7861H29.4308V36.3615H31.0311V34.7861Z" fill="#675DD2"/>
<path d="M28.5986 34.7861H26.9983V36.3615H28.5986V34.7861Z" fill="#675DD2"/>
<path d="M10.1626 34.7861H8.56226V36.3615H10.1626V34.7861Z" fill="#675DD2"/>
<path d="M7.66602 34.7861H6.06567V36.3615H7.66602V34.7861Z" fill="#675DD2"/>
<path d="M5.29749 34.7861H3.69714V36.3615H5.29749V34.7861Z" fill="#675DD2"/>
<path d="M2.86499 34.7861H1.26465V36.3615H2.86499V34.7861Z" fill="#675DD2"/>
<path d="M23.1574 16.6368C22.7734 16.6368 22.4533 16.3847 22.3893 16.0697C22.2613 15.6285 22.5173 15.2504 22.9654 15.1244L25.3339 14.5572L23.2855 10.9022C23.0934 10.524 23.2215 10.0199 23.6055 9.83085C23.9896 9.64179 24.5017 9.76783 24.6938 10.1459L27.2543 14.7463C27.3824 14.9353 27.3824 15.1874 27.2543 15.4395C27.1263 15.6915 26.9343 15.8176 26.7422 15.8806L23.3495 16.6998C23.2855 16.5738 23.2215 16.6368 23.1574 16.6368Z" fill="#675DD2"/>
<path d="M14.7075 16.6368C14.6435 16.6368 14.5795 16.6368 14.5155 16.6368L11.1228 15.8176C10.8667 15.7546 10.6747 15.5655 10.6107 15.3765C10.4826 15.1244 10.5466 14.8723 10.6107 14.6832L13.1712 10.0829C13.3633 9.70481 13.8754 9.57877 14.2594 9.76783C14.6435 9.95688 14.7716 10.461 14.5795 10.8391L12.5311 14.4942L14.8996 15.0614C15.3477 15.1874 15.6037 15.5655 15.4757 16.0066C15.4117 16.3847 15.0916 16.6368 14.7075 16.6368Z" fill="#675DD2"/>
<path d="M21.173 18.2753C20.917 18.2753 20.7249 18.1493 20.5329 17.9602C20.2768 17.6451 20.3408 17.141 20.6609 16.8259C21.109 16.4478 21.5571 15.9436 21.9412 15.3765C22.7734 14.0531 23.1574 12.2886 23.1574 10.398C23.1574 8.19237 22.5173 5.67164 21.4931 3.84412C21.301 3.46601 21.4291 2.96186 21.8132 2.77281C22.1972 2.52073 22.7093 2.64677 22.9014 3.02488C24.0536 5.04146 24.7578 7.81426 24.7578 10.335C24.7578 12.4776 24.2457 14.5572 23.2855 16.1327C22.8374 16.8889 22.2612 17.5821 21.6211 18.0232C21.5571 18.2123 21.3651 18.2753 21.173 18.2753Z" fill="#675DD2"/>
<path d="M16.692 18.2753C16.5 18.2753 16.3719 18.2123 16.1799 18.0862C15.4757 17.5821 14.8996 16.8259 14.3875 15.9436C13.4913 14.3682 13.0432 12.4146 13.0432 10.398C13.0432 7.81426 13.8114 4.97844 14.9636 2.96186C15.1557 2.52073 15.6678 2.39469 16.0519 2.58375C16.4359 2.7728 16.564 3.27695 16.3719 3.65506C15.2837 5.48259 14.6436 8.00332 14.6436 10.335C14.6436 12.0995 15.0276 13.801 15.7958 15.1244C16.1799 15.8176 16.628 16.3847 17.1401 16.7629C17.4602 17.0149 17.5242 17.5191 17.2681 17.8972C17.1401 18.1493 16.884 18.2753 16.692 18.2753Z" fill="#675DD2"/>
<path d="M19.1245 4.91542C17.7162 4.91542 16.3719 4.60033 15.2837 3.97015C14.8996 3.78109 14.7716 3.27695 15.0276 2.89884C16.1159 1.00829 17.5242 0 18.9325 0C20.4048 0 21.8131 1.07131 22.9653 3.02488C23.0934 3.21393 23.0934 3.40299 23.0294 3.65506C22.9653 3.90713 22.8373 4.03317 22.6453 4.09619C21.6211 4.66335 20.4048 4.91542 19.1245 4.91542ZM16.884 2.96186C17.5242 3.21393 18.2923 3.33997 19.1245 3.33997C19.8287 3.33997 20.4688 3.21393 21.0449 3.08789C20.3408 2.14262 19.5726 1.63847 18.9325 1.63847C18.2923 1.57546 17.5242 2.0796 16.884 2.96186Z" fill="#675DD2"/>
<path d="M18.9325 13.1078C17.2041 13.1078 15.7318 11.7214 15.7318 9.95688C15.7318 8.19237 17.1401 6.80597 18.9325 6.80597C20.6609 6.80597 22.1332 8.19237 22.1332 9.95688C22.1332 11.7214 20.6609 13.1078 18.9325 13.1078ZM18.9325 8.44444C18.0363 8.44444 17.3322 9.13764 17.3322 10.0199C17.3322 10.9022 18.0363 11.5954 18.9325 11.5954C19.8287 11.5954 20.5328 10.9022 20.5328 10.0199C20.5328 9.13764 19.8287 8.44444 18.9325 8.44444Z" fill="#675DD2"/>
<path d="M18.9325 11.0912C18.2923 11.0912 17.8442 10.5871 17.8442 10.0199C17.8442 9.38972 18.3563 8.94859 18.9325 8.94859C19.5726 8.94859 20.0207 9.45274 20.0207 10.0199C20.0207 10.5871 19.5726 11.0912 18.9325 11.0912Z" fill="#675DD2"/>
<path d="M23.1575 21.6153C22.9654 21.6153 22.8374 21.5522 22.6454 21.4892C22.2613 21.2371 21.8132 21.0481 21.3011 20.859C20.5969 20.67 19.7647 20.5439 18.9326 20.5439C17.8443 20.5439 16.7561 20.733 15.9239 21.1111C15.6679 21.2371 15.4118 21.3632 15.2198 21.4892C15.0917 21.5522 14.9637 21.6153 14.7717 21.6153H14.7076C14.4516 21.6153 14.1315 21.4892 14.0035 21.2371C13.8755 20.9851 13.8755 20.67 14.0035 20.4179L15.9879 17.0779C16.1159 16.8259 16.372 16.6998 16.6921 16.6998H21.173C21.4291 16.6998 21.7492 16.8259 21.8772 17.0779L23.8616 20.4179C23.9896 20.67 23.9896 20.9851 23.8616 21.2371C23.7976 21.4262 23.4135 21.6153 23.1575 21.6153ZM18.9326 18.9685C19.7647 18.9685 20.5329 19.0315 21.3011 19.2206L20.7249 18.2753H17.1402L16.564 19.2206C17.3322 19.0315 18.1004 18.9685 18.9326 18.9685Z" fill="#675DD2"/>
<path d="M18.5484 30.8789C13.5553 30.8789 7.79407 29.7446 6.96189 27.1609C6.89788 26.9718 6.83386 26.7827 6.83386 26.5307C6.83386 25.7114 7.34597 24.5141 9.84251 23.5058C11.5069 22.8756 13.8114 22.3715 16.3719 22.2454C17.0121 22.1824 17.7162 22.1824 18.4204 22.1824C19.3806 22.1824 20.3408 22.2454 21.301 22.3085C23.6695 22.4975 25.7179 22.9386 27.2543 23.6318C29.5588 24.5771 30.0069 25.7114 30.0069 26.5307C30.0069 26.7197 29.9429 26.9718 29.8788 27.1609C29.3027 29.6816 23.4775 30.8789 18.5484 30.8789ZM18.5484 23.7579C17.9083 23.7579 17.2041 23.7579 16.628 23.8209C11.4429 24.136 8.49822 25.6484 8.49822 26.5307C8.49822 26.5937 8.49822 26.5937 8.49822 26.6567C8.62625 27.0978 9.52244 27.791 11.4429 28.4212C13.3633 28.9884 15.8598 29.3035 18.4844 29.3035C21.1089 29.3035 23.6055 28.9884 25.5259 28.4212C27.5103 27.8541 28.3425 27.1609 28.4705 26.6567C28.4705 26.5937 28.4705 26.5937 28.4705 26.5307C28.4705 25.7114 25.974 24.325 21.173 23.8839C20.4048 23.8209 19.4446 23.7579 18.5484 23.7579Z" fill="#675DD2"/>
<path d="M18.5484 38C14.6436 38 11.6989 35.4163 10.2266 33.9038C8.17815 31.6982 6.83386 28.9254 6.83386 26.9718C6.83386 26.5307 7.21795 26.1526 7.66604 26.1526C8.11414 26.1526 8.49822 26.5307 8.49822 26.9718C8.49822 28.5473 9.71449 31.005 11.4429 32.8955C12.6591 34.2189 15.2197 36.4245 18.4844 36.4245C21.7491 36.4245 24.3096 34.2189 25.5259 32.8955C27.2543 31.005 28.4705 28.5473 28.4705 26.9718C28.4705 26.5307 28.8546 26.1526 29.3027 26.1526C29.7508 26.1526 30.1349 26.5307 30.1349 26.9718C30.1349 28.9884 28.7906 31.6982 26.7422 33.9038C25.3979 35.3532 22.4532 38 18.5484 38Z" fill="#675DD2"/>
<path d="M21.365 26.1526C20.9169 26.1526 20.5328 25.7745 20.5328 25.3333V20.607C20.5328 20.1658 20.9169 19.7877 21.365 19.7877C21.8131 19.7877 22.1972 20.1658 22.1972 20.607V25.3333C22.1332 25.7745 21.7491 26.1526 21.365 26.1526Z" fill="#675DD2"/>
<path d="M18.9325 28.4842C18.4844 28.4842 18.1003 28.1061 18.1003 27.665V25.2703C18.1003 24.8292 18.4844 24.4511 18.9325 24.4511C19.3806 24.4511 19.7647 24.8292 19.7647 25.2703V27.665C19.7647 28.1061 19.3806 28.4842 18.9325 28.4842Z" fill="#675DD2"/>
<path d="M16.564 27.728C16.1159 27.728 15.7318 27.3499 15.7318 26.9088V20.607C15.7318 20.1658 16.1159 19.7877 16.564 19.7877C17.0121 19.7877 17.3322 20.1658 17.3322 20.607V26.9088C17.3322 27.3499 16.9481 27.728 16.564 27.728Z" fill="#675DD2"/>
<path d="M31.0312 19.7877C30.5831 19.7877 30.199 19.4096 30.199 18.9685V7.12106C30.199 6.67993 30.5831 6.30182 31.0312 6.30182C31.4793 6.30182 31.8633 6.67993 31.8633 7.12106V19.0315C31.7993 19.4096 31.4152 19.7877 31.0312 19.7877Z" fill="#675DD2"/>
<path d="M34.2318 23.0017C33.7837 23.0017 33.3997 22.6235 33.3997 22.1824V17.456C33.3997 17.0149 33.7837 16.6368 34.2318 16.6368C34.6799 16.6368 35.064 17.0149 35.064 17.456V22.1824C35 22.5605 34.6159 23.0017 34.2318 23.0017Z" fill="#675DD2"/>
<path d="M36.6004 15.8176C36.1523 15.8176 35.7682 15.4395 35.7682 14.9983V11.8474C35.7682 11.4063 36.1523 11.0282 36.6004 11.0282C37.0485 11.0282 37.4325 11.4063 37.4325 11.8474V14.9983C37.4325 15.4395 37.0485 15.8176 36.6004 15.8176Z" fill="#675DD2"/>
<path d="M34.2318 26.9088C33.7837 26.9088 33.3997 26.5307 33.3997 26.0896V24.5141C33.3997 24.073 33.7837 23.6949 34.2318 23.6949C34.6799 23.6949 35.064 24.073 35.064 24.5141V26.0896C35 26.5307 34.6159 26.9088 34.2318 26.9088Z" fill="#675DD2"/>
<path d="M6.89785 19.7877C6.44976 19.7877 6.06567 19.4096 6.06567 18.9685V7.12106C6.06567 6.67993 6.44976 6.30182 6.89785 6.30182C7.34595 6.30182 7.73003 6.67993 7.73003 7.12106V19.0315C7.66602 19.4096 7.28194 19.7877 6.89785 19.7877Z" fill="#675DD2"/>
<path d="M3.69717 23.0017C3.24907 23.0017 2.86499 22.6235 2.86499 22.1824V17.456C2.86499 17.0149 3.24907 16.6368 3.69717 16.6368C4.14527 16.6368 4.46534 17.0149 4.46534 17.456V22.1824C4.46534 22.5605 4.08125 23.0017 3.69717 23.0017Z" fill="#675DD2"/>
<path d="M1.26467 15.8176C0.816578 15.8176 0.432495 15.4395 0.432495 14.9983V11.8474C0.432495 11.4063 0.816578 11.0282 1.26467 11.0282C1.71277 11.0282 2.09685 11.4063 2.09685 11.8474V14.9983C2.09685 15.4395 1.71277 15.8176 1.26467 15.8176Z" fill="#675DD2"/>
<path d="M3.69717 26.9088C3.24907 26.9088 2.86499 26.5307 2.86499 26.0896V24.5141C2.86499 24.073 3.24907 23.6949 3.69717 23.6949C4.14527 23.6949 4.52935 24.073 4.52935 24.5141V26.0896C4.46534 26.5307 4.08125 26.9088 3.69717 26.9088Z" fill="#675DD2"/>
</g>
<defs>
<clipPath id="clip0_5_13">
<rect width="37" height="38" fill="white" transform="translate(0.432495)"/>
</clipPath>
</defs>
</svg>
