<svg width="43" height="43" viewBox="0 0 43 43" fill="none" xmlns="http://www.w3.org/2000/svg">
<path d="M20.0801 37.25H17.6266C11.3529 37.25 8.21687 37.25 6.26737 35.2637C4.31787 33.2775 4.31787 30.0803 4.31787 23.6875C4.31787 17.2947 4.31787 14.0975 6.26737 12.1113C8.21687 10.125 11.3529 10.125 17.6266 10.125H24.2819C30.5556 10.125 33.6934 10.125 35.6429 12.1113C37.1426 13.639 37.4874 15.8842 37.5679 19.75" stroke="#675DD2" stroke-width="2" stroke-linecap="round" stroke-linejoin="round"/>
<path d="M31.4429 39C32.477 39 33.5011 38.7963 34.4565 38.4006C35.4119 38.0048 36.2801 37.4247 37.0113 36.6935C37.7426 35.9622 38.3227 35.0941 38.7184 34.1386C39.1142 33.1832 39.3179 32.1592 39.3179 31.125C39.3179 30.0908 39.1142 29.0668 38.7184 28.1114C38.3227 27.1559 37.7426 26.2878 37.0113 25.5565C36.2801 24.8253 35.4119 24.2452 34.4565 23.8494C33.5011 23.4537 32.477 23.25 31.4429 23.25C29.3543 23.25 27.3513 24.0797 25.8744 25.5565C24.3976 27.0334 23.5679 29.0364 23.5679 31.125C23.5679 33.2136 24.3976 35.2166 25.8744 36.6935C27.3513 38.1703 29.3543 39 31.4429 39Z" stroke="#675DD2" stroke-width="2" stroke-linecap="round" stroke-linejoin="round"/>
<path d="M28.8179 10.125L28.6429 9.5825C27.7784 6.8875 27.3444 5.54 26.3136 4.77C25.2811 4 23.9126 4 21.1739 4H20.7119C17.9731 4 16.6029 4 15.5721 4.77C14.5396 5.54 14.1074 6.8875 13.2411 9.5825L13.0679 10.125" stroke="#675DD2" stroke-width="2" stroke-linecap="round" stroke-linejoin="round"/>
</svg>
