<svg width="50" height="48" viewBox="0 0 50 48" fill="none" xmlns="http://www.w3.org/2000/svg">
<path fill-rule="evenodd" clip-rule="evenodd" d="M26.1537 31.8428C30.5306 27.0724 30.2116 19.6571 25.4412 15.2802C20.6709 10.9033 13.2555 11.2222 8.87862 15.9926C4.50171 20.763 4.82067 28.1783 9.59105 32.5552C14.3614 36.9321 21.7768 36.6132 26.1537 31.8428ZM26.6094 32.261C31.2173 27.2389 30.8815 19.4323 25.8594 14.8244C20.8373 10.2165 13.0307 10.5523 8.42286 15.5744C3.815 20.5965 4.15079 28.4031 9.17288 33.011C14.195 37.6188 22.0016 37.2831 26.6094 32.261Z" fill="#675DD2" stroke="#675DD2"/>
<path fill-rule="evenodd" clip-rule="evenodd" d="M33.5052 38.1187C37.8821 33.3483 37.5632 25.933 32.7928 21.5561C28.0224 17.1792 20.6071 17.4981 16.2302 22.2685C11.8533 27.0389 12.1722 34.4542 16.9426 38.8311C21.713 43.2081 29.1283 42.8891 33.5052 38.1187ZM33.961 38.5369C38.5689 33.5148 38.2331 25.7082 33.211 21.1003C28.1889 16.4925 20.3823 16.8283 15.7744 21.8503C11.1666 26.8724 11.5024 34.679 16.5244 39.2869C21.5465 43.8948 29.3531 43.559 33.961 38.5369Z" fill="#675DD2" stroke="#675DD2"/>
<path fill-rule="evenodd" clip-rule="evenodd" d="M33.5052 25.3575C37.8821 20.5871 37.5632 13.1718 32.7928 8.79485C28.0224 4.41794 20.6071 4.7369 16.2302 9.50727C11.8533 14.2776 12.1722 21.693 16.9426 26.0699C21.713 30.4468 29.1283 30.1278 33.5052 25.3575ZM33.961 25.7756C38.5689 20.7536 38.2331 12.9469 33.211 8.33909C28.1889 3.73122 20.3823 4.06702 15.7744 9.0891C11.1666 14.1112 11.5024 21.9178 16.5244 26.5257C21.5465 31.1335 29.3531 30.7977 33.961 25.7756Z" fill="#675DD2" stroke="#675DD2"/>
<path fill-rule="evenodd" clip-rule="evenodd" d="M40.6634 31.8428C45.0404 27.0724 44.7214 19.6571 39.951 15.2802C35.1806 10.9033 27.7653 11.2222 23.3884 15.9926C19.0115 20.763 19.3304 28.1783 24.1008 32.5552C28.8712 36.9321 36.2865 36.6132 40.6634 31.8428ZM41.1192 32.261C45.7271 27.2389 45.3913 19.4323 40.3692 14.8244C35.3471 10.2165 27.5405 10.5523 22.9326 15.5744C18.3248 20.5965 18.6606 28.4031 23.6826 33.011C28.7047 37.6188 36.5113 37.2831 41.1192 32.261Z" fill="#675DD2" stroke="#675DD2"/>
</svg>
