<svg width="36" height="35" viewBox="0 0 36 35" fill="none" xmlns="http://www.w3.org/2000/svg">
<g clip-path="url(#clip0_6_309)">
<path fill-rule="evenodd" clip-rule="evenodd" d="M6.16658 2.78339C5.23833 2.78339 4.34809 3.1416 3.69171 3.77923C3.03533 4.41685 2.66659 5.28165 2.66659 6.18339V11.8501H0.333252V6.18339C0.333252 4.6805 0.947833 3.23916 2.0418 2.17645C3.13576 1.11375 4.61949 0.516724 6.16658 0.516724L11.9999 0.516724V2.78339H6.16658ZM29.4999 2.78339H23.6666V0.516724H29.4999C31.047 0.516724 32.5307 1.11375 33.6247 2.17645C34.7187 3.23916 35.3333 4.6805 35.3333 6.18339V11.8501H32.9999V6.18339C32.9999 5.28165 32.6312 4.41685 31.9748 3.77923C31.3184 3.1416 30.4282 2.78339 29.4999 2.78339ZM11.9999 14.1167H9.66658V11.8501H11.9999V14.1167ZM25.9999 14.1167H23.6666V11.8501H25.9999V14.1167ZM11.7666 20.2367C12.4729 21.1516 13.3889 21.8942 14.4419 22.4057C15.4949 22.9171 16.656 23.1834 17.8333 23.1834C19.0105 23.1834 20.1716 22.9171 21.2246 22.4057C22.2776 21.8942 23.1936 21.1516 23.8999 20.2367L25.7666 21.5967C21.7999 26.7353 13.8666 26.7353 9.89992 21.5967L11.7666 20.2367ZM0.333252 28.8501V23.1834H2.66659V28.8501C2.66659 29.7518 3.03533 30.6166 3.69171 31.2542C4.34809 31.8918 5.23833 32.2501 6.16658 32.2501H11.9999V34.5167H6.16658C4.61949 34.5167 3.13576 33.9197 2.0418 32.857C0.947833 31.7943 0.333252 30.353 0.333252 28.8501ZM35.3333 23.1834V28.8501C35.3333 30.353 34.7187 31.7943 33.6247 32.857C32.5307 33.9197 31.047 34.5167 29.4999 34.5167H23.6666V32.2501H29.4999C30.4282 32.2501 31.3184 31.8918 31.9748 31.2542C32.6312 30.6166 32.9999 29.7518 32.9999 28.8501V23.1834H35.3333Z" fill="#675DD2"/>
</g>
<defs>
<clipPath id="clip0_6_309">
<rect width="35" height="34" fill="white" transform="translate(0.333252 0.516724)"/>
</clipPath>
</defs>
</svg>
