<svg width="386" height="136" viewBox="0 0 386 136" fill="none" xmlns="http://www.w3.org/2000/svg">
<path d="M-127.4 -22.9627C-101.575 21.5318 -75.3778 65.8254 -48.7619 109.818C-41.1774 122.322 -33.5928 134.827 -25.9617 147.332C-21.0759 155.367 -11.3974 148.386 -6.93045 143.616C-3.58021 140 -0.64875 135.882 1.86393 131.613C5.07458 126.139 8.47137 117.953 8.89014 111.274C9.68117 98.3175 8.61095 85.6119 5.58642 73.0571C2.60844 60.8035 -1.39324 48.9015 -5.6741 37.0999C-13.9101 14.4508 -22.2392 -8.09774 -30.6148 -30.6965C-35.361 -43.4523 -40.1072 -56.1579 -44.8533 -68.9136C-56.1139 -53.5967 -67.3279 -38.3299 -78.5884 -23.013C-55.7882 15.7063 -32.9414 54.526 -5.95329 90.0815C2.28272 100.879 10.891 111.375 19.825 121.469C22.2911 122.774 24.8038 122.825 27.363 121.569C29.9222 120.515 32.2022 118.958 34.1565 116.949C40.6244 111.224 45.1379 103.842 48.7208 95.7563C58.6319 73.4086 58.9111 49.1023 59.9348 24.8965C60.8654 2.74968 61.796 -19.3971 62.7732 -41.4938C51.1404 -29.4411 39.5076 -17.4386 27.9214 -5.38588C37.6929 17.0623 48.0694 39.2091 59.0972 61.0044C69.7994 82.1468 80.6877 103.44 93.065 123.477C99.3932 133.722 107.117 144.017 117.401 149.793C123.31 153.107 130.057 147.282 134.059 143.214C140.899 136.283 145.971 126.842 148.67 117.2C159.511 78.079 164.583 37.7527 164.537 -3.02557C152.904 10.835 141.271 24.6956 129.638 38.5562C138.991 55.882 148.391 73.2579 159.465 89.4286C165.514 98.2171 172.075 106.604 179.101 114.438C185.15 121.218 191.758 127.847 199.714 132.015C209.346 137.037 219.723 137.991 229.867 134.224C240.522 130.257 250.015 121.921 257.599 113.082C274.164 93.6973 286.588 70.9981 296.964 47.1438C301.338 37.0496 305.294 26.7546 309.249 16.5098C311.156 11.4879 313.064 6.51615 315.019 1.54441C316.042 -1.06701 317.112 -3.72864 318.183 -6.34005C318.369 -6.74181 318.508 -7.14357 318.694 -7.54533C320.37 -11.4625 316.182 -2.57359 316.368 -2.8749C316.601 -3.27667 316.926 -3.77886 317.112 -4.23084C315.996 -2.42293 314.832 -0.665249 313.716 1.14266C309.807 5.51176 308.737 6.76725 310.598 4.95935C309.063 6.31527 307.481 7.6712 305.945 9.02713C306.271 8.72581 306.643 8.42449 307.062 8.22362C305.573 9.07735 304.084 9.93108 302.595 10.7848C303.246 10.4333 303.805 10.2324 304.503 10.0315C303.153 10.3328 301.804 10.6342 300.408 10.9355C301.525 10.7848 302.455 10.8853 303.525 11.1364C302.362 10.7848 301.245 10.4835 300.082 10.132C304.27 11.739 307.574 15.7063 310.831 18.8702C314.367 22.2851 317.95 25.7 321.486 29.115C328.838 36.1959 336.237 43.2769 343.589 50.3578C358.339 64.5198 373.043 78.6816 387.793 92.8436C390.864 95.8065 397.425 92.0401 399.798 90.3828C405.103 86.6163 410.128 80.138 413.246 74.2623C416.55 68.1355 419.807 61.1048 420.272 53.9234C420.551 49.0521 420.365 44.7835 416.736 41.3183C389.515 15.3046 362.527 -10.7594 335.399 -36.7229C331.956 -39.9872 327.908 -42.8497 323.115 -42.7492C313.716 -42.4981 305.573 -33.9106 300.129 -26.5283C292.777 -16.5848 288.403 -4.63259 283.889 6.96813C277.84 22.6366 272.024 38.506 264.998 53.7225C264.532 54.7269 264.067 55.6811 263.602 56.6855C261.368 61.3559 267.324 49.1526 264.998 53.7728C263.974 55.8318 262.904 57.941 261.787 59.9497C259.693 63.9171 257.46 67.784 255.086 71.5505C252.248 76.02 259.693 64.4695 256.808 68.8386C256.203 69.7426 255.598 70.6465 254.993 71.5003C253.69 73.3584 252.388 75.2165 250.992 76.9742C250.154 78.079 247.176 81.6446 250.899 77.2253C254.528 72.9064 251.829 76.0702 250.945 77.0746C249.41 78.7319 247.828 80.2887 246.152 81.7953C247.688 80.4393 249.27 79.0834 250.806 77.7275C248.712 79.5354 246.571 81.1424 244.245 82.5486C245.734 81.6948 247.223 80.8411 248.712 79.9874C245.92 81.5944 243.035 82.7494 239.964 83.4525C241.313 83.1512 242.663 82.8499 244.059 82.5486C240.01 83.3521 236.055 83.1512 232.054 82.0966C233.217 82.4481 234.334 82.7494 235.497 83.101C223.073 79.5354 213.395 69.1901 204.926 59.2467C205.717 60.2009 206.508 61.155 207.345 62.059C189.71 41.2179 176.449 16.7609 163.327 -7.49511C161.233 -11.362 157.045 -12.0149 153.416 -10.4078C148.856 -8.44928 145.226 -4.88369 142.016 -1.01679C138.014 3.75407 134.338 9.42889 132.058 15.405C131.267 17.7151 130.476 19.975 129.732 22.2851C128.615 26.152 128.196 30.0691 128.475 34.0867C128.475 35.4928 128.475 36.899 128.475 38.3051C128.475 36.4972 128.522 34.6391 128.522 32.8312C128.289 57.1877 125.869 81.3935 121.356 105.248C121.775 103.139 122.147 101.029 122.566 98.9201C120.518 109.617 118.006 120.213 115.121 130.659C125.544 119.811 135.967 108.964 146.39 98.0664C141.411 95.2541 137.13 91.4374 133.314 87.0181C134.105 87.9723 134.896 88.9264 135.734 89.8304C130.011 83.0508 125.497 75.2667 121.077 67.4325C115.819 58.1419 110.654 48.7508 105.582 39.3095C95.4846 20.427 85.8526 1.19287 76.7325 -18.2421C71.5676 -29.2402 66.5888 -40.2885 61.703 -51.4372C60.912 -52.3914 60.1209 -53.3456 59.2834 -54.2495C57.4686 -55.3544 55.6539 -55.5552 53.7927 -54.8019C49.5584 -53.898 45.6497 -50.935 42.6252 -47.6708C39.275 -44.055 36.3435 -39.9369 33.8308 -35.6683C30.6667 -30.2948 27.0838 -21.8579 26.8046 -15.3294C26.0136 3.50298 25.2226 22.3353 24.385 41.2179C24.0128 50.5085 23.594 59.7991 23.2217 69.0897C22.8495 77.5266 22.3842 85.9133 20.8487 94.1995C21.2674 92.0903 21.6397 89.9811 22.0584 87.8718C21.5931 90.2322 21.0348 92.5422 20.3833 94.8523C18.8943 99.8743 22.9891 87.9221 21.3605 92.0401C20.8952 93.2453 20.4299 94.4004 19.918 95.5554C29.55 86.9679 39.1819 78.4306 48.8138 69.843C46.6734 67.4325 44.533 64.9717 42.4391 62.5109C43.2301 63.4651 44.0212 64.4193 44.8587 65.3232C17.9172 33.5343 -4.83655 -1.97095 -26.4735 -38.0286C-32.6156 -48.3236 -38.7112 -58.6186 -44.8068 -68.9639C-51.042 -79.51 -64.1638 -65.8 -68.4446 -59.8239C-72.772 -53.6469 -76.7272 -46.6664 -78.4953 -39.1334C-79.7517 -33.7097 -80.5892 -28.3362 -78.5884 -23.013C-65.6062 11.7892 -52.624 46.5914 -39.921 81.494C-36.4312 91.0859 -32.9879 100.678 -30.3356 110.571C-30.7079 109.115 -31.1266 107.709 -31.4989 106.252C-28.7536 116.547 -26.9388 127.043 -26.9388 137.79C-26.9388 135.982 -26.8923 134.124 -26.8923 132.316C-26.8923 134.024 -26.9854 135.781 -27.0784 137.489C-15.4456 125.436 -3.81286 113.434 7.7734 101.381C-19.0285 57.5894 -45.4582 13.4465 -71.5157 -30.8974C-78.9141 -43.5528 -86.3126 -56.2081 -93.6645 -68.8634C-95.9911 -72.8308 -99.7136 -73.2325 -103.576 -71.7761C-108.787 -69.8678 -114.092 -64.193 -117.256 -59.6732C-121.583 -53.5967 -125.538 -46.6161 -127.307 -39.1334C-128.47 -34.2621 -130.052 -27.5327 -127.4 -22.9627Z" fill="#90C6C0" fill-opacity="0.8"/>
</svg>
