<svg width="31" height="25" viewBox="0 0 31 25" fill="none" xmlns="http://www.w3.org/2000/svg">
<path d="M0.285156 0.124268H16.9115V1.17657H9.15077V18.5395H8.04586V1.17657H0.285156V0.124268Z" fill="white"/>
<path d="M23.7619 4.67546C25.0247 4.67546 26.1822 4.99115 27.2345 5.62253C28.2868 6.23637 29.1023 7.07821 29.6811 8.14805V4.85961H30.7334V17.724C30.7334 19.7058 30.0582 21.3544 28.7077 22.6698C27.3573 23.9851 25.6823 24.6428 23.683 24.6428C22.4904 24.6428 21.3767 24.3798 20.3419 23.8536C19.3247 23.345 18.5179 22.6435 17.9216 21.749L18.9476 21.3544C20.0525 22.8452 21.6222 23.5905 23.6567 23.5905C25.428 23.5905 26.875 23.0293 27.9974 21.9069C29.1549 20.8019 29.7337 19.4076 29.7337 17.724L29.7074 15.1721C29.1286 16.2771 28.3131 17.1452 27.2608 17.7766C26.226 18.408 25.0597 18.7236 23.7619 18.7236C21.8151 18.7236 20.2016 18.0572 18.9213 16.7243C17.6235 15.3738 16.9746 13.6989 16.9746 11.6996C16.9746 9.71772 17.6235 8.05159 18.9213 6.70114C20.2192 5.35069 21.8327 4.67546 23.7619 4.67546ZM27.9711 7.43774C26.8662 6.29775 25.4894 5.72776 23.8408 5.72776C22.1922 5.72776 20.8155 6.29775 19.7106 7.43774C18.6056 8.5602 18.0532 9.9808 18.0532 11.6996C18.0532 13.4183 18.6056 14.8389 19.7106 15.9614C20.8155 17.1014 22.1922 17.6714 23.8408 17.6714C25.4894 17.6714 26.8662 17.1014 27.9711 15.9614C29.076 14.8389 29.6285 13.4183 29.6285 11.6996C29.6285 9.9808 29.076 8.5602 27.9711 7.43774Z" fill="white"/>
</svg>
