<svg width="41" height="19" viewBox="0 0 41 19" fill="none" xmlns="http://www.w3.org/2000/svg">
<path d="M7.76965 18.8088H6.95412L0.508789 0.393555H1.64001L7.34873 16.9146L12.9259 0.393555H13.7414L19.3186 16.9673L25.001 0.393555H26.1586L19.7132 18.8088H18.8977L13.3205 2.36662L7.76965 18.8088Z" fill="white"/>
<path d="M33.827 4.94475C35.0898 4.94475 36.2473 5.26044 37.2996 5.89182C38.3519 6.50566 39.1674 7.3475 39.7462 8.41733V5.1289H40.7985V18.8088H39.7462V15.5203C39.1674 16.5902 38.3519 17.4408 37.2996 18.0722C36.2473 18.686 35.0898 18.9929 33.827 18.9929C31.8802 18.9929 30.2667 18.3265 28.9864 16.9936C27.6886 15.6431 27.0397 13.9682 27.0397 11.9688C27.0397 9.98701 27.6886 8.32087 28.9864 6.97042C30.2843 5.61997 31.8978 4.94475 33.827 4.94475ZM38.0362 7.70703C36.9313 6.56704 35.5545 5.99705 33.9059 5.99705C32.2573 5.99705 30.8806 6.56704 29.7756 7.70703C28.6707 8.82948 28.1183 10.2501 28.1183 11.9688C28.1183 13.6876 28.6707 15.1082 29.7756 16.2307C30.8806 17.3706 32.2573 17.9406 33.9059 17.9406C35.5545 17.9406 36.9313 17.3706 38.0362 16.2307C39.1411 15.1082 39.6936 13.6876 39.6936 11.9688C39.6936 10.2501 39.1411 8.82948 38.0362 7.70703Z" fill="white"/>
</svg>
