<svg width="342" height="72" viewBox="0 0 342 72" fill="none" xmlns="http://www.w3.org/2000/svg">
<rect x="0.668945" y="6.87085" width="339.672" height="64.9854" rx="23" transform="rotate(-1.09836 0.668945 6.87085)" fill="#87DBD1"/>
<mask id="mask0_68_304" style="mask-type:alpha" maskUnits="userSpaceOnUse" x="1" y="0" width="341" height="72">
<rect x="0.668945" y="6.87085" width="339.672" height="64.9854" rx="23" transform="rotate(-1.09836 0.668945 6.87085)" fill="#87DBD1"/>
</mask>
<g mask="url(#mask0_68_304)">
<path d="M-19.6424 7.10987C-1.78673 35.0594 16.3161 62.8764 34.6959 90.4965C39.9332 98.3471 45.1704 106.198 50.4388 114.048C53.8123 119.092 60.2158 114.531 63.1524 111.441C65.3544 109.1 67.2696 106.445 68.9021 103.699C70.9879 100.179 73.1654 94.9319 73.3648 90.6811C73.7372 82.4355 72.8649 74.3734 70.6842 66.4322C68.5383 58.6819 65.7105 51.1682 62.6967 43.722C56.8991 29.4318 51.0403 15.2066 45.1498 0.950116C41.8124 -7.09664 38.4756 -15.1115 35.1383 -23.1582C27.7756 -13.2778 20.4436 -3.42988 13.081 6.45056C28.8385 30.7681 44.6286 55.1488 63.1552 77.4015C68.8083 84.1585 74.7074 90.7192 80.8199 97.0204C82.4892 97.8186 84.1743 97.8183 85.8748 96.9873C87.5777 96.2841 89.0873 95.2653 90.373 93.9634C94.6394 90.2413 97.5754 85.491 99.8789 80.3058C106.251 65.9738 106.142 50.5208 106.533 35.122C106.888 21.0332 107.242 6.94438 107.627 -7.11313C99.9754 0.697277 92.3228 8.47576 84.702 16.2856C91.5266 30.4284 98.7531 44.3718 106.412 58.0835C113.845 71.3844 121.404 84.7787 129.946 97.3558C134.313 103.786 139.617 110.231 146.582 113.769C150.584 115.8 155.036 112.011 157.67 109.374C162.171 104.881 165.456 98.8144 167.148 92.6511C173.94 67.6458 176.849 41.9485 176.32 16.0298C168.691 24.9894 161.061 33.9489 153.431 42.9084C159.912 53.8007 166.425 64.7244 174.047 74.8604C178.209 80.3687 182.71 85.615 187.516 90.5043C191.654 94.7358 196.165 98.8643 201.55 101.411C208.068 104.48 215.037 104.953 221.791 102.428C228.887 99.7697 235.149 94.3489 240.126 88.6335C250.995 76.0993 259.048 61.5116 265.714 46.2161C268.523 39.7439 271.049 33.1494 273.576 26.5868C274.794 23.3702 276.012 20.1856 277.262 17.0004C277.917 15.3273 278.602 13.6218 279.287 11.9482C279.407 11.6904 279.496 11.4333 279.616 11.1755C280.691 8.6642 277.992 14.3679 278.113 14.174C278.264 13.9157 278.476 13.5923 278.595 13.3026C277.869 14.4661 277.11 15.5983 276.384 16.7617C273.816 19.589 273.114 20.4008 274.34 19.2278C273.327 20.1093 272.283 20.9915 271.27 21.8731C271.485 21.6774 271.731 21.4811 272.009 21.348C271.021 21.9098 270.033 22.4716 269.045 23.0334C269.478 22.8016 269.85 22.6667 270.315 22.5301C269.414 22.7389 268.513 22.9478 267.581 23.1573C268.328 23.0471 268.953 23.099 269.674 23.2449C268.89 23.0364 268.137 22.8592 267.353 22.6507C270.18 23.6183 272.443 26.0976 274.666 28.0667C277.078 30.1918 279.522 32.3164 281.934 34.4415C286.949 38.8478 291.996 43.2534 297.011 47.6597C307.072 56.4716 317.103 65.2842 327.164 74.0961C329.259 75.9399 333.612 73.4616 335.183 72.3777C338.693 69.9155 341.983 65.7332 344.002 61.9584C346.142 58.0217 348.24 53.511 348.464 48.9404C348.592 45.8405 348.415 43.1297 345.94 40.9738C327.374 24.789 308.963 8.56922 290.459 -7.58491C288.111 -9.61547 285.362 -11.3829 282.15 -11.2575C275.852 -10.977 270.497 -5.41399 266.937 -0.651726C262.13 5.763 259.343 13.4163 256.458 20.8479C252.594 30.8848 248.888 41.0464 244.363 50.8085C244.063 51.4529 243.763 52.0654 243.463 52.7098C242.023 55.7071 245.867 47.8739 244.363 50.8405C243.702 52.1623 243.01 53.5167 242.286 54.8079C240.931 57.3565 239.481 59.8431 237.935 62.2676C236.087 65.145 240.938 57.7077 239.057 60.5218C238.662 61.1042 238.268 61.6865 237.872 62.2369C237.022 63.4347 236.171 64.6325 235.256 65.7677C234.708 66.4807 232.755 68.7853 235.197 65.9285C237.578 63.1367 235.807 65.1823 235.226 65.8321C234.217 66.9052 233.176 67.9151 232.071 68.8942C233.084 68.0126 234.128 67.1305 235.141 66.2489C233.759 67.4249 232.344 68.4739 230.801 69.3975C231.789 68.8358 232.777 68.274 233.765 67.7122C231.912 68.7695 229.992 69.5408 227.942 70.0271C228.843 69.8183 229.744 69.6094 230.676 69.3999C227.972 69.9627 225.318 69.8859 222.622 69.267C223.406 69.4755 224.159 69.6526 224.943 69.8611C216.57 67.7545 209.956 61.3033 204.157 55.0919C204.699 55.6882 205.241 56.2845 205.813 56.8483C193.736 43.8281 184.548 28.4533 175.455 13.2045C174.004 10.7735 171.188 10.4124 168.775 11.4805C165.742 12.784 163.352 15.097 161.246 17.5961C158.622 20.68 156.226 24.3342 154.771 28.1621C154.269 29.6406 153.766 31.0871 153.295 32.565C152.593 35.0373 152.36 37.5324 152.596 40.0825C152.613 40.9762 152.631 41.87 152.648 42.7638C152.626 41.6147 152.634 40.433 152.612 39.2839C152.753 54.7682 151.426 70.1849 148.691 85.4051C148.946 84.0591 149.169 82.7136 149.425 81.3676C148.182 88.1929 146.627 94.9604 144.82 101.637C151.676 94.6082 158.531 87.5794 165.386 80.5187C162.014 78.7952 159.098 76.4243 156.486 73.6643C157.028 74.2606 157.57 74.8569 158.142 75.4207C154.222 71.1851 151.102 66.2954 148.043 61.3727C144.404 55.535 140.827 49.6323 137.312 43.6965C130.312 31.8242 123.62 19.7225 117.269 7.48656C113.673 0.562398 110.2 -6.39608 106.789 -13.4196C106.247 -14.0159 105.705 -14.6122 105.132 -15.176C103.902 -15.855 102.683 -15.9593 101.444 -15.4566C98.6167 -14.8276 96.0324 -12.8941 94.0445 -10.7804C91.8425 -8.43903 89.9273 -5.78388 88.2948 -3.03835C86.239 0.417793 83.9398 5.82646 83.8322 9.97969C83.5313 21.96 83.2305 33.9403 82.8991 45.9531C82.7627 51.8631 82.5952 57.7738 82.4589 63.6838C82.3121 69.0512 82.1024 74.3879 81.1739 79.6745C81.429 78.3285 81.6528 76.983 81.9079 75.637C81.6247 77.1432 81.2785 78.6187 80.8699 80.0954C79.9328 83.3066 82.5324 75.6569 81.4907 78.2953C81.1935 79.0674 80.8956 79.8076 80.5665 80.5483C86.9193 74.9661 93.2727 69.4159 99.6255 63.8337C98.1611 62.329 96.6962 60.7924 95.2624 59.2552C95.8043 59.8516 96.3463 60.4479 96.9188 61.0117C78.4693 41.1524 62.7821 18.8772 47.8368 -3.76349C43.5936 -10.2282 39.3815 -16.6935 35.1688 -23.1908C30.8601 -29.8139 22.2301 -20.931 19.433 -17.0774C16.6071 -13.0956 14.0405 -8.60784 12.9469 -3.79707C12.1707 -0.333521 11.6747 3.09272 13.081 6.45056C22.2086 28.4045 31.3362 50.3584 40.2779 72.3798C42.7344 78.4317 45.1598 84.4842 47.0585 90.7384C46.7912 89.8175 46.4933 88.9291 46.226 88.0082C48.1919 94.5166 49.5365 101.165 49.6674 107.996C49.6454 106.846 49.654 105.665 49.6319 104.516C49.6527 105.601 49.6118 106.719 49.5702 107.806C57.2221 99.9955 64.8747 92.217 72.4955 84.4072C53.9933 56.9171 35.7364 29.1989 17.7266 1.34816C12.6123 -6.60067 7.498 -14.5495 2.41491 -22.4989C0.806793 -24.9907 -1.69374 -25.1982 -4.26521 -24.2229C-7.73583 -22.943 -11.223 -19.2678 -13.2892 -16.3543C-16.1163 -12.4363 -18.6828 -7.94853 -19.7771 -3.16967C-20.4976 -0.0584444 -21.4762 4.23921 -19.6424 7.10987Z" fill="#76CBC2" fill-opacity="0.8"/>
</g>
</svg>
