<svg width="250" height="71" viewBox="0 0 250 71" fill="none" xmlns="http://www.w3.org/2000/svg">
<rect x="0.485779" y="5.18018" width="248.169" height="64.9854" rx="23" transform="rotate(-1.09836 0.485779 5.18018)" fill="#87DBD1"/>
<mask id="mask0_179_26" style="mask-type:alpha" maskUnits="userSpaceOnUse" x="0" y="0" width="250" height="70">
<rect x="0.485779" y="5.18018" width="248.169" height="64.9854" rx="23" transform="rotate(-1.09836 0.485779 5.18018)" fill="#87DBD1"/>
</mask>
<g mask="url(#mask0_179_26)">
<path d="M-14.3547 5.31411C-1.16304 33.353 12.2085 61.2607 25.7815 88.973C29.649 96.8499 33.5164 104.727 37.4067 112.603C39.8977 117.665 44.5534 113.137 46.6832 110.063C48.2802 107.733 49.6659 105.088 50.8446 102.351C52.3506 98.8415 53.9146 93.6066 54.0383 89.3573C54.2679 81.1144 53.5889 73.0486 51.9544 65.0969C50.3464 57.3363 48.2413 49.8088 46.0006 42.3477C41.6904 28.029 37.3359 13.775 32.958 -0.510528C30.4778 -8.57372 27.9982 -16.605 25.518 -24.6682C20.189 -14.8267 14.8822 -5.01765 9.55328 4.8238C21.1931 29.2203 32.857 53.6801 46.5095 76.0263C50.6752 82.8118 55.0196 89.4023 59.5187 95.7344C60.7425 96.5412 61.9739 96.5495 63.2122 95.7275C64.4529 95.0331 65.5507 94.0222 66.4835 92.727C69.5818 89.0273 71.7026 84.2927 73.359 79.1198C77.9414 64.8222 77.7819 49.3701 77.9883 33.9749C78.1743 19.8893 78.3602 5.80372 78.5696 -8.25041C73.0185 -0.480285 67.4668 7.25792 61.9385 15.0276C66.9984 29.2042 72.3508 43.1836 78.0181 56.9335C83.5179 70.2715 89.1106 83.7034 95.4174 96.3234C98.642 102.776 102.551 109.247 107.658 112.821C110.593 114.872 113.827 111.106 115.738 108.483C119.004 104.014 121.373 97.9652 122.577 91.8112C127.411 66.8434 129.404 41.1638 128.884 15.2449C123.355 24.1642 117.826 33.0834 112.297 42.0027C117.089 52.9274 121.905 63.8835 127.526 74.0579C130.596 79.5871 133.912 84.8562 137.449 89.7698C140.495 94.0222 143.812 98.1737 147.76 100.748C152.539 103.85 157.634 104.359 162.556 101.87C167.727 99.2479 172.275 93.86 175.883 88.1708C183.76 75.694 189.569 61.1493 194.361 45.8897C196.38 39.4326 198.192 32.8518 200.005 26.3029C200.878 23.093 201.752 19.915 202.649 16.7365C203.118 15.067 203.61 13.3652 204.102 11.6953C204.189 11.4382 204.252 11.1815 204.338 10.9244C205.111 8.41886 203.168 14.1081 203.256 13.9148C203.365 13.6573 203.518 13.335 203.604 13.046C203.079 14.2056 202.53 15.3337 202.005 16.4934C200.144 19.3071 199.635 20.1152 200.525 18.9486C199.789 19.8249 199.031 20.7016 198.295 21.5778C198.451 21.3832 198.63 21.1882 198.832 21.0566C198.114 21.6132 197.395 22.1699 196.676 22.7265C196.99 22.4969 197.262 22.364 197.601 22.2298C196.944 22.434 196.286 22.6382 195.606 22.8428C196.151 22.7365 196.609 22.7917 197.136 22.9412C196.562 22.7287 196.011 22.5477 195.437 22.3351C197.508 23.3173 199.174 25.8079 200.808 27.7883C202.582 29.9257 204.379 32.0626 206.153 34.2C209.84 38.6317 213.55 43.063 217.238 47.4947C224.635 56.3578 232.01 65.2212 239.408 74.0842C240.948 75.9387 244.116 73.483 245.258 72.4074C247.81 69.9635 250.193 65.7986 251.648 62.0347C253.192 58.1094 254.701 53.6099 254.842 49.041C254.919 45.9421 254.776 43.2306 252.956 41.0622C239.306 24.7831 225.769 8.46985 212.165 -7.7782C210.439 -9.82069 208.421 -11.6021 206.074 -11.4933C201.474 -11.2454 197.59 -5.71057 195.013 -0.967152C191.533 5.42212 189.536 13.0602 187.467 20.4762C184.695 30.4922 182.039 40.6336 178.783 50.3715C178.567 51.0142 178.351 51.6251 178.136 52.2679C177.098 55.2574 179.867 47.4449 178.784 50.4034C178.307 51.7217 177.809 53.0724 177.286 54.3597C176.309 56.9011 175.262 59.3799 174.146 61.7962C172.81 64.6638 176.316 57.2522 174.956 60.0564C174.671 60.6366 174.385 61.2169 174.1 61.7652C173.484 62.9585 172.869 64.1518 172.206 65.2821C171.809 65.9922 170.394 68.2865 172.164 65.4426C173.889 62.6633 172.605 64.6997 172.185 65.3464C171.453 66.4142 170.697 67.4186 169.895 68.3919C170.63 67.5156 171.389 66.6389 172.124 65.7627C171.121 66.9315 170.092 67.973 168.969 68.8886C169.688 68.332 170.407 67.7754 171.126 67.2187C169.778 68.2664 168.379 69.0277 166.883 69.5034C167.541 69.2992 168.198 69.095 168.878 68.8904C166.905 69.4391 164.965 69.3486 162.992 68.7158C163.566 68.9283 164.117 69.1094 164.691 69.3219C158.562 67.1722 153.696 60.6875 149.426 54.4468C149.825 55.0459 150.224 55.6449 150.646 56.2116C141.754 43.1303 134.96 27.7097 128.237 12.4154C127.164 9.97716 125.105 9.60152 123.347 10.6571C121.137 11.9448 119.403 14.2452 117.877 16.7332C115.975 19.8032 114.244 23.4448 113.2 27.2647C112.841 28.7404 112.481 30.1843 112.144 31.6596C111.644 34.128 111.487 36.6217 111.673 39.1727C111.69 40.0665 111.707 40.9602 111.724 41.854C111.702 40.7049 111.702 39.5234 111.68 38.3742C111.863 53.8578 110.973 69.2661 109.053 84.4707C109.232 83.1261 109.389 81.7819 109.568 80.4373C108.696 87.2556 107.594 94.0144 106.308 100.681C111.281 93.6882 116.255 86.6956 121.227 79.671C118.754 77.9302 116.611 75.5444 114.688 72.7713C115.087 73.3703 115.486 73.9694 115.908 74.5361C113.022 70.2806 110.716 65.3753 108.455 60.4373C105.766 54.5814 103.122 48.6608 100.523 42.7074C95.3468 30.8002 90.3945 18.6651 85.6905 6.39761C83.0266 -0.544435 80.4532 -7.52015 77.9242 -14.5606C77.5251 -15.1596 77.126 -15.7587 76.7048 -16.3254C75.8024 -17.0106 74.9111 -17.1212 74.0086 -16.625C71.9456 -16.0106 70.0672 -14.0906 68.6255 -11.9874C67.0285 -9.65767 65.6428 -7.01268 64.4641 -4.27585C62.9797 -0.830661 61.3276 4.5656 61.2704 8.71787C61.1124 20.6954 60.9544 32.673 60.7743 44.6829C60.7052 50.5916 60.6133 56.5008 60.5441 62.4096C60.4646 67.7757 60.3389 73.1108 59.6878 78.392C59.8672 77.0475 60.0238 75.7033 60.2032 74.3587C60.0041 75.8634 59.7587 77.3369 59.4678 78.8114C58.7997 82.0174 60.6597 74.3819 59.9122 77.0147C59.6989 77.7851 59.4851 78.5237 59.2485 79.2626C63.8617 73.7138 68.4756 68.1969 73.0888 62.6481C72.011 61.136 70.9326 59.592 69.877 58.0476C70.2761 58.6466 70.6752 59.2457 71.0964 59.8124C57.5126 39.8598 45.9347 17.5058 34.8971 -5.20979C31.7631 -11.6958 28.652 -18.1822 25.5402 -24.7005C22.3575 -31.3453 16.0973 -22.5078 14.0733 -18.6691C12.0289 -14.7022 10.1767 -10.2282 9.40241 -5.4235C8.85313 -1.9643 8.50836 1.45904 9.55328 4.8238C16.3363 26.8227 23.1193 48.8216 29.7668 70.8869C31.5931 76.9509 33.3966 83.0154 34.8163 89.2788C34.6162 88.3566 34.3939 87.4667 34.1939 86.5445C35.664 93.0624 36.6808 99.7167 36.8118 106.548C36.7897 105.399 36.7899 104.217 36.7679 103.068C36.7887 104.153 36.7645 105.271 36.7397 106.357C42.2908 98.5873 47.8425 90.8491 53.3708 83.0794C39.709 55.4966 26.2254 27.6868 12.9216 -0.254109C9.14343 -8.22856 5.36531 -16.203 1.60999 -24.1779C0.422048 -26.6777 -1.40619 -26.8981 -3.28017 -25.9362C-5.80959 -24.6743 -8.33871 -21.0175 -9.83347 -18.1149C-11.8791 -14.2119 -13.7313 -9.73785 -14.5062 -4.96511C-15.0166 -1.85792 -15.7095 2.43426 -14.3547 5.31411Z" fill="#76CBC2" fill-opacity="0.8"/>
</g>
</svg>
